if (_typeface_js && _typeface_js.loadFace) _typeface_js.loadFace({"glyphs":{"0":{"ha":1149,"x_min":19,"x_max":1093,"o":"m 50 826 q 19 863 19 826 q 29 897 19 878 q 63 938 39 915 q 224 1033 131 993 q 256 1070 240 1060 q 285 1081 271 1081 q 307 1065 300 1081 q 433 1095 369 1085 q 563 1106 497 1106 q 789 1064 690 1106 q 956 949 888 1022 q 1058 774 1024 875 q 1093 554 1093 674 q 1037 284 1093 404 q 890 78 981 164 q 686 -53 800 -7 q 458 -99 572 -99 q 162 25 268 -99 q 56 386 56 149 q 83 651 56 508 q 168 925 111 794 q 99 876 129 901 q 50 826 69 851 m 139 411 q 228 85 139 190 q 474 -21 318 -21 q 679 23 582 -21 q 849 143 776 67 q 965 322 922 219 q 1008 542 1008 425 q 980 736 1008 647 q 893 890 951 825 q 747 991 835 954 q 542 1028 660 1028 q 394 1013 465 1028 q 261 972 324 997 q 204 828 228 903 q 166 680 181 753 q 145 538 151 607 q 139 411 139 469 z "},"1":{"ha":538,"x_min":-14,"x_max":468,"o":"m 38 506 q 0 518 14 506 q -14 554 -14 531 q -6 587 -14 571 q 18 611 1 603 q 68 606 35 599 q 146 644 101 613 q 243 735 190 676 q 350 886 296 794 q 397 1046 372 985 q 444 1107 421 1107 q 468 1069 468 1107 q 454 988 468 1038 q 413 881 440 939 q 383 634 393 764 q 374 382 374 504 q 390 113 374 218 q 426 -15 406 8 q 406 -57 421 -43 q 372 -71 390 -71 q 335 -57 351 -71 q 309 0 319 -43 q 293 121 299 43 q 288 326 288 199 q 297 535 288 428 q 322 743 307 643 q 165 558 238 611 q 38 506 92 506 z "},"2":{"ha":1086,"x_min":42,"x_max":1044,"o":"m 918 811 q 861 966 918 911 q 674 1021 804 1021 q 439 979 542 1021 q 265 876 336 938 q 158 743 194 815 q 121 611 121 671 q 271 485 121 485 q 385 510 328 485 q 487 575 442 536 q 560 660 532 614 q 589 749 589 707 q 532 808 589 808 q 485 800 513 808 q 431 776 458 792 q 378 737 403 760 q 339 685 354 714 q 325 681 335 681 q 299 703 304 681 q 315 756 294 725 q 361 806 333 782 q 420 846 389 829 q 485 872 451 863 q 551 882 519 882 q 635 851 607 882 q 663 765 663 821 q 626 643 663 706 q 532 530 590 581 q 399 447 474 479 q 249 415 325 415 q 93 464 144 415 q 42 589 42 513 q 92 768 42 678 q 231 931 143 858 q 436 1049 318 1004 q 690 1094 554 1094 q 928 1022 851 1094 q 1006 824 1006 949 q 981 687 1006 758 q 915 543 957 615 q 815 401 872 471 q 692 270 758 332 q 554 157 626 208 q 411 71 482 106 q 504 41 458 57 q 598 12 550 25 q 697 -10 646 -1 q 804 -18 747 -18 q 883 -8 851 -18 q 932 21 914 3 q 953 62 950 39 q 947 108 957 85 q 968 129 954 121 q 999 138 982 138 q 1033 122 1021 138 q 1044 83 1044 107 q 1026 15 1044 47 q 974 -41 1008 -17 q 890 -79 939 -65 q 779 -93 842 -93 q 649 -78 711 -93 q 528 -42 586 -62 q 416 -1 469 -22 q 313 31 363 19 q 181 7 242 7 q 99 22 124 7 q 74 54 74 36 q 99 90 74 74 q 181 107 124 107 q 303 96 243 107 q 441 163 369 118 q 581 265 513 207 q 710 392 649 324 q 818 533 772 461 q 891 676 864 606 q 918 811 918 747 z "},"3":{"ha":1189,"x_min":14,"x_max":1133,"o":"m 378 56 q 315 60 344 56 q 262 74 285 65 q 225 97 239 83 q 211 131 211 111 q 226 165 211 150 q 268 179 242 181 q 309 142 276 158 q 392 125 342 125 q 506 138 454 125 q 592 170 557 150 q 647 216 628 190 q 667 268 667 242 q 617 328 667 304 q 468 351 568 351 q 316 331 385 351 q 199 276 247 310 q 125 202 151 243 q 99 122 99 161 q 166 10 99 54 q 385 -33 233 -33 q 638 4 518 -33 q 847 101 757 42 q 991 231 938 160 q 1044 371 1044 303 q 1017 454 1044 418 q 943 514 990 490 q 831 549 896 538 q 690 561 767 561 q 624 558 658 561 q 556 550 589 556 q 431 499 483 514 q 346 483 378 483 q 323 490 331 483 q 315 504 315 496 q 374 562 315 531 q 539 613 433 593 q 668 681 611 643 q 765 758 725 718 q 825 838 804 799 q 846 914 846 878 q 801 1002 846 968 q 642 1036 756 1036 q 447 1009 536 1036 q 291 941 357 982 q 188 853 225 900 q 151 765 151 806 q 174 710 151 729 q 250 692 196 692 q 322 702 285 692 q 388 730 358 713 q 435 770 417 747 q 454 817 454 793 q 450 837 454 828 q 435 851 446 846 q 457 878 442 868 q 493 889 472 889 q 528 874 517 889 q 540 835 540 858 q 514 762 540 799 q 444 694 488 725 q 343 645 400 664 q 225 626 286 626 q 113 659 154 626 q 71 749 71 692 q 121 875 71 811 q 253 990 171 939 q 442 1074 335 1042 q 661 1107 549 1107 q 869 1058 803 1107 q 936 931 936 1008 q 873 775 936 857 q 699 626 810 693 l 707 626 q 716 627 711 626 q 728 628 721 628 q 898 610 822 628 q 1026 560 974 592 q 1106 482 1078 528 q 1133 382 1133 436 q 1106 267 1133 325 q 1027 154 1078 208 q 906 53 976 100 q 749 -29 835 6 q 567 -84 664 -64 q 367 -104 469 -104 q 215 -88 281 -104 q 104 -44 149 -72 q 37 24 60 -15 q 14 108 14 63 q 49 220 14 165 q 148 319 85 275 q 299 390 211 363 q 492 417 386 417 q 608 406 560 417 q 688 377 657 396 q 733 334 718 358 q 747 281 747 310 q 719 199 747 239 q 640 126 690 158 q 523 75 590 94 q 378 56 456 56 z "},"4":{"ha":1031,"x_min":-1,"x_max":1031,"o":"m 915 1119 q 889 995 901 1069 q 867 833 876 921 q 851 648 857 744 q 844 456 844 551 q 986 422 942 444 q 1031 371 1031 399 q 1012 332 1031 346 q 968 319 993 318 q 844 374 953 357 q 850 207 846 278 q 862 88 854 136 q 880 10 869 39 q 903 -33 890 -19 q 884 -70 899 -57 q 849 -83 869 -83 q 810 -67 826 -83 q 782 -1 793 -50 q 766 140 771 49 q 761 382 761 232 q 649 386 711 386 q 499 381 575 386 q 349 365 422 375 q 208 343 275 356 q 86 317 140 331 q 18 319 38 303 q 1 360 -1 336 q 174 526 97 440 q 303 690 250 611 q 384 836 356 769 q 413 946 413 903 q 406 985 413 968 q 385 1010 400 1001 q 407 1042 392 1029 q 447 1056 422 1056 q 488 1034 474 1056 q 503 972 503 1013 q 475 848 503 918 q 398 701 447 778 q 281 545 349 624 q 135 396 214 467 q 410 445 263 428 q 699 463 558 463 q 717 462 707 463 q 739 461 728 461 l 763 461 q 770 626 764 539 q 786 796 776 713 q 808 952 796 879 q 832 1075 819 1025 q 854 1126 842 1111 q 886 1142 867 1142 q 915 1119 910 1142 z "},"5":{"ha":1135,"x_min":42,"x_max":1079,"o":"m 319 849 q 305 729 319 793 q 263 613 290 665 q 461 672 350 646 q 685 699 572 699 q 873 676 797 699 q 994 617 949 654 q 1060 528 1040 579 q 1079 422 1079 478 q 1016 226 1079 319 q 849 63 953 133 q 612 -51 744 -8 q 340 -93 479 -93 q 206 -78 263 -93 q 113 -38 149 -64 q 59 24 76 -12 q 42 101 42 60 q 86 230 42 165 q 206 347 131 294 q 380 431 281 399 q 590 464 479 464 q 734 431 689 464 q 779 346 779 399 q 752 269 779 306 q 681 206 725 233 q 581 161 636 178 q 468 144 525 144 q 403 155 422 144 q 383 183 383 165 q 392 208 383 197 q 506 208 451 199 q 601 236 560 217 q 668 282 643 256 q 693 335 693 308 q 668 375 693 357 q 574 393 643 393 q 407 369 488 393 q 264 306 326 344 q 164 217 201 267 q 126 115 126 167 q 139 61 126 86 q 178 17 151 36 q 250 -12 206 -1 q 357 -22 294 -22 q 514 -6 436 -22 q 663 42 592 11 q 794 113 733 72 q 900 202 856 154 q 969 303 944 250 q 994 411 994 357 q 976 497 994 457 q 919 565 958 536 q 815 611 879 594 q 658 628 750 628 q 549 619 607 628 q 432 597 492 611 q 313 562 372 582 q 199 517 253 542 q 148 469 169 482 q 108 457 126 457 q 83 483 83 457 q 101 522 83 499 q 160 569 118 544 q 218 693 199 622 q 238 832 238 764 q 219 947 238 897 q 163 1022 200 997 q 177 1058 167 1042 q 210 1075 188 1075 q 255 1066 225 1075 q 329 1047 285 1057 q 434 1028 374 1036 q 571 1019 494 1019 q 779 1042 697 1019 q 886 1099 861 1065 q 924 1088 911 1100 q 936 1056 936 1075 q 850 974 936 1006 q 579 943 764 943 q 438 953 515 943 q 294 982 361 963 q 313 919 307 954 q 319 849 319 883 z "},"6":{"ha":1117,"x_min":56,"x_max":1075,"o":"m 136 350 q 201 459 150 404 q 331 558 253 514 q 510 631 410 603 q 725 660 611 660 q 876 640 810 660 q 985 583 942 619 q 1052 496 1029 546 q 1075 388 1075 446 q 1024 197 1075 286 q 890 42 974 108 q 700 -64 807 -25 q 481 -103 593 -103 q 313 -76 390 -103 q 178 8 235 -49 q 88 149 121 64 q 56 351 56 235 q 106 656 56 517 q 240 894 156 794 q 433 1051 324 994 q 660 1107 542 1107 q 756 1097 714 1107 q 828 1072 799 1088 q 872 1035 857 1056 q 888 994 888 1015 q 866 957 888 968 q 821 951 844 946 q 765 1010 807 988 q 651 1033 722 1033 q 450 978 544 1033 q 286 830 356 922 q 176 617 217 738 q 136 368 136 497 l 136 350 m 257 269 q 256 235 264 254 q 214 217 247 217 q 176 224 194 217 q 147 247 158 232 q 197 121 163 174 q 276 34 231 68 q 378 -16 322 0 q 492 -32 433 -32 q 679 2 589 -32 q 838 92 769 36 q 948 222 907 149 q 989 372 989 294 q 919 529 989 471 q 711 588 850 588 q 510 560 603 588 q 351 493 418 533 q 245 408 283 453 q 207 325 207 363 q 257 269 207 282 z "},"7":{"ha":894,"x_min":0,"x_max":894,"o":"m 342 79 q 374 293 342 175 q 463 533 407 411 q 594 774 519 656 q 756 988 669 892 q 658 964 710 975 q 551 946 606 953 q 444 935 497 939 q 343 931 390 931 q 196 941 260 931 q 88 969 132 951 q 22 1010 44 988 q 0 1056 0 1032 q 15 1090 0 1079 q 58 1097 31 1101 q 156 1034 78 1063 q 376 1006 233 1006 q 497 1010 435 1006 q 620 1024 560 1015 q 734 1046 681 1033 q 829 1072 788 1058 q 874 1074 857 1082 q 894 1038 892 1065 q 770 897 829 974 q 660 739 711 821 q 569 572 610 657 q 499 404 528 486 q 453 247 469 322 q 438 110 438 172 q 450 17 438 46 q 478 -24 463 -11 q 457 -62 474 -50 q 421 -74 440 -74 q 364 -39 386 -74 q 342 79 342 -4 z "},"8":{"ha":1206,"x_min":63,"x_max":1143,"o":"m 908 947 q 925 956 915 953 q 942 958 935 958 q 977 945 965 958 q 989 910 989 932 q 903 781 989 856 q 631 601 817 706 q 647 596 639 599 q 663 592 654 593 q 681 588 672 590 q 901 514 813 550 q 1044 440 990 478 q 1120 359 1097 401 q 1143 268 1143 317 q 1092 131 1143 197 q 951 13 1040 64 q 743 -68 863 -37 q 489 -99 624 -99 q 305 -80 385 -99 q 171 -29 225 -61 q 90 47 117 3 q 63 144 63 92 q 82 242 63 193 q 148 344 101 292 q 272 455 194 397 q 465 579 350 513 q 341 633 390 607 q 263 687 292 660 q 221 742 233 714 q 208 801 208 771 q 247 908 208 854 q 351 1006 286 963 q 500 1076 415 1049 q 676 1103 585 1103 q 828 1068 781 1103 q 875 981 875 1033 q 851 910 875 946 q 789 842 828 874 q 699 788 750 811 q 594 756 649 764 q 538 758 557 749 q 519 785 519 768 q 526 807 519 797 q 619 824 572 808 q 704 865 667 840 q 766 917 742 889 q 790 971 790 946 q 760 1019 790 1003 q 663 1035 729 1035 q 512 1014 581 1035 q 394 960 443 993 q 317 888 344 928 q 289 810 289 847 q 299 767 289 788 q 339 724 310 746 q 419 677 368 701 q 550 626 469 653 q 821 807 731 731 q 908 947 911 883 m 147 160 q 233 26 147 78 q 497 -26 319 -26 q 725 -1 622 -26 q 901 66 828 25 q 1016 158 975 107 q 1057 258 1057 208 q 1033 334 1057 300 q 959 399 1010 368 q 827 461 908 431 q 632 525 746 492 q 586 538 610 532 q 540 551 563 544 q 353 435 429 489 q 232 333 278 381 q 167 242 186 285 q 147 160 147 200 z "},"9":{"ha":1113,"x_min":42,"x_max":1075,"o":"m 301 231 q 109 292 176 231 q 42 468 42 353 q 76 621 42 544 q 167 767 110 697 q 299 897 224 838 q 460 1001 375 957 q 631 1071 544 1046 q 799 1096 718 1096 q 917 1078 868 1096 q 994 1033 965 1061 q 1033 967 1022 1004 q 1039 889 1044 929 q 1069 867 1063 886 q 1060 811 1075 847 q 957 474 992 643 q 922 160 922 306 q 940 26 922 75 q 981 -33 957 -22 q 962 -72 978 -57 q 922 -86 946 -86 q 887 -75 903 -86 q 859 -38 871 -64 q 841 28 847 -12 q 835 129 835 69 q 839 226 835 175 q 851 333 843 278 q 872 442 860 388 q 900 550 883 497 q 763 417 839 476 q 608 317 688 358 q 449 253 528 275 q 301 231 369 231 m 688 638 q 801 675 751 649 q 886 737 851 701 q 938 813 921 772 q 956 892 956 853 q 913 988 956 954 q 769 1021 869 1021 q 626 998 700 1021 q 480 936 551 975 q 344 844 408 897 q 232 732 281 792 q 155 608 183 672 q 126 483 126 544 q 174 351 126 393 q 319 308 222 308 q 471 335 389 308 q 635 410 553 363 q 792 526 717 458 q 921 675 867 593 q 827 613 882 635 q 732 590 772 590 q 692 602 704 590 q 688 638 679 614 z "}," ":{"ha":454,"x_min":0,"x_max":0,"o":""},"!":{"ha":364,"x_min":56,"x_max":253,"o":"m 217 457 q 210 362 214 400 q 196 285 206 324 q 149 240 185 240 q 118 254 129 240 q 131 337 125 290 q 140 433 138 383 q 140 615 144 529 q 129 783 135 701 q 119 943 124 864 q 118 1104 114 1022 q 147 1244 121 1200 q 210 1286 172 1289 q 238 1274 226 1285 q 253 1243 250 1263 q 216 1189 231 1228 q 199 1093 201 1150 q 200 941 196 1015 q 209 790 204 867 q 217 631 214 713 q 217 457 221 549 m 140 81 q 188 65 171 81 q 206 22 206 49 q 178 -31 206 -10 q 118 -53 151 -53 q 72 -37 88 -53 q 56 6 56 -22 q 80 59 56 38 q 140 81 104 81 z "},"\"":{"ha":378,"x_min":56,"x_max":294,"o":"m 142 846 q 117 835 133 835 q 91 846 101 835 q 78 893 81 857 q 75 974 75 926 q 72 1057 75 1022 q 67 1103 71 1081 q 56 1149 64 1125 q 70 1169 60 1161 q 93 1178 81 1178 q 131 1152 118 1178 q 143 1060 143 1126 q 142 999 143 1031 q 139 940 140 968 q 138 887 138 911 q 142 846 139 863 m 275 838 q 251 829 267 829 q 226 841 236 829 q 217 885 217 853 q 219 988 217 936 q 222 1088 222 1039 q 213 1163 222 1128 q 251 1189 224 1189 q 294 1108 294 1189 q 291 1044 294 1079 q 283 974 288 1010 q 276 902 279 938 q 275 838 274 867 z "},"#":{"ha":826,"x_min":28,"x_max":771,"o":"m 282 772 q 310 787 294 783 q 338 785 325 790 q 360 768 351 781 q 369 733 369 756 q 352 620 369 685 q 310 485 335 556 q 397 506 353 494 q 483 528 440 517 q 527 667 507 599 q 560 794 547 735 q 579 901 574 853 q 578 981 585 949 q 606 997 590 993 q 635 997 621 1001 q 658 979 649 993 q 667 942 667 965 q 638 772 667 876 q 568 546 608 668 q 667 557 624 557 q 747 542 724 557 q 771 504 771 526 q 763 481 771 490 q 744 467 756 471 q 654 482 722 482 q 600 478 628 482 q 543 469 572 475 l 474 263 q 541 274 508 269 q 604 278 574 278 q 675 229 675 278 q 656 196 675 206 q 603 204 636 204 q 530 199 568 204 q 449 186 492 193 q 396 -17 414 74 q 392 -156 378 -108 q 356 -172 381 -172 q 319 -153 335 -172 q 304 -94 304 -135 q 321 17 304 -51 q 365 169 338 86 q 281 156 324 163 q 194 146 239 149 q 174 42 179 89 q 179 -37 168 -6 q 143 -56 167 -56 q 108 -37 122 -56 q 94 25 94 -19 q 115 144 94 75 q 50 162 72 147 q 28 196 28 176 q 46 228 28 218 q 136 211 81 214 q 169 304 151 256 q 204 403 186 353 q 184 401 193 401 q 165 401 175 401 q 94 415 117 401 q 71 447 71 428 q 90 478 71 468 q 125 469 103 472 q 171 467 147 467 q 226 471 197 467 q 273 635 256 557 q 282 772 290 714 m 460 453 q 372 431 415 442 q 285 414 328 421 q 249 313 267 363 q 215 214 231 263 q 303 226 260 218 q 389 244 346 235 l 460 453 z "},"$":{"ha":1032,"x_min":42,"x_max":990,"o":"m 617 583 q 681 588 650 582 q 736 603 713 593 q 774 627 760 614 q 788 656 788 640 q 742 701 788 683 q 607 719 696 719 q 568 719 588 719 q 531 717 549 718 q 506 454 514 585 q 642 450 572 453 q 773 440 711 447 q 884 417 835 432 q 961 375 933 401 q 984 340 978 358 q 990 299 990 322 q 952 201 990 249 q 847 113 914 153 q 691 45 781 74 q 499 7 601 17 q 507 -108 501 -60 q 519 -190 513 -157 q 535 -242 526 -224 q 554 -268 544 -261 q 540 -298 551 -287 q 513 -310 529 -308 q 475 -298 492 -310 q 447 -252 458 -286 q 429 -157 436 -218 q 421 1 422 -96 l 393 1 q 233 15 299 1 q 124 50 167 28 q 61 103 81 72 q 42 167 42 133 q 66 235 42 203 q 130 290 90 267 q 219 328 169 314 q 317 342 268 342 q 368 315 368 342 q 358 290 368 300 q 256 278 300 289 q 181 250 211 267 q 135 214 151 233 q 119 176 119 194 q 135 138 119 157 q 185 106 151 119 q 272 83 219 92 q 396 75 324 75 l 419 75 q 420 232 418 154 q 426 389 422 310 q 181 430 257 397 q 106 528 106 463 q 131 601 106 564 q 204 672 157 639 q 317 732 251 706 q 464 774 383 758 q 478 866 469 821 q 494 949 486 911 q 509 1015 501 986 q 521 1057 517 1043 q 574 1111 538 1111 q 606 1090 596 1111 q 589 1042 597 1074 q 572 969 581 1011 q 556 880 564 928 q 540 785 547 832 q 625 789 579 789 q 811 753 747 789 q 875 667 875 718 q 858 616 875 640 q 812 573 842 592 q 742 543 782 554 q 657 532 703 532 q 614 548 625 532 q 617 583 603 564 m 906 292 q 871 341 906 324 q 779 367 836 358 q 649 380 722 376 q 501 386 576 383 q 495 233 497 310 q 496 79 493 157 q 667 110 592 88 q 796 163 743 133 q 877 227 849 193 q 906 292 906 261 m 190 539 q 209 501 190 515 q 260 477 228 486 q 336 463 292 468 q 431 457 381 458 q 442 581 436 519 q 454 707 447 643 q 257 633 324 683 q 190 539 190 583 z "},"%":{"ha":1160,"x_min":56,"x_max":1104,"o":"m 903 513 q 1049 456 993 513 q 1104 294 1104 400 q 1083 157 1104 224 q 1024 40 1061 90 q 938 -42 988 -11 q 832 -74 888 -74 q 747 -56 786 -74 q 677 -3 707 -37 q 631 79 647 31 q 614 190 614 128 q 621 284 614 236 q 642 377 628 332 q 675 463 656 422 q 719 533 694 503 q 763 556 739 560 q 792 531 788 553 q 770 503 781 518 q 750 471 760 488 q 824 501 786 490 q 903 513 863 513 m 275 1015 q 170 874 207 958 q 133 694 133 790 q 167 564 133 606 q 256 522 201 522 q 328 547 296 522 q 381 608 360 571 q 415 692 403 646 q 426 782 426 738 q 414 861 426 828 q 343 913 369 879 q 317 978 317 946 q 346 1010 317 1010 q 411 984 381 1010 q 463 914 442 958 q 532 909 492 908 q 617 917 572 910 q 708 939 663 924 q 792 978 753 954 q 893 1087 854 1054 q 956 1119 932 1119 q 971 1113 965 1119 q 975 1093 976 1106 q 963 1063 974 1081 q 931 1022 953 1044 q 853 958 893 985 q 655 655 740 813 q 517 353 569 497 q 449 90 465 210 q 461 -99 433 -29 q 418 -124 446 -124 q 376 -94 392 -124 q 360 6 360 -65 q 383 170 360 71 q 453 388 407 269 q 569 637 500 507 q 729 893 638 767 q 610 860 671 871 q 483 849 549 850 q 488 815 486 832 q 490 778 490 797 q 470 649 490 710 q 415 542 450 588 q 335 469 381 496 q 239 443 289 443 q 106 506 157 443 q 56 682 56 569 q 66 782 56 731 q 96 881 76 833 q 142 969 115 929 q 200 1032 168 1008 q 228 1047 214 1043 q 252 1047 242 1050 q 269 1036 263 1044 q 275 1015 276 1028 m 685 217 q 727 56 685 111 q 840 1 769 1 q 916 24 881 1 q 978 84 951 46 q 1021 172 1006 122 q 1036 275 1036 221 q 995 400 1036 358 q 881 442 954 442 q 794 429 836 442 q 717 396 753 417 q 693 306 701 351 q 685 217 685 260 z "},"&":{"ha":1732,"x_min":42,"x_max":1690,"o":"m 1008 433 q 1028 467 1008 460 q 1064 456 1043 460 q 1117 451 1085 451 q 1242 462 1185 451 q 1354 483 1299 472 q 1398 586 1374 546 q 1443 626 1422 626 q 1459 615 1453 626 q 1465 574 1465 603 q 1463 539 1465 557 q 1456 501 1460 521 q 1505 507 1479 504 q 1558 510 1531 510 q 1660 491 1631 510 q 1690 449 1690 472 q 1681 421 1690 433 q 1660 406 1672 408 q 1613 423 1647 417 q 1535 429 1579 429 q 1479 427 1506 429 q 1428 422 1453 425 q 1396 357 1417 393 q 1392 299 1393 329 q 1390 240 1390 269 q 1397 106 1390 169 q 1415 -5 1404 43 q 1440 -85 1426 -53 q 1467 -125 1453 -117 q 1451 -158 1464 -144 q 1414 -172 1438 -172 q 1374 -154 1392 -172 q 1344 -96 1356 -136 q 1322 27 1332 -51 q 1313 225 1313 106 l 1313 232 q 1155 67 1246 147 q 955 -75 1064 -12 q 721 -176 846 -137 q 461 -214 596 -214 q 269 -193 349 -214 q 140 -136 190 -172 q 65 -49 89 -100 q 42 60 42 1 q 73 182 42 121 q 160 300 104 243 q 292 407 215 357 q 460 494 369 457 q 324 562 371 517 q 278 669 278 607 q 333 813 278 740 q 491 947 388 886 q 743 1045 594 1007 q 1079 1083 892 1083 q 1126 1082 1104 1083 q 1169 1078 1149 1081 q 1209 1084 1192 1088 q 1226 1068 1226 1081 q 1335 1015 1301 1049 q 1368 944 1368 981 q 1342 872 1368 904 q 1275 815 1317 839 q 1182 777 1233 790 q 1079 764 1131 764 q 994 784 1025 764 q 964 843 964 804 q 996 927 964 879 q 1081 1017 1028 975 l 1072 1017 q 768 985 900 1017 q 547 903 636 953 q 411 796 457 854 q 365 685 365 738 q 424 583 365 619 q 581 538 483 546 q 734 572 656 560 q 893 586 813 585 q 971 576 949 586 q 993 554 993 567 q 968 526 993 540 q 897 501 943 513 q 786 482 851 489 q 642 475 721 475 l 600 475 q 422 403 507 449 q 272 303 336 358 q 169 187 207 247 q 131 69 131 126 q 212 -79 131 -25 q 465 -133 293 -133 q 715 -95 592 -133 q 949 10 838 -57 q 1158 172 1061 78 q 1328 379 1254 267 l 1335 407 q 1230 389 1282 397 q 1118 381 1178 381 q 1081 383 1100 381 q 1045 390 1061 385 q 1019 406 1029 396 q 1008 433 1008 417 m 1278 928 q 1246 978 1278 957 q 1157 1010 1214 999 q 1071 924 1099 964 q 1043 860 1043 883 q 1093 826 1043 826 q 1163 835 1129 826 q 1222 858 1196 843 q 1263 890 1247 872 q 1278 928 1278 908 z "},"'":{"ha":224,"x_min":56,"x_max":140,"o":"m 128 844 q 103 835 118 835 q 76 847 88 835 q 65 896 65 860 q 67 975 65 929 q 68 1058 68 1021 q 65 1105 68 1083 q 56 1150 63 1126 q 72 1170 61 1163 q 96 1178 83 1178 q 140 1089 140 1178 q 138 1023 140 1058 q 131 954 135 988 q 126 892 128 921 q 128 844 125 863 z "},"(":{"ha":451,"x_min":139,"x_max":451,"o":"m 451 -167 q 438 -197 450 -186 q 408 -208 426 -208 q 331 -162 372 -208 q 188 104 238 -60 q 140 475 139 268 q 194 906 142 707 q 339 1246 247 1104 q 414 1307 379 1307 q 447 1279 443 1307 q 354 1136 397 1221 q 281 949 311 1051 q 233 731 250 846 q 215 494 215 615 q 281 73 215 238 q 451 -167 347 -92 z "},")":{"ha":450,"x_min":0,"x_max":311,"o":"m 0 1265 q 13 1296 1 1285 q 40 1307 24 1307 q 78 1296 57 1307 q 121 1261 100 1285 q 263 993 214 1157 q 311 622 311 829 q 299 420 311 522 q 263 219 288 318 q 200 27 238 119 q 113 -147 163 -65 q 38 -208 75 -208 q 4 -181 8 -208 q 97 -37 54 -122 q 171 150 140 47 q 219 368 201 253 q 236 604 236 483 q 221 822 236 719 q 176 1008 206 924 q 102 1158 146 1093 q 0 1265 58 1224 z "},"*":{"ha":633,"x_min":83,"x_max":550,"o":"m 526 921 q 550 903 550 921 q 503 848 550 881 q 369 783 457 815 q 428 681 393 717 q 494 638 463 644 q 488 599 499 614 q 454 585 476 585 q 382 624 421 585 q 318 744 343 664 q 285 660 303 699 q 251 592 268 621 q 217 546 233 563 q 186 529 200 529 q 167 556 167 529 q 192 640 167 588 q 274 763 217 692 q 207 760 240 758 q 146 769 174 763 q 101 785 118 775 q 83 807 83 794 q 99 826 83 818 q 163 833 115 833 q 231 828 193 833 q 301 817 269 824 q 293 879 296 846 q 290 949 290 913 q 307 1087 290 1036 q 343 1138 324 1138 q 368 1063 368 1138 q 363 971 368 1019 q 350 874 358 922 q 352 853 351 863 q 356 833 353 843 q 449 895 403 871 q 526 921 494 919 z "},"+":{"ha":715,"x_min":83,"x_max":632,"o":"m 404 561 q 403 483 404 521 q 399 410 401 446 q 464 415 432 413 q 528 418 496 418 q 608 405 585 418 q 632 368 632 392 q 610 333 632 340 q 524 349 579 349 q 459 346 492 349 q 394 340 426 343 q 392 296 393 318 q 392 253 392 274 q 411 126 392 151 q 397 106 407 115 q 372 97 388 97 q 348 103 358 97 q 331 123 338 108 q 320 163 324 138 q 317 228 317 188 q 317 280 317 254 q 319 332 318 306 q 248 326 283 329 q 175 324 213 324 q 104 338 125 324 q 83 371 83 351 q 103 404 83 397 q 141 396 115 399 q 190 393 167 393 q 256 396 222 393 q 325 401 290 399 q 330 473 328 438 q 332 547 332 508 q 330 592 332 571 q 322 628 328 613 q 338 642 328 636 q 358 649 347 649 q 392 629 381 649 q 404 561 404 610 z "},",":{"ha":233,"x_min":14,"x_max":150,"o":"m 18 8 q 32 49 18 33 q 71 65 46 65 q 126 32 101 65 q 150 -61 150 -1 q 129 -169 150 -114 q 72 -261 108 -224 q 35 -279 54 -281 q 14 -256 17 -278 q 60 -180 42 -228 q 78 -87 78 -132 q 62 -23 78 -47 q 18 8 46 1 z "},"-":{"ha":526,"x_min":83,"x_max":415,"o":"m 386 310 q 332 323 367 318 q 256 328 297 328 q 171 322 207 328 q 110 310 135 317 q 83 340 83 317 q 127 383 83 365 q 278 401 171 401 q 415 347 415 401 q 408 324 415 335 q 386 310 400 314 z "},".":{"ha":235,"x_min":14,"x_max":138,"o":"m 79 86 q 122 67 107 86 q 138 18 138 49 q 119 -35 138 -14 q 72 -56 100 -56 q 31 -37 49 -56 q 14 11 14 -19 q 33 65 14 43 q 79 86 51 86 z "},"/":{"ha":611,"x_min":17,"x_max":597,"o":"m 115 -147 q 99 -165 110 -158 q 75 -171 88 -171 q 33 -148 50 -171 q 17 -71 17 -125 q 40 58 17 -18 q 100 226 63 135 q 185 418 138 317 q 281 624 232 519 q 375 833 329 729 q 456 1031 421 936 q 510 1208 490 1126 q 524 1351 529 1290 q 557 1367 536 1367 q 597 1303 597 1367 q 560 1115 597 1226 q 468 876 524 1004 q 348 610 413 747 q 228 348 283 474 q 135 115 172 222 q 99 -61 99 8 q 102 -111 99 -90 q 115 -147 106 -132 z "},":":{"ha":290,"x_min":69,"x_max":193,"o":"m 136 86 q 174 70 154 86 q 193 18 193 54 q 174 -35 193 -14 q 128 -56 156 -56 q 87 -37 104 -56 q 69 11 69 -19 q 89 65 69 43 q 136 86 108 86 m 131 390 q 172 370 157 390 q 188 319 188 350 q 171 267 188 286 q 128 247 154 247 q 86 267 103 247 q 69 319 69 286 q 87 369 69 349 q 131 390 104 390 z "},";":{"ha":289,"x_min":69,"x_max":206,"o":"m 74 10 q 88 51 74 35 q 126 67 101 67 q 181 33 157 67 q 206 -60 206 0 q 185 -167 206 -112 q 128 -260 164 -222 q 91 -278 110 -279 q 69 -254 72 -276 q 115 -178 97 -226 q 133 -86 133 -131 q 117 -22 133 -46 q 74 10 101 3 m 131 390 q 172 370 157 390 q 188 319 188 350 q 171 267 188 286 q 128 247 154 247 q 86 267 103 247 q 69 319 69 286 q 87 369 69 349 q 131 390 104 390 z "},"<":{"ha":625,"x_min":83,"x_max":544,"o":"m 146 324 q 83 382 83 342 q 96 417 83 401 q 224 451 158 425 q 347 510 290 476 q 442 578 403 543 q 490 642 481 614 q 526 636 511 646 q 542 604 542 626 q 503 533 542 568 q 440 484 478 508 q 358 439 401 460 q 267 401 314 418 q 178 375 221 385 q 274 349 225 365 q 366 314 322 333 q 447 272 410 294 q 507 228 483 250 q 535 189 526 208 q 544 154 544 169 q 528 119 544 131 q 489 111 511 107 q 460 159 481 133 q 399 213 439 185 q 297 269 358 242 q 146 324 235 297 z "},"=":{"ha":657,"x_min":83,"x_max":574,"o":"m 482 515 q 555 502 536 515 q 574 469 574 489 q 554 438 574 446 q 519 444 542 443 q 474 446 497 446 q 333 434 403 446 q 186 422 264 422 q 103 439 124 422 q 83 475 83 456 q 90 499 83 489 q 108 513 97 508 q 146 501 121 506 q 214 496 171 496 q 345 506 282 496 q 482 515 408 515 m 214 304 q 281 308 249 304 q 347 315 314 311 q 413 323 379 319 q 485 326 447 326 q 543 314 525 326 q 561 282 561 301 q 540 250 561 260 q 483 258 519 258 q 411 254 446 258 q 341 245 376 250 q 269 236 306 240 q 193 232 233 232 q 121 247 142 232 q 100 283 100 261 q 122 318 100 308 q 156 308 135 311 q 214 304 178 304 z "},">":{"ha":629,"x_min":83,"x_max":546,"o":"m 126 219 q 188 267 151 244 q 266 311 224 290 q 356 348 308 332 q 450 375 403 364 q 360 401 407 385 q 270 440 314 418 q 188 485 226 461 q 125 535 150 510 q 97 569 106 553 q 88 600 88 586 q 102 634 88 622 q 139 642 117 646 q 188 581 147 617 q 284 512 228 546 q 406 451 340 478 q 533 417 472 425 q 546 382 546 401 q 483 324 546 340 q 344 276 404 303 q 241 219 283 249 q 174 160 199 190 q 140 104 149 131 q 101 103 119 93 q 83 136 83 113 q 92 173 83 153 q 126 219 100 193 z "},"?":{"ha":1146,"x_min":0,"x_max":1146,"o":"m 599 968 q 620 963 610 969 q 635 944 631 957 q 633 911 639 931 q 607 868 628 892 q 525 796 571 828 q 428 742 479 764 q 324 710 378 721 q 219 699 271 699 q 59 742 118 699 q 0 868 0 786 q 53 1033 0 953 q 201 1175 106 1114 q 427 1274 296 1236 q 715 1311 558 1311 q 903 1290 822 1311 q 1038 1234 983 1269 q 1119 1151 1092 1199 q 1146 1049 1146 1103 q 1110 928 1146 982 q 1018 828 1075 874 q 888 743 961 782 q 737 668 814 704 q 586 597 660 632 q 456 524 513 563 q 363 444 399 486 q 328 351 328 401 q 338 312 328 328 q 369 289 349 296 q 358 247 372 263 q 318 231 343 231 q 257 258 282 231 q 232 332 232 286 q 267 444 232 393 q 361 538 303 494 q 494 619 419 581 q 647 694 569 657 q 799 768 724 731 q 932 847 874 806 q 1026 937 990 889 q 1061 1043 1061 985 q 1040 1120 1061 1083 q 976 1185 1019 1157 q 865 1229 932 1213 q 707 1246 799 1246 q 429 1210 547 1246 q 234 1121 311 1175 q 119 1003 157 1067 q 81 886 81 940 q 122 798 81 826 q 235 769 163 769 q 343 784 288 769 q 448 825 399 799 q 538 888 497 851 q 599 968 578 925 m 349 79 q 396 65 379 79 q 413 26 413 50 q 385 -28 413 -6 q 322 -50 357 -50 q 257 4 257 -50 q 283 56 257 33 q 349 79 308 79 z "},"@":{"ha":1344,"x_min":-22,"x_max":1235,"o":"m 894 43 q 972 64 936 43 q 1035 124 1008 85 q 1078 217 1063 163 q 1093 340 1093 272 q 1056 549 1093 454 q 953 714 1019 644 q 794 822 886 783 q 594 861 703 861 q 374 811 474 861 q 204 674 275 761 q 94 467 133 586 q 56 211 56 349 q 97 -56 56 60 q 212 -251 139 -172 q 383 -369 285 -329 q 596 -410 482 -410 q 778 -381 689 -410 q 947 -299 868 -353 q 1091 -165 1026 -244 q 1200 17 1156 -86 q 1233 -12 1231 15 q 1203 -101 1235 -39 q 1091 -260 1158 -189 q 942 -383 1024 -332 q 769 -461 861 -433 q 582 -489 676 -489 q 344 -444 454 -489 q 152 -312 233 -399 q 24 -99 71 -225 q -22 192 -22 28 q 28 492 -22 354 q 163 728 78 629 q 363 882 249 826 q 604 938 476 938 q 824 894 722 938 q 1001 774 926 851 q 1119 590 1076 697 q 1161 354 1163 483 q 1140 204 1161 275 q 1081 80 1118 133 q 994 -4 1044 26 q 888 -35 944 -35 q 770 2 822 -35 q 689 101 718 39 q 651 38 672 68 q 604 -15 629 7 q 551 -51 579 -37 q 492 -64 522 -64 q 385 -3 428 -64 q 342 178 342 58 q 363 327 342 253 q 419 460 383 401 q 504 556 456 519 q 608 592 553 592 q 681 574 650 592 q 731 525 711 556 q 761 455 751 494 q 771 372 771 415 q 762 312 771 329 q 739 292 753 294 q 734 241 739 268 q 721 185 729 214 q 749 127 731 153 q 790 83 767 101 q 841 53 814 64 q 894 43 868 43 m 658 238 q 674 337 658 297 q 710 376 690 376 q 674 474 703 436 q 599 511 646 511 q 523 484 557 511 q 465 414 489 457 q 426 316 440 371 q 413 206 413 261 q 441 71 413 118 q 511 24 469 24 q 554 36 532 24 q 596 69 576 49 q 633 119 615 90 q 663 179 650 147 q 658 238 658 208 z "},"A":{"ha":1519,"x_min":-108,"x_max":1558,"o":"m 744 281 q 682 293 703 281 q 661 326 661 306 q 679 358 661 349 q 714 350 692 353 q 760 347 736 347 l 776 347 q 899 741 850 532 q 971 1160 949 950 q 1017 1444 951 1444 q 1053 1390 1043 1444 q 1050 1204 1064 1335 q 1089 801 1061 1010 q 1157 401 1117 592 q 1181 403 1168 403 q 1204 404 1193 404 q 1305 387 1276 404 q 1333 347 1333 369 q 1324 321 1333 332 q 1304 307 1315 310 q 1258 324 1292 318 q 1179 331 1224 331 l 1172 331 q 1208 199 1189 258 q 1247 98 1226 140 q 1288 32 1267 56 q 1329 8 1308 8 q 1364 22 1347 8 q 1402 77 1381 36 q 1451 192 1424 118 q 1519 389 1479 267 q 1546 338 1558 389 q 1489 140 1517 221 q 1433 10 1461 60 q 1377 -61 1406 -39 q 1318 -83 1349 -83 q 1258 -64 1288 -83 q 1201 3 1229 -44 q 1146 128 1172 50 q 1094 321 1119 206 q 1094 323 1094 322 q 1093 325 1093 324 q 958 305 1029 318 q 824 285 888 292 q 690 8 763 129 q 537 -196 618 -112 q 367 -322 456 -279 q 185 -365 278 -365 q 69 -340 122 -365 q -24 -267 15 -314 q -86 -156 -64 -221 q -108 -11 -108 -90 q -78 199 -108 92 q 3 405 -49 306 q 123 592 54 504 q 269 744 192 679 q 430 847 347 810 q 592 885 513 885 q 713 835 669 885 q 757 694 757 786 q 722 521 757 608 q 629 363 686 433 q 501 247 572 292 q 358 203 429 203 q 260 239 296 203 q 224 344 224 275 q 251 472 224 406 q 342 590 279 539 q 384 606 365 610 q 406 583 403 603 q 362 540 382 565 q 327 487 342 515 q 304 431 313 458 q 296 378 296 403 q 318 308 296 329 q 381 286 340 286 q 486 322 432 286 q 584 414 540 358 q 656 536 628 469 q 683 663 683 603 q 653 766 683 732 q 571 800 624 800 q 440 767 508 800 q 303 675 371 733 q 174 539 236 617 q 66 374 113 461 q -8 192 19 286 q -36 7 -36 97 q -18 -119 -36 -65 q 33 -207 0 -172 q 108 -259 65 -242 q 201 -276 151 -276 q 358 -235 282 -276 q 504 -119 435 -193 q 635 57 574 -46 q 749 281 696 160 l 744 281 l 744 281 m 1079 392 q 1031 676 1051 531 q 1001 965 1011 822 q 935 639 974 792 q 850 354 897 486 q 963 372 904 361 q 1079 392 1021 383 z "},"B":{"ha":1842,"x_min":-125,"x_max":1828,"o":"m 638 624 q 528 610 585 615 q 410 606 472 606 q 174 628 275 606 q 7 688 74 650 q -92 780 -60 726 q -125 896 -125 833 q -83 1026 -125 963 q 35 1147 -40 1090 q 215 1252 111 1204 q 444 1335 319 1300 q 710 1390 569 1371 q 1000 1410 851 1410 q 1376 1374 1219 1410 q 1633 1279 1533 1338 q 1781 1147 1733 1221 q 1828 997 1828 1072 q 1781 850 1828 924 q 1649 710 1733 776 q 1446 590 1564 644 q 1186 499 1328 535 q 1480 380 1374 458 q 1586 194 1586 301 q 1533 42 1586 115 q 1383 -86 1481 -31 q 1151 -175 1286 -142 q 850 -208 1015 -208 q 653 -189 743 -208 q 500 -136 564 -169 q 401 -58 436 -103 q 365 36 365 -14 q 384 110 365 74 q 439 177 403 146 q 528 232 475 208 q 649 269 581 256 q 649 358 649 314 q 646 447 649 403 q 561 467 588 454 q 535 494 535 481 q 560 519 535 508 q 642 535 585 529 l 638 624 m 429 671 q 633 689 543 671 q 615 858 626 779 q 590 994 604 936 q 454 950 503 979 q 394 899 406 921 q 365 907 378 897 q 351 939 351 917 q 409 1006 351 971 q 571 1058 467 1040 q 563 1076 567 1068 q 556 1092 560 1085 q 604 1132 567 1132 q 633 1117 619 1132 q 657 1068 646 1103 q 687 1070 672 1069 q 717 1071 701 1071 q 872 1056 808 1071 q 977 1018 936 1042 q 1037 965 1018 994 q 1056 904 1056 935 q 1033 828 1056 867 q 966 756 1010 790 q 859 692 922 721 q 717 642 796 663 q 721 591 719 617 q 724 540 722 565 l 764 540 q 883 538 826 540 q 994 529 940 535 q 1312 605 1174 554 q 1545 720 1450 656 q 1690 856 1640 785 q 1739 994 1739 928 q 1694 1118 1739 1057 q 1558 1228 1650 1179 q 1326 1308 1467 1278 q 994 1338 1186 1338 q 583 1298 772 1338 q 256 1196 394 1258 q 40 1056 118 1133 q -37 906 -37 979 q -8 815 -37 857 q 79 740 21 772 q 225 690 138 708 q 429 671 313 671 m 710 -49 q 672 -117 701 -107 q 758 -130 713 -125 q 857 -135 804 -135 q 1139 -108 1018 -135 q 1340 -37 1260 -81 q 1460 63 1419 7 q 1500 179 1500 119 q 1465 278 1500 231 q 1366 363 1429 325 q 1215 427 1303 400 q 1024 465 1128 454 q 879 449 953 454 q 729 443 806 443 l 726 443 q 728 373 728 407 q 729 306 729 339 l 729 282 q 813 286 768 286 q 1025 253 951 286 q 1099 181 1099 221 q 1083 145 1099 161 q 1031 132 1067 129 q 1006 169 1026 153 q 953 198 985 186 q 883 217 922 210 q 800 224 843 224 q 728 219 763 224 q 722 74 726 143 q 710 -49 718 6 m 674 1003 q 695 870 685 946 q 713 707 706 794 q 901 790 832 739 q 969 889 969 842 q 956 929 969 908 q 913 967 942 950 q 837 994 883 983 q 725 1006 790 1006 q 699 1005 711 1006 q 674 1003 686 1004 m 629 -107 q 642 35 638 -46 q 649 207 647 115 q 503 140 554 185 q 453 43 453 96 q 499 -44 453 -4 q 629 -107 544 -83 z "},"C":{"ha":1653,"x_min":76,"x_max":1697,"o":"m 761 -208 q 487 -171 613 -208 q 270 -60 361 -133 q 128 119 179 13 q 76 363 76 225 q 124 623 76 494 q 256 868 172 751 q 452 1084 339 985 q 696 1256 565 1183 q 969 1369 826 1328 q 1253 1410 1111 1410 q 1426 1390 1354 1410 q 1541 1333 1497 1369 q 1605 1245 1585 1296 q 1625 1132 1625 1194 q 1592 974 1625 1056 q 1504 814 1560 892 q 1374 665 1449 736 q 1217 542 1300 594 q 1047 458 1135 489 q 878 426 960 426 q 708 481 767 426 q 650 626 650 535 q 669 738 650 681 q 722 848 689 794 q 797 949 754 901 q 889 1031 840 996 q 988 1087 938 1067 q 1085 1107 1038 1107 q 1186 1065 1154 1107 q 1218 956 1218 1022 q 1198 840 1218 894 q 1146 745 1178 786 q 1074 681 1114 704 q 993 657 1033 657 q 907 701 935 657 q 879 817 879 744 q 885 877 879 846 q 901 938 890 908 q 841 876 869 910 q 792 806 813 843 q 758 730 771 768 q 746 656 746 692 q 785 547 746 581 q 904 514 825 514 q 1046 540 972 514 q 1190 611 1119 567 q 1323 715 1260 656 q 1434 842 1386 775 q 1510 981 1482 910 q 1538 1121 1538 1053 q 1522 1207 1538 1168 q 1472 1274 1506 1246 q 1386 1317 1439 1301 q 1260 1333 1333 1333 q 990 1294 1124 1333 q 734 1188 856 1256 q 508 1029 613 1121 q 328 831 404 938 q 208 610 251 725 q 165 379 165 494 q 206 176 165 268 q 324 17 246 83 q 515 -87 401 -50 q 775 -124 628 -124 q 1078 -85 935 -124 q 1338 22 1222 -47 q 1535 184 1454 90 q 1653 389 1617 278 q 1685 338 1697 389 q 1614 185 1663 257 q 1496 52 1565 113 q 1340 -57 1426 -8 q 1158 -139 1253 -106 q 961 -190 1063 -172 q 761 -208 860 -208 m 1061 1013 q 976 989 1021 1013 q 955 926 961 957 q 949 864 949 894 q 967 783 949 807 q 1011 758 986 758 q 1055 771 1033 758 q 1094 806 1076 783 q 1124 858 1113 828 q 1135 924 1135 889 q 1115 990 1135 968 q 1061 1013 1096 1013 z "},"D":{"ha":2121,"x_min":-139,"x_max":1996,"o":"m 694 -308 q 648 -223 693 -276 q 532 -111 603 -169 q 379 -62 450 -87 q 256 -11 308 -36 q 174 37 204 14 q 143 78 143 60 q 151 97 143 88 q 176 109 158 106 q 221 109 193 113 q 289 90 249 106 q 403 38 342 71 q 522 -36 464 4 q 621 -63 571 -51 q 721 -86 671 -75 q 724 -21 724 -54 q 724 49 724 13 q 718 217 722 135 q 707 379 714 300 q 659 376 683 376 q 610 376 635 376 q 287 412 426 376 q 53 506 147 447 q -90 642 -42 565 q -139 803 -139 719 q -105 951 -139 876 q -6 1092 -71 1025 q 153 1218 60 1160 q 364 1319 246 1276 q 623 1385 482 1361 q 924 1410 764 1410 q 1349 1347 1153 1410 q 1690 1173 1546 1285 q 1915 906 1833 1061 q 1996 565 1996 751 q 1928 244 1996 388 q 1741 1 1860 101 q 1460 -154 1622 -100 q 1111 -208 1299 -208 q 956 -199 1038 -208 q 789 -174 874 -189 l 781 -243 q 750 -308 774 -292 q 694 -308 726 -324 m 800 60 q 799 -23 800 17 q 794 -101 797 -62 q 958 -124 881 -117 q 1097 -132 1036 -132 q 1436 -80 1286 -132 q 1691 63 1586 -28 q 1851 278 1796 154 q 1907 546 1907 401 q 1833 867 1907 721 q 1628 1117 1760 1013 q 1313 1281 1496 1222 q 910 1340 1129 1340 q 513 1292 692 1340 q 208 1167 335 1243 q 13 1000 82 1092 q -56 821 -56 908 q -9 675 -56 743 q 123 555 38 607 q 328 473 208 503 q 594 443 449 443 q 648 443 622 443 q 699 446 674 443 q 671 633 688 546 q 635 788 654 721 q 538 727 574 760 q 493 667 503 694 q 456 678 471 668 q 442 711 442 688 q 485 783 442 742 q 611 856 528 824 q 581 922 596 899 q 599 957 583 944 q 633 969 614 969 q 665 958 651 971 q 690 913 679 944 l 700 883 q 813 905 751 897 q 944 913 874 913 q 1129 896 1050 913 q 1261 851 1208 879 q 1340 784 1314 822 q 1367 704 1367 746 q 1325 603 1367 654 q 1206 509 1283 553 q 1022 432 1129 465 q 783 385 914 399 q 794 221 790 303 q 800 60 799 139 m 718 818 q 751 651 736 744 q 776 453 765 557 q 987 492 894 465 q 1143 553 1079 519 q 1240 626 1207 588 q 1274 701 1274 665 q 1252 757 1274 731 q 1189 803 1231 783 q 1085 835 1147 824 q 940 847 1022 847 q 820 839 875 847 q 718 818 765 831 m 717 -158 l 661 -146 q 713 -197 692 -172 l 717 -158 z "},"E":{"ha":1756,"x_min":-125,"x_max":1800,"o":"m -37 774 q 7 631 -37 697 q 140 514 51 564 q 358 435 228 464 q 658 406 488 406 q 826 443 736 429 q 1021 458 917 457 q 1106 448 1082 458 q 1131 424 1131 438 q 1019 366 1131 389 q 682 343 907 343 l 650 343 q 538 290 588 321 q 452 223 488 258 q 397 150 417 188 q 378 78 378 113 q 407 -3 378 36 q 497 -70 436 -42 q 651 -115 557 -99 q 878 -129 746 -132 q 1181 -87 1038 -126 q 1441 22 1325 -47 q 1638 184 1557 90 q 1756 389 1719 278 q 1788 338 1800 389 q 1717 185 1767 257 q 1599 53 1668 113 q 1442 -56 1529 -7 q 1260 -137 1356 -104 q 1064 -190 1165 -171 q 864 -208 963 -208 q 607 -189 715 -210 q 428 -132 499 -168 q 323 -45 357 -96 q 289 65 289 6 q 348 217 289 143 q 518 349 407 292 q 242 397 363 361 q 41 486 122 432 q -83 612 -40 540 q -125 767 -125 683 q -46 990 -125 876 q 182 1196 33 1103 q 544 1349 331 1289 q 1029 1410 758 1408 q 1329 1385 1199 1411 q 1548 1313 1460 1358 q 1682 1207 1636 1268 q 1728 1076 1728 1146 q 1699 969 1728 1021 q 1621 872 1671 917 q 1501 789 1571 826 q 1350 724 1432 751 q 1177 683 1268 697 q 992 668 1086 668 q 808 684 888 668 q 676 728 729 700 q 596 792 622 756 q 569 869 569 828 q 599 952 569 910 q 683 1028 628 994 q 820 1085 739 1063 q 1006 1107 901 1107 q 1115 1099 1064 1107 q 1206 1078 1167 1092 q 1267 1048 1244 1065 q 1289 1013 1289 1031 q 1274 981 1289 993 q 1235 972 1260 969 q 1156 1017 1218 997 q 994 1038 1093 1038 q 839 1023 904 1038 q 732 985 774 1008 q 670 933 690 961 q 650 876 650 904 q 674 821 650 847 q 744 774 699 794 q 856 743 790 754 q 1004 732 921 732 q 1258 760 1140 732 q 1461 835 1375 788 q 1597 944 1547 882 q 1646 1075 1646 1007 q 1606 1171 1646 1124 q 1488 1256 1565 1218 q 1299 1317 1411 1293 q 1040 1340 1186 1340 q 589 1290 789 1340 q 250 1158 389 1239 q 37 976 111 1078 q -37 774 -37 875 z "},"F":{"ha":1614,"x_min":0,"x_max":1656,"o":"m 638 208 q 742 222 694 208 q 824 258 790 235 q 877 313 858 282 q 896 382 896 344 q 873 462 896 424 q 806 528 850 500 q 699 574 763 557 q 551 590 635 590 q 353 563 440 590 q 207 489 267 535 q 115 383 147 443 q 83 261 83 324 q 123 109 83 181 q 241 -17 163 38 q 436 -103 319 -71 q 707 -135 553 -135 q 1121 -28 988 -135 q 1254 279 1254 78 q 1243 446 1254 364 q 1218 608 1232 528 q 1105 588 1161 597 q 990 579 1049 579 q 927 593 949 579 q 906 629 906 607 q 925 663 906 656 q 960 654 938 657 q 1006 651 982 651 q 1106 659 1056 651 q 1206 678 1156 667 q 1179 838 1190 760 q 1168 990 1168 915 q 1192 1131 1168 1086 q 1253 1176 1215 1176 q 1282 1165 1269 1176 q 1297 1135 1294 1154 q 1263 1080 1276 1119 q 1250 983 1250 1040 q 1260 838 1250 910 q 1283 692 1269 767 q 1339 699 1311 696 q 1394 701 1367 701 q 1496 685 1467 701 q 1525 644 1525 668 q 1516 617 1525 629 q 1494 601 1507 604 q 1448 619 1482 613 q 1369 625 1414 625 q 1333 624 1350 625 q 1296 619 1315 622 q 1322 449 1311 536 q 1333 263 1333 361 q 1291 64 1333 151 q 1168 -84 1249 -24 q 971 -176 1088 -144 q 707 -208 854 -208 q 406 -171 538 -208 q 185 -70 275 -133 q 47 76 94 -7 q 0 250 0 158 q 39 400 0 326 q 151 531 78 474 q 327 624 224 589 q 561 660 431 660 q 733 640 657 660 q 863 583 810 619 q 945 496 917 546 q 974 388 974 446 q 948 290 974 335 q 875 211 922 244 q 763 158 828 178 q 619 139 699 139 q 520 147 571 139 q 429 172 469 156 q 363 208 389 188 q 338 254 338 229 q 354 289 338 275 q 403 299 371 303 q 426 264 404 281 q 482 235 449 247 q 556 215 515 222 q 638 208 597 208 m 1610 1350 q 1656 1307 1656 1350 q 1636 1256 1656 1282 q 1577 1211 1617 1231 q 1478 1179 1538 1192 q 1339 1167 1418 1167 q 1122 1185 1225 1167 q 921 1226 1019 1204 q 725 1267 822 1249 q 525 1286 628 1286 q 337 1263 413 1286 q 215 1203 261 1240 q 151 1122 169 1167 q 132 1033 132 1076 q 156 937 132 981 q 224 862 181 893 q 328 813 267 831 q 463 796 389 796 q 624 819 550 796 q 747 885 699 843 q 774 854 774 881 q 760 823 774 838 q 717 790 746 808 q 603 743 672 764 q 450 722 533 722 q 285 745 358 722 q 159 809 211 768 q 79 906 107 850 q 51 1026 51 961 q 78 1149 51 1089 q 162 1257 104 1210 q 310 1333 219 1304 q 531 1363 401 1363 q 740 1344 640 1363 q 935 1302 839 1325 q 1131 1260 1032 1279 q 1338 1242 1229 1242 q 1516 1272 1443 1242 q 1610 1350 1589 1303 z "},"G":{"ha":1976,"x_min":76,"x_max":1921,"o":"m 1194 825 q 1291 833 1242 822 q 1379 865 1340 844 q 1443 913 1418 885 q 1468 974 1468 940 q 1432 1023 1468 1003 q 1318 1043 1396 1043 q 1110 1013 1206 1043 q 947 938 1015 982 q 840 842 878 893 q 801 747 801 790 q 864 651 801 685 q 1057 617 926 617 q 1359 662 1218 617 q 1605 778 1500 707 q 1770 937 1710 850 q 1831 1107 1831 1024 q 1808 1197 1831 1156 q 1738 1269 1786 1239 q 1613 1316 1689 1299 q 1428 1333 1536 1333 q 1107 1287 1264 1333 q 810 1161 950 1240 q 551 976 669 1082 q 348 750 433 869 q 215 503 263 631 q 167 257 167 376 q 199 98 167 169 q 297 -24 231 26 q 467 -103 364 -75 q 711 -131 569 -131 q 971 -108 842 -131 q 1219 -45 1100 -86 q 1443 53 1339 -4 q 1628 182 1547 111 q 1635 234 1631 210 q 1646 281 1639 258 l 1644 281 q 1460 272 1554 281 q 1276 254 1367 264 q 1099 236 1185 244 q 939 228 1013 228 q 842 244 868 228 q 817 283 817 260 q 827 313 817 299 q 857 329 838 326 q 901 314 868 318 q 972 310 935 310 q 1123 317 1040 310 q 1297 332 1206 324 q 1486 347 1389 340 q 1681 356 1583 354 q 1735 393 1703 389 q 1758 383 1750 394 q 1769 354 1767 371 q 1885 334 1856 350 q 1914 288 1914 318 q 1888 247 1914 258 q 1837 266 1864 258 q 1761 276 1810 274 q 1697 163 1743 218 q 1708 -39 1690 40 q 1754 -143 1726 -118 q 1735 -178 1751 -167 q 1699 -190 1718 -190 q 1667 -178 1682 -190 q 1642 -135 1653 -165 q 1626 -55 1632 -104 q 1621 69 1621 -6 l 1621 86 q 1424 -39 1538 17 q 1183 -134 1310 -94 q 928 -194 1057 -174 q 689 -215 800 -215 q 415 -183 531 -215 q 225 -92 300 -151 q 113 51 150 -33 q 76 239 76 135 q 128 511 76 372 q 272 780 179 650 q 492 1024 364 910 q 771 1224 619 1139 q 1092 1360 922 1310 q 1438 1410 1261 1410 q 1666 1388 1574 1410 q 1815 1326 1758 1365 q 1897 1234 1872 1288 q 1921 1118 1921 1181 q 1885 973 1921 1044 q 1788 837 1850 901 q 1641 717 1725 772 q 1460 621 1557 661 q 1256 558 1363 581 q 1043 535 1149 535 q 796 588 878 535 q 714 724 714 642 q 765 862 714 792 q 903 989 817 932 q 1101 1081 989 1046 q 1336 1117 1214 1117 q 1503 1083 1444 1117 q 1563 989 1563 1049 q 1537 906 1563 944 q 1470 839 1511 868 q 1377 792 1429 810 q 1271 769 1325 774 q 1195 781 1211 764 q 1194 825 1179 797 z "},"H":{"ha":2135,"x_min":0,"x_max":2017,"o":"m 1894 456 q 1895 374 1894 415 q 1899 290 1896 333 q 1922 207 1911 250 q 1940 124 1932 164 q 1951 51 1947 85 q 1956 -3 1956 18 q 1947 -75 1956 -53 q 1922 -97 1939 -97 q 1892 -74 1907 -97 q 1865 -1 1878 -51 q 1842 127 1851 49 q 1828 317 1832 206 q 1802 373 1817 344 q 1768 429 1788 401 q 1644 414 1710 419 q 1511 408 1578 408 q 1318 425 1401 408 q 1319 401 1318 413 q 1319 379 1319 389 q 1277 126 1319 238 q 1152 -63 1235 14 q 948 -181 1069 -140 q 667 -222 826 -222 q 406 -192 528 -222 q 194 -105 285 -161 q 52 31 104 -49 q 0 208 0 111 q 43 370 0 292 q 166 509 86 449 q 360 606 246 569 q 615 643 474 643 q 788 624 711 643 q 921 570 865 604 q 1006 490 976 536 q 1036 390 1036 444 q 1001 277 1036 331 q 906 184 967 224 q 761 121 844 144 q 579 97 678 97 q 371 142 444 97 q 297 256 297 188 q 315 317 297 288 q 363 370 332 347 q 435 406 393 393 q 525 419 476 419 q 586 410 569 419 q 603 386 603 401 q 590 364 603 371 q 498 363 538 369 q 431 340 458 356 q 390 304 404 325 q 376 261 376 283 q 430 193 376 221 q 593 165 483 165 q 737 183 671 165 q 851 229 803 200 q 925 298 899 258 q 951 382 951 338 q 924 460 951 425 q 849 521 897 496 q 738 559 801 546 q 600 572 674 572 q 384 542 479 572 q 222 460 289 511 q 120 346 156 410 q 85 215 85 282 q 128 71 85 138 q 252 -44 172 4 q 442 -122 332 -93 q 686 -150 553 -150 q 923 -115 819 -150 q 1097 -12 1026 -79 q 1206 153 1168 56 q 1243 378 1243 251 q 1242 410 1243 393 q 1242 444 1242 426 q 1108 522 1154 474 q 1063 635 1063 571 q 1101 735 1063 693 q 1215 789 1139 778 q 1207 897 1210 846 q 1204 988 1204 947 q 1213 1152 1204 1079 q 1246 1278 1222 1225 q 1226 1276 1236 1276 q 1206 1276 1217 1276 q 1058 1291 1132 1276 q 906 1322 985 1306 q 745 1353 828 1339 q 572 1368 663 1368 q 451 1355 500 1368 q 373 1320 403 1342 q 331 1269 343 1299 q 318 1210 318 1240 q 385 1094 318 1142 q 575 1047 453 1047 q 694 1066 632 1047 q 792 1114 756 1085 q 812 1106 804 1114 q 819 1088 819 1099 q 788 1040 819 1063 q 685 995 749 1013 q 557 978 622 978 q 317 1041 401 978 q 233 1206 233 1104 q 254 1295 233 1253 q 317 1369 275 1338 q 424 1421 360 1401 q 574 1440 488 1440 q 749 1424 663 1440 q 917 1390 835 1408 q 1076 1355 999 1371 q 1224 1339 1153 1339 q 1286 1344 1260 1339 l 1300 1358 q 1393 1410 1351 1410 q 1419 1386 1419 1410 q 1413 1362 1419 1374 q 1397 1340 1407 1350 q 1314 1292 1365 1308 q 1285 1181 1293 1246 q 1278 1011 1278 1115 q 1281 911 1278 968 q 1290 792 1285 854 q 1422 764 1353 788 q 1559 701 1492 740 q 1688 611 1626 663 q 1796 497 1750 560 q 1810 499 1803 499 q 1824 503 1817 500 q 1831 765 1824 639 q 1848 996 1838 890 q 1872 1183 1858 1101 q 1900 1313 1885 1264 q 1936 1396 1918 1371 q 1981 1421 1954 1421 q 2006 1411 1996 1421 q 2017 1386 2015 1401 q 1973 1299 1994 1367 q 1934 1119 1951 1231 q 1906 856 1917 1007 q 1894 521 1894 704 q 1972 554 1947 538 q 1996 526 1996 551 q 1944 474 1996 496 q 1922 465 1935 469 q 1894 456 1910 460 m 1296 722 q 1306 604 1301 663 q 1314 493 1311 546 q 1525 472 1399 472 q 1724 485 1632 472 q 1631 573 1682 532 q 1525 645 1581 614 q 1411 697 1469 676 q 1296 722 1353 717 m 1132 638 q 1158 574 1132 604 q 1238 519 1185 543 q 1230 619 1235 568 q 1221 721 1225 671 q 1153 692 1174 714 q 1132 638 1132 671 z "},"I":{"ha":1486,"x_min":0,"x_max":1333,"o":"m 668 153 q 785 166 731 153 q 879 202 839 179 q 942 256 919 225 q 965 322 965 288 q 944 391 965 358 q 882 449 924 424 q 776 488 840 474 q 626 503 713 503 q 393 474 493 503 q 225 399 293 446 q 123 293 157 353 q 89 169 89 233 q 123 49 89 104 q 226 -48 157 -7 q 397 -112 294 -89 q 636 -136 499 -136 q 881 -108 769 -136 q 1075 -24 993 -79 q 1203 111 1157 31 q 1249 294 1249 192 q 1229 469 1249 378 q 1183 657 1210 561 q 1088 635 1139 643 q 983 628 1038 628 q 751 690 832 628 q 669 850 669 751 q 676 913 669 882 q 699 978 682 943 q 747 1051 717 1013 q 826 1139 778 1090 q 981 1276 896 1207 q 1136 1410 1065 1344 q 1193 1494 1163 1463 q 1249 1525 1224 1525 q 1272 1500 1272 1525 q 1259 1464 1272 1485 q 1211 1408 1246 1443 l 1189 1386 q 1160 1289 1168 1339 q 1153 1179 1153 1239 q 1181 970 1153 1081 q 1242 744 1208 860 q 1293 775 1274 760 q 1310 766 1304 774 q 1315 749 1315 758 q 1258 688 1315 721 q 1311 488 1289 586 q 1333 303 1333 390 q 1280 89 1333 183 q 1131 -72 1226 -6 q 905 -172 1036 -137 q 618 -208 774 -207 q 356 -182 471 -210 q 163 -106 242 -154 q 42 11 83 -57 q 0 158 0 79 q 44 317 0 242 q 172 449 89 392 q 372 540 254 507 q 638 574 490 574 q 816 555 739 574 q 946 503 893 536 q 1026 426 999 469 q 1053 332 1053 382 q 1024 238 1053 282 q 943 159 996 193 q 816 106 890 125 q 651 86 742 86 q 550 94 601 86 q 457 117 499 103 q 388 153 415 132 q 361 199 361 174 q 378 233 361 219 q 426 243 394 247 q 451 208 428 224 q 508 179 474 192 q 585 160 543 167 q 668 153 628 153 m 1008 696 q 1085 701 1044 696 q 1167 718 1126 707 q 1107 947 1135 835 q 1079 1161 1079 1058 q 1094 1297 1079 1232 q 976 1192 1032 1240 q 878 1101 919 1143 q 780 976 807 1031 q 753 868 753 921 q 817 740 753 785 q 1008 696 881 696 z "},"J":{"ha":1513,"x_min":-42,"x_max":1374,"o":"m 293 797 q 393 1016 293 917 q 668 1199 493 1115 q 784 1251 719 1224 q 913 1308 849 1279 q 1038 1364 978 1336 q 1139 1415 1097 1392 q 1199 1504 1164 1469 q 1225 1525 1211 1517 q 1253 1533 1239 1533 q 1276 1506 1276 1533 q 1264 1461 1276 1483 q 1229 1417 1251 1439 q 1193 1388 1217 1404 q 1165 1278 1174 1339 q 1156 1140 1156 1217 q 1172 964 1156 1056 q 1212 776 1188 872 q 1265 583 1236 681 q 1317 392 1293 486 q 1358 208 1342 297 q 1374 38 1374 118 q 1322 -215 1374 -104 q 1177 -403 1271 -326 q 953 -519 1083 -479 q 665 -560 824 -560 q 381 -525 511 -560 q 158 -427 251 -490 q 11 -276 64 -364 q -42 -83 -42 -189 q 9 108 -42 17 q 149 267 60 199 q 362 377 239 336 q 629 418 485 418 q 810 394 729 418 q 947 331 890 371 q 1033 238 1003 290 q 1064 126 1064 185 q 1031 10 1064 64 q 942 -85 999 -44 q 809 -148 886 -125 q 643 -171 732 -171 q 510 -158 569 -171 q 410 -120 451 -144 q 346 -63 368 -96 q 324 10 324 -31 q 342 76 324 43 q 396 136 361 110 q 481 179 431 163 q 594 196 532 196 q 679 161 679 196 q 667 138 679 146 q 550 134 600 143 q 467 107 500 125 q 419 65 435 89 q 403 14 403 40 q 421 -33 403 -11 q 472 -70 439 -54 q 551 -95 506 -86 q 650 -104 596 -104 q 779 -87 719 -104 q 883 -40 839 -69 q 951 31 926 -10 q 976 117 976 71 q 954 201 976 160 q 886 276 932 243 q 772 328 840 308 q 611 347 703 347 q 396 315 499 347 q 216 225 293 282 q 93 92 139 168 q 47 -74 47 15 q 94 -240 47 -164 q 226 -369 142 -315 q 426 -454 310 -424 q 681 -485 542 -485 q 932 -451 819 -485 q 1124 -351 1044 -417 q 1246 -190 1203 -286 q 1289 32 1289 -93 q 1274 206 1289 117 q 1235 387 1258 294 q 1185 573 1213 479 q 1135 761 1158 667 q 1097 949 1113 856 q 1082 1133 1082 1042 q 1110 1336 1082 1240 q 1009 1284 1064 1311 q 894 1228 954 1257 q 774 1172 835 1200 q 657 1115 714 1143 q 517 1031 571 1072 q 431 952 463 990 q 389 878 400 914 q 378 808 378 842 q 434 687 378 732 q 600 642 490 642 q 713 659 658 642 q 801 708 767 676 q 825 681 825 706 q 799 638 825 658 q 703 591 761 608 q 578 574 644 574 q 460 590 513 574 q 370 635 407 606 q 313 706 333 665 q 293 797 293 747 z "},"K":{"ha":1971,"x_min":0,"x_max":2364,"o":"m 1121 592 q 1039 602 1061 592 q 1017 625 1017 613 q 1047 651 1017 638 q 1158 672 1076 665 q 1134 862 1144 772 q 1124 1007 1124 951 q 1133 1155 1124 1086 q 1167 1278 1143 1224 q 1146 1276 1156 1276 q 1125 1276 1136 1276 q 977 1290 1051 1276 q 826 1322 903 1304 q 672 1353 750 1339 q 514 1367 594 1367 q 392 1350 443 1367 q 308 1306 340 1333 q 261 1246 276 1279 q 246 1181 246 1213 q 267 1101 246 1138 q 326 1037 288 1064 q 417 994 364 1010 q 538 978 471 978 q 656 996 594 978 q 754 1043 718 1014 q 782 1015 782 1043 q 750 968 782 990 q 648 923 711 940 q 519 906 585 906 q 368 927 435 906 q 255 985 301 949 q 184 1069 208 1021 q 160 1169 160 1117 q 183 1267 160 1218 q 251 1353 206 1315 q 363 1416 296 1392 q 518 1440 429 1440 q 678 1424 597 1440 q 839 1390 760 1408 q 995 1355 918 1371 q 1143 1339 1072 1339 q 1206 1344 1179 1339 l 1219 1358 q 1313 1410 1271 1410 q 1339 1386 1339 1410 q 1333 1362 1339 1374 q 1317 1340 1326 1350 q 1233 1292 1285 1308 q 1206 1181 1214 1244 q 1197 1031 1197 1117 q 1200 962 1197 1001 q 1208 876 1203 922 q 1220 778 1214 829 q 1233 675 1226 726 l 1261 675 q 1379 725 1324 693 q 1483 806 1435 757 q 1599 959 1551 872 q 1687 1133 1647 1046 q 1765 1299 1726 1221 q 1853 1426 1803 1376 q 1908 1466 1881 1454 q 1960 1478 1935 1478 q 1999 1465 1988 1478 q 2011 1439 2011 1451 q 1993 1404 2011 1415 q 1945 1399 1967 1408 q 1897 1364 1924 1390 q 1824 1253 1860 1326 q 1747 1097 1788 1181 q 1658 926 1707 1013 q 1543 775 1608 840 q 1376 656 1468 700 q 1588 515 1490 619 q 1767 214 1685 410 q 1892 -59 1832 58 q 2019 -243 1951 -176 q 2172 -318 2097 -318 q 2260 -292 2221 -318 q 2321 -211 2300 -265 q 2357 -231 2350 -210 q 2349 -285 2364 -253 q 2274 -371 2322 -337 q 2160 -403 2225 -404 q 2058 -379 2108 -401 q 1958 -308 2007 -357 q 1894 -228 1925 -275 q 1831 -119 1863 -181 q 1765 17 1799 -58 q 1693 183 1732 93 q 1598 372 1646 293 q 1497 503 1550 451 q 1387 582 1444 556 q 1264 611 1329 608 l 1243 607 q 1264 435 1254 515 q 1274 306 1274 354 q 1231 69 1274 171 q 1108 -100 1188 -32 q 918 -202 1029 -168 q 669 -236 807 -236 q 409 -201 531 -236 q 197 -106 288 -167 q 53 38 106 -46 q 0 218 0 121 q 37 373 0 299 q 146 504 74 447 q 325 595 218 561 q 574 629 432 629 q 750 608 669 629 q 890 551 831 588 q 981 467 949 515 q 1014 364 1014 419 q 987 257 1014 308 q 907 167 960 206 q 776 105 854 128 q 597 82 699 82 q 502 92 547 82 q 422 117 457 101 q 365 155 386 133 q 344 200 344 176 q 361 235 344 221 q 410 244 378 249 q 427 211 411 228 q 470 181 443 194 q 533 160 497 168 q 611 151 569 151 q 747 168 688 151 q 846 213 806 185 q 906 276 886 240 q 926 353 926 313 q 898 434 926 396 q 821 499 869 472 q 707 542 772 526 q 568 558 642 558 q 354 530 444 558 q 205 456 264 501 q 117 351 146 410 q 88 229 88 292 q 130 80 88 151 q 251 -46 172 8 q 440 -132 329 -100 q 689 -164 551 -164 q 1064 -42 932 -164 q 1196 304 1196 81 q 1188 435 1196 360 q 1169 594 1181 511 q 1144 592 1157 593 q 1121 592 1132 592 z "},"L":{"ha":1554,"x_min":-3,"x_max":1899,"o":"m 1872 -242 q 1892 -250 1885 -242 q 1899 -269 1899 -258 q 1876 -315 1899 -293 q 1793 -367 1844 -347 q 1678 -386 1742 -386 q 1535 -357 1607 -386 q 1389 -280 1463 -328 q 1240 -170 1315 -232 q 1089 -42 1165 -108 q 903 -198 1022 -144 q 621 -251 785 -251 q 383 -220 496 -251 q 184 -134 269 -189 q 48 -5 99 -79 q -3 156 -3 69 q 19 264 -3 213 q 86 355 42 315 q 199 418 131 394 q 358 442 267 442 q 550 412 457 442 q 731 333 643 382 q 901 222 818 285 q 1064 92 985 158 q 1077 153 1072 121 q 1082 219 1082 185 q 1068 392 1082 299 q 1038 582 1054 485 q 824 526 938 546 q 585 507 711 507 q 348 533 456 507 q 162 603 240 558 q 40 709 83 649 q -3 840 -3 769 q 35 969 -3 908 q 140 1076 72 1031 q 301 1149 207 1122 q 511 1176 396 1176 q 679 1159 606 1176 q 803 1110 753 1142 q 881 1038 854 1079 q 907 949 907 996 q 882 870 907 908 q 812 803 857 832 q 703 756 767 774 q 565 738 640 738 q 464 747 510 738 q 385 770 418 756 q 335 802 353 785 q 317 835 317 819 q 326 862 317 849 q 357 879 336 875 q 393 849 369 863 q 447 826 417 836 q 510 812 476 817 q 576 807 544 807 q 688 819 640 807 q 765 851 735 832 q 810 896 796 871 q 825 944 825 921 q 804 1006 825 976 q 742 1058 783 1035 q 642 1094 701 1081 q 506 1108 582 1108 q 326 1087 406 1108 q 192 1030 247 1065 q 108 948 138 994 q 79 853 79 901 q 117 744 79 794 q 224 655 156 693 q 390 594 293 617 q 603 572 486 572 q 825 592 719 572 q 1026 647 931 611 q 999 821 1011 736 q 988 979 988 906 q 1014 1168 988 1083 q 1087 1313 1040 1253 q 1197 1405 1133 1372 q 1335 1438 1261 1438 q 1436 1418 1393 1438 q 1508 1365 1479 1399 q 1551 1285 1536 1331 q 1565 1186 1565 1239 q 1515 975 1565 1076 q 1378 789 1464 874 q 1114 613 1269 681 q 1147 416 1132 513 q 1163 236 1163 319 q 1129 36 1163 124 q 1278 -91 1206 -29 q 1422 -201 1351 -153 q 1560 -277 1492 -249 q 1694 -306 1628 -306 q 1794 -290 1749 -306 q 1872 -242 1839 -274 m 358 371 q 233 354 286 371 q 147 309 181 338 q 97 243 113 281 q 81 163 81 206 q 118 43 81 104 q 227 -68 156 -18 q 401 -150 299 -118 q 635 -182 504 -182 q 877 -131 778 -182 q 1029 10 976 -81 q 869 143 950 78 q 703 259 788 208 q 533 340 619 310 q 358 371 447 371 m 1328 836 q 1442 994 1400 908 q 1485 1175 1485 1079 q 1443 1307 1485 1256 q 1319 1358 1401 1358 q 1218 1333 1265 1358 q 1137 1261 1171 1308 q 1083 1147 1103 1214 q 1063 994 1063 1079 q 1074 846 1063 926 q 1101 679 1086 765 q 1225 751 1168 711 q 1328 836 1282 790 z "},"M":{"ha":1925,"x_min":0,"x_max":2283,"o":"m 311 -125 q 487 -61 394 -125 q 668 150 579 3 q 835 536 757 297 q 967 1125 913 775 q 985 1427 969 1324 q 1035 1531 1001 1531 q 1061 1505 1051 1531 q 1071 1417 1071 1479 q 1031 1079 1071 1314 q 1052 824 1036 956 q 1092 572 1068 693 q 1144 349 1115 451 q 1203 182 1174 247 q 1235 122 1221 142 q 1268 101 1250 101 q 1338 185 1300 101 q 1381 294 1358 231 q 1424 432 1403 358 q 1467 585 1446 506 q 1506 745 1488 665 q 1538 901 1524 825 q 1563 1042 1553 976 q 1586 1310 1568 1228 q 1633 1392 1604 1392 q 1656 1374 1647 1392 q 1665 1306 1665 1356 q 1660 1219 1665 1274 q 1647 1107 1654 1164 q 1644 917 1643 1019 q 1652 712 1646 815 q 1670 509 1658 608 q 1699 328 1682 410 q 1788 1 1738 126 q 1889 -192 1838 -124 q 1990 -285 1940 -261 q 2082 -308 2040 -308 q 2178 -281 2133 -308 q 2242 -203 2222 -253 q 2277 -224 2271 -201 q 2268 -278 2283 -246 q 2190 -363 2242 -332 q 2072 -394 2138 -394 q 1947 -360 2011 -394 q 1823 -242 1883 -325 q 1710 -22 1763 -160 q 1622 325 1658 117 q 1592 556 1603 443 q 1578 785 1581 669 q 1544 622 1564 707 q 1501 456 1525 538 q 1452 297 1478 374 q 1400 158 1426 221 q 1326 28 1360 65 q 1257 -10 1293 -10 q 1131 133 1193 -10 q 1082 269 1106 189 q 1038 442 1058 349 q 1001 639 1017 536 q 976 844 985 742 q 848 361 925 561 q 681 34 771 161 q 492 -151 590 -93 q 300 -210 393 -210 q 175 -183 231 -210 q 81 -106 119 -156 q 21 17 42 -56 q 0 179 0 89 q 22 376 0 279 q 84 558 44 472 q 177 717 124 644 q 292 844 231 790 q 421 927 354 897 q 556 957 488 957 q 695 894 644 957 q 746 694 746 831 q 720 515 746 603 q 651 357 694 426 q 553 245 608 288 q 439 203 499 203 q 347 248 383 203 q 310 379 310 293 q 331 510 310 444 q 390 619 351 575 q 443 650 417 650 q 460 642 454 650 q 468 624 467 635 q 401 519 424 581 q 378 404 378 457 q 399 310 378 339 q 453 281 421 281 q 526 310 488 281 q 596 394 564 340 q 649 519 628 447 q 669 676 669 592 q 634 826 669 776 q 532 876 599 876 q 429 851 482 876 q 326 780 376 825 q 231 672 276 735 q 152 534 186 608 q 98 377 118 460 q 76 208 78 294 q 93 58 75 121 q 143 -47 111 -6 q 218 -106 175 -87 q 311 -125 261 -125 z "},"N":{"ha":2219,"x_min":0,"x_max":2858,"o":"m 2788 1501 q 2722 1576 2775 1546 q 2582 1607 2669 1607 q 2472 1596 2525 1607 q 2370 1565 2418 1585 q 2281 1517 2322 1544 q 2207 1458 2239 1490 q 2007 1121 2067 1318 q 1947 668 1947 924 q 1961 439 1947 556 q 1996 225 1975 322 q 2040 61 2017 128 q 2081 -19 2063 -6 q 2063 -66 2079 -50 q 2019 -82 2047 -82 q 1953 -46 1988 -82 q 1822 110 1899 11 q 1665 331 1746 208 q 1506 592 1583 454 q 1372 863 1428 729 q 1376 657 1376 763 q 1362 406 1376 517 q 1320 211 1347 296 q 1256 64 1293 126 q 1172 -44 1218 1 q 962 -170 1085 -132 q 683 -211 839 -208 q 421 -178 544 -212 q 203 -81 297 -143 q 55 65 110 -19 q 0 246 0 149 q 42 405 0 326 q 163 545 85 483 q 354 645 242 607 q 608 683 467 683 q 790 664 706 683 q 935 609 874 644 q 1031 525 996 574 q 1067 418 1067 476 q 1040 317 1067 364 q 960 235 1013 269 q 831 181 907 201 q 657 161 754 161 q 558 170 608 161 q 469 195 508 179 q 404 233 429 211 q 379 283 379 256 q 396 318 379 304 q 444 326 413 332 q 467 288 446 306 q 521 258 488 271 q 594 238 554 246 q 672 231 633 231 q 801 244 744 231 q 898 282 858 258 q 958 338 938 306 q 979 407 979 371 q 953 486 979 449 q 877 552 926 524 q 758 597 828 581 q 603 614 689 614 q 383 581 479 614 q 221 497 288 549 q 119 383 154 446 q 85 257 85 319 q 127 113 85 183 q 249 -14 169 42 q 444 -103 329 -69 q 703 -136 558 -136 q 940 -103 835 -136 q 1121 4 1044 -71 q 1199 107 1164 47 q 1257 250 1233 167 q 1294 444 1281 333 q 1307 700 1307 554 q 1303 872 1307 783 q 1292 1051 1299 960 q 1247 1224 1264 1146 q 1231 1354 1231 1301 q 1240 1408 1231 1389 q 1268 1428 1250 1428 q 1331 1313 1306 1428 q 1349 1203 1339 1269 q 1367 1069 1360 1136 q 1490 790 1417 932 q 1642 516 1563 647 q 1802 273 1722 385 q 1947 85 1882 161 q 1911 226 1926 151 q 1886 375 1896 300 q 1872 524 1876 450 q 1867 661 1867 597 q 1935 1140 1867 929 q 2156 1503 2003 1350 q 2353 1635 2240 1588 q 2604 1683 2467 1683 q 2714 1669 2667 1683 q 2794 1635 2761 1656 q 2842 1588 2826 1614 q 2858 1540 2858 1563 q 2837 1503 2858 1513 q 2788 1501 2815 1493 z "},"O":{"ha":1865,"x_min":-69,"x_max":1740,"o":"m 792 1410 q 1196 1347 1019 1410 q 1493 1181 1372 1285 q 1677 940 1614 1076 q 1740 656 1740 804 q 1704 426 1740 536 q 1603 219 1668 315 q 1449 45 1538 124 q 1255 -90 1360 -33 q 1032 -177 1150 -146 q 793 -208 914 -208 q 547 -172 658 -208 q 351 -67 435 -135 q 217 94 268 0 q 151 304 165 189 q -14 455 42 363 q -69 671 -69 547 q -43 853 -69 763 q 34 1026 -17 944 q 158 1178 85 1108 q 328 1300 232 1249 q 540 1381 424 1351 q 792 1410 657 1410 m 297 911 q 335 934 315 933 q 365 911 356 935 q 314 827 339 882 q 269 705 289 772 q 236 565 249 638 q 224 428 224 492 q 224 393 224 410 q 226 360 224 376 q 574 296 365 296 q 822 325 706 296 q 1024 399 938 354 q 1161 499 1111 444 q 1211 601 1211 553 q 1159 692 1211 654 q 1019 729 1107 731 q 1026 763 1013 747 q 1079 779 1039 779 q 1233 732 1175 779 q 1292 610 1292 685 q 1233 468 1292 538 q 1072 344 1174 399 q 838 257 971 290 q 556 224 704 224 q 386 235 464 224 q 243 267 308 246 q 313 106 265 178 q 431 -15 361 35 q 594 -92 501 -65 q 797 -119 686 -119 q 1026 -92 917 -119 q 1231 -14 1136 -64 q 1403 106 1325 36 q 1536 261 1481 176 q 1622 443 1592 346 q 1651 644 1651 540 q 1588 915 1651 789 q 1410 1136 1525 1042 q 1136 1285 1296 1231 q 783 1339 976 1339 q 460 1284 603 1339 q 217 1139 317 1229 q 65 932 118 1049 q 13 692 13 815 q 45 528 13 600 q 146 408 78 456 q 160 552 147 479 q 192 692 172 625 q 239 817 213 760 q 297 911 265 874 z "},"P":{"ha":1699,"x_min":-139,"x_max":1632,"o":"m 557 -121 q 567 -56 563 -99 q 576 42 572 -14 q 581 162 579 97 q 583 294 583 226 q 583 341 583 318 q 582 388 582 364 q 488 423 529 403 q 419 471 447 443 q 389 513 400 490 q 378 556 378 536 q 396 595 378 583 q 438 600 414 607 q 476 528 442 564 q 578 468 511 493 q 544 710 568 607 q 486 872 521 813 q 528 911 493 911 q 565 893 550 911 q 596 828 579 875 q 656 446 643 692 q 736 435 693 439 q 828 431 779 431 q 1126 469 993 431 q 1353 575 1260 508 q 1497 731 1447 642 q 1547 918 1547 819 q 1499 1075 1547 999 q 1356 1210 1450 1151 q 1123 1305 1261 1269 q 806 1340 985 1340 q 476 1306 632 1340 q 203 1216 321 1272 q 17 1087 86 1160 q -51 936 -51 1014 q -31 869 -51 899 q 24 817 -11 839 q 107 783 60 794 q 208 771 154 771 q 297 782 261 771 q 317 758 317 775 q 277 719 317 733 q 179 706 238 706 q 58 721 115 706 q -44 765 0 736 q -113 834 -87 793 q -139 925 -139 875 q -65 1105 -139 1018 q 140 1260 10 1192 q 444 1369 269 1328 q 821 1410 619 1410 q 1179 1367 1026 1410 q 1433 1255 1332 1324 q 1583 1100 1533 1186 q 1632 926 1632 1014 q 1572 703 1632 807 q 1405 524 1513 600 q 1149 405 1297 449 q 822 361 1000 361 q 737 364 778 361 q 658 372 696 367 q 660 351 660 361 q 660 329 660 340 q 658 224 660 279 q 654 117 657 169 q 647 16 651 64 q 639 -67 643 -32 q 621 -122 633 -106 q 589 -137 608 -137 q 572 -133 581 -137 q 557 -121 563 -129 z "},"Q":{"ha":1711,"x_min":-69,"x_max":1943,"o":"m 1614 -418 q 1796 -376 1729 -418 q 1890 -264 1863 -335 q 1929 -268 1915 -257 q 1943 -299 1943 -279 q 1925 -360 1943 -328 q 1884 -412 1910 -387 q 1820 -458 1858 -437 q 1732 -490 1782 -478 q 1619 -501 1682 -501 q 1421 -469 1513 -501 q 1247 -384 1329 -436 q 1088 -269 1164 -332 q 940 -143 1013 -206 q 837 -166 889 -158 q 732 -174 785 -174 q 493 -117 601 -174 q 307 35 385 -61 q 200 -56 244 -1 q 135 -169 156 -111 q 115 -174 126 -174 q 85 -147 92 -174 q 103 -76 79 -121 q 170 17 129 -28 q 264 96 211 63 q 188 281 213 182 q 85 338 132 300 q 3 426 38 375 q -50 543 -31 478 q -69 685 -69 608 q -41 866 -69 776 q 41 1036 -12 956 q 171 1185 94 1117 q 344 1303 247 1254 q 555 1381 440 1353 q 799 1410 669 1410 q 1125 1352 981 1410 q 1371 1197 1269 1294 q 1526 974 1472 1100 q 1579 708 1579 847 q 1536 437 1579 565 q 1418 203 1493 308 q 1243 17 1343 97 q 1029 -111 1143 -64 q 1164 -223 1096 -168 q 1304 -321 1232 -278 q 1453 -391 1376 -364 q 1614 -418 1529 -418 m 165 465 q 176 611 165 542 q 205 740 186 681 q 249 844 224 799 q 303 918 274 890 q 350 943 328 943 q 379 913 376 943 q 323 840 349 885 q 279 741 297 796 q 251 624 261 686 q 242 497 242 561 q 256 347 242 415 q 336 339 294 339 q 376 342 356 339 q 414 349 397 344 q 431 317 431 340 q 399 276 431 293 q 311 260 367 260 q 295 260 303 260 q 279 261 288 260 q 342 135 306 189 q 501 163 417 163 q 625 145 565 163 q 742 98 685 128 q 853 28 799 68 q 961 -54 907 -11 q 1172 56 1075 -17 q 1342 226 1269 129 q 1455 440 1414 324 q 1496 685 1496 557 q 1446 934 1496 815 q 1303 1142 1396 1053 q 1079 1285 1211 1232 q 783 1338 947 1338 q 474 1284 615 1338 q 229 1142 332 1231 q 69 941 126 1054 q 11 707 11 828 q 53 510 11 593 q 169 383 96 428 q 165 465 165 422 m 740 -90 q 864 -79 800 -90 q 775 -14 819 -44 q 684 39 731 17 q 589 74 638 61 q 489 86 540 86 q 437 82 461 86 q 389 71 413 78 q 547 -48 457 -6 q 740 -90 636 -90 z "},"R":{"ha":2144,"x_min":0,"x_max":2183,"o":"m 476 739 q 345 754 406 739 q 240 799 285 769 q 170 868 196 828 q 144 958 144 908 q 213 1120 144 1039 q 410 1267 282 1201 q 723 1373 539 1332 q 1138 1414 907 1414 q 1503 1380 1339 1414 q 1782 1285 1667 1346 q 1960 1142 1897 1225 q 2024 963 2024 1060 q 1971 790 2024 874 q 1826 633 1918 706 q 1613 503 1735 561 q 1353 411 1490 446 q 1444 308 1401 363 q 1525 202 1486 254 q 1600 103 1564 150 q 1673 22 1636 57 q 1749 -35 1710 -14 q 1831 -56 1788 -56 q 1906 -38 1869 -56 q 1981 28 1943 -21 q 2058 163 2018 76 q 2144 389 2099 250 q 2171 338 2183 389 q 2101 115 2138 206 q 2022 -33 2065 24 q 1930 -115 1979 -90 q 1821 -140 1881 -140 q 1718 -115 1765 -140 q 1626 -48 1671 -90 q 1541 49 1582 -6 q 1457 163 1500 104 q 1368 282 1414 222 q 1271 393 1322 342 q 1149 375 1210 382 q 1026 367 1089 368 q 878 -70 1018 75 q 472 -215 739 -215 q 290 -191 376 -215 q 140 -125 204 -167 q 38 -26 75 -83 q 0 99 0 32 q 30 216 0 160 q 117 316 60 272 q 259 386 175 360 q 451 413 343 413 q 606 395 540 413 q 717 349 672 378 q 783 284 761 321 q 806 210 806 247 q 785 135 806 171 q 726 73 764 100 q 635 30 688 46 q 519 14 582 14 q 396 32 438 14 q 354 78 354 50 q 369 108 354 97 q 444 87 404 93 q 519 81 483 81 q 605 91 567 81 q 670 118 643 101 q 711 157 697 135 q 725 203 725 179 q 706 256 725 231 q 651 301 688 282 q 563 333 615 321 q 440 344 510 344 q 283 324 350 344 q 170 272 215 304 q 102 197 125 239 q 79 113 79 156 q 110 14 79 61 q 194 -69 140 -33 q 323 -126 249 -104 q 485 -147 397 -147 q 696 -112 607 -147 q 842 -12 785 -78 q 927 150 899 54 q 957 367 956 246 q 744 410 810 372 q 678 496 678 447 q 692 540 678 518 q 736 578 707 561 q 810 604 765 594 q 914 614 854 614 q 923 613 918 614 q 931 613 928 613 l 938 613 q 890 814 919 725 q 826 951 861 903 q 871 990 833 990 q 939 908 907 990 q 981 772 961 850 q 1013 606 1000 694 q 1169 553 1099 590 q 1299 464 1239 515 q 1548 544 1432 493 q 1751 662 1664 596 q 1887 803 1838 728 q 1936 957 1936 879 q 1885 1101 1936 1031 q 1733 1225 1835 1171 q 1476 1312 1631 1279 q 1113 1344 1321 1344 q 749 1310 913 1344 q 471 1223 586 1276 q 292 1103 356 1169 q 229 969 229 1036 q 250 899 229 929 q 308 847 271 868 q 393 816 344 826 q 496 806 442 806 q 610 817 558 806 q 692 847 661 829 q 717 825 717 847 q 676 779 717 799 q 587 749 639 760 q 476 739 535 739 m 956 431 q 952 493 954 463 q 946 554 950 524 l 933 554 q 923 555 928 554 q 914 556 918 556 q 795 538 829 556 q 761 501 761 521 q 806 456 761 478 q 956 431 851 435 m 1021 543 q 1025 487 1024 515 q 1028 431 1026 458 q 1120 435 1074 432 q 1211 446 1167 439 q 1121 504 1168 479 q 1021 543 1074 529 z "},"S":{"ha":1785,"x_min":-35,"x_max":1785,"o":"m 747 51 q 873 64 818 51 q 966 97 928 76 q 1024 144 1004 118 q 1044 197 1044 171 q 1024 248 1044 224 q 962 291 1003 272 q 863 321 921 310 q 729 332 804 332 q 531 312 614 332 q 393 259 447 292 q 313 188 339 226 q 288 111 288 149 q 322 19 288 64 q 422 -62 357 -26 q 583 -119 488 -97 q 800 -140 679 -140 q 1102 -112 968 -140 q 1329 -35 1236 -83 q 1472 78 1422 14 q 1522 215 1522 143 q 1495 306 1522 267 q 1394 375 1468 346 q 1192 425 1321 404 q 863 460 1064 446 q 647 476 756 468 q 440 498 539 483 q 253 536 340 513 q 103 597 167 560 q 2 690 39 635 q -35 822 -35 744 q 43 1027 -35 922 q 265 1217 121 1132 q 613 1356 408 1301 q 1072 1410 818 1410 q 1388 1385 1254 1410 q 1610 1317 1522 1360 q 1742 1214 1699 1274 q 1785 1086 1785 1154 q 1734 951 1785 1017 q 1594 835 1683 886 q 1382 753 1504 785 q 1117 722 1260 722 q 844 767 939 722 q 749 885 749 811 q 772 956 749 921 q 840 1018 794 990 q 951 1063 885 1046 q 1107 1079 1018 1079 q 1232 1065 1194 1079 q 1269 1028 1269 1050 q 1266 1014 1269 1021 q 1257 1004 1263 1007 q 1194 1015 1231 1011 q 1119 1018 1158 1018 q 997 1008 1050 1018 q 908 980 944 997 q 853 940 872 963 q 835 896 835 918 q 910 823 835 854 q 1131 792 986 792 q 1350 816 1247 792 q 1530 880 1453 840 q 1652 972 1607 919 q 1697 1078 1697 1024 q 1657 1177 1697 1129 q 1536 1260 1617 1225 q 1335 1317 1456 1296 q 1054 1339 1214 1339 q 765 1317 899 1339 q 519 1256 631 1294 q 322 1168 408 1218 q 176 1063 236 1118 q 86 951 117 1008 q 56 843 56 894 q 88 733 56 779 q 176 655 119 688 q 309 601 232 622 q 475 567 386 581 q 662 544 564 553 q 858 529 760 536 q 1180 497 1056 514 q 1380 458 1304 479 q 1494 415 1456 438 q 1557 367 1532 392 q 1598 301 1585 339 q 1611 222 1611 264 q 1558 61 1611 139 q 1401 -77 1504 -17 q 1149 -174 1299 -137 q 807 -210 999 -210 q 565 -185 675 -210 q 376 -119 456 -161 q 251 -20 296 -76 q 207 100 207 36 q 242 209 207 156 q 347 305 278 263 q 515 373 415 347 q 743 399 614 399 q 893 386 822 399 q 1016 349 964 374 q 1099 290 1068 325 q 1129 211 1129 256 q 1103 131 1129 171 q 1026 60 1076 92 q 904 8 976 28 q 740 -12 832 -12 q 619 -2 671 -12 q 534 25 568 8 q 483 63 500 42 q 467 104 467 83 q 483 139 467 125 q 532 147 500 153 q 553 109 536 126 q 600 78 571 92 q 667 58 629 65 q 747 51 704 51 z "},"T":{"ha":1588,"x_min":-56,"x_max":1685,"o":"m 789 940 q 760 846 789 889 q 678 772 731 803 q 552 723 625 740 q 393 706 479 706 q 210 729 293 706 q 69 793 128 753 q -23 889 10 833 q -56 1008 -56 944 q -14 1150 -56 1085 q 101 1262 28 1215 q 276 1335 175 1308 q 497 1361 378 1361 q 715 1342 610 1361 q 924 1301 819 1324 q 1137 1259 1028 1278 q 1367 1240 1246 1240 q 1545 1271 1472 1240 q 1639 1349 1618 1301 q 1685 1306 1685 1349 q 1665 1255 1685 1281 q 1608 1210 1646 1229 q 1511 1178 1569 1190 q 1374 1165 1453 1165 q 1144 1184 1256 1165 q 925 1225 1033 1203 q 709 1266 817 1247 q 490 1285 601 1285 q 307 1265 392 1285 q 159 1210 222 1246 q 60 1125 96 1175 q 24 1013 24 1075 q 49 919 24 963 q 123 844 75 876 q 239 792 171 811 q 390 774 307 774 q 531 787 469 774 q 633 822 592 800 q 695 870 674 843 q 717 925 717 897 q 690 983 717 958 q 600 1008 664 1007 q 606 1053 592 1036 q 651 1071 619 1071 q 749 1033 710 1071 q 789 940 789 996 m 939 368 q 922 431 939 401 q 872 481 906 460 q 785 516 838 503 q 664 529 733 529 q 444 503 543 529 q 273 431 344 476 q 163 324 201 385 q 124 196 124 264 q 161 59 124 122 q 273 -50 199 -4 q 460 -123 347 -96 q 722 -150 572 -150 q 972 -120 867 -150 q 1147 -35 1078 -90 q 1250 100 1217 21 q 1283 278 1283 179 q 1270 466 1283 374 q 1240 647 1257 558 q 1210 822 1224 736 q 1197 989 1197 907 q 1221 1130 1197 1085 q 1282 1175 1244 1175 q 1311 1164 1299 1175 q 1326 1133 1324 1153 q 1292 1078 1306 1118 q 1279 982 1279 1039 q 1292 814 1279 897 q 1321 642 1306 731 q 1349 460 1336 554 q 1363 261 1363 367 q 1319 60 1363 150 q 1192 -92 1275 -29 q 988 -190 1108 -156 q 714 -224 867 -224 q 426 -192 551 -224 q 215 -105 301 -160 q 85 24 129 -50 q 40 181 40 97 q 84 335 40 260 q 210 469 128 410 q 409 563 292 528 q 674 599 526 599 q 833 581 767 599 q 940 532 899 563 q 999 463 981 501 q 1018 385 1018 425 q 988 281 1018 329 q 904 195 958 232 q 776 138 850 158 q 615 117 703 117 q 525 124 569 117 q 445 147 481 132 q 388 181 410 161 q 367 226 367 201 q 384 261 367 249 q 425 271 401 274 q 444 239 426 254 q 490 213 463 224 q 554 195 518 201 q 629 189 590 189 q 752 203 696 189 q 850 242 808 218 q 915 299 892 267 q 939 368 939 332 z "},"U":{"ha":1788,"x_min":-111,"x_max":1826,"o":"m 1788 389 q 1814 338 1826 389 q 1749 131 1783 217 q 1679 -8 1715 46 q 1606 -87 1643 -62 q 1531 -111 1568 -111 q 1452 -83 1489 -111 q 1388 3 1415 -56 q 1342 153 1360 61 q 1322 375 1325 246 q 1194 113 1264 225 q 1046 -74 1124 1 q 885 -185 968 -149 q 718 -222 801 -222 q 599 -201 653 -222 q 505 -139 544 -179 q 444 -40 465 -99 q 422 92 422 18 q 445 252 422 172 q 503 412 468 332 q 578 572 538 492 q 654 736 619 653 q 712 906 689 819 q 735 1086 735 993 q 680 1265 735 1199 q 524 1331 625 1331 q 387 1303 456 1331 q 256 1226 318 1275 q 140 1111 193 1176 q 47 970 86 1046 q -15 813 7 894 q -37 650 -37 731 q 5 483 -37 532 q 115 433 47 433 q 233 471 175 433 q 336 569 290 508 q 410 710 382 631 q 439 871 439 789 q 415 960 439 929 q 351 992 392 992 q 261 957 300 992 q 206 876 222 922 q 171 892 182 874 q 176 943 160 910 q 212 994 190 971 q 259 1035 233 1018 q 313 1061 285 1051 q 368 1071 340 1071 q 472 1020 438 1071 q 507 888 507 969 q 474 695 507 792 q 385 522 440 599 q 257 396 329 444 q 108 347 185 347 q -49 417 13 347 q -111 631 -111 486 q -85 818 -111 724 q -14 1000 -60 913 q 94 1163 32 1088 q 230 1295 157 1239 q 383 1383 303 1351 q 546 1415 464 1415 q 660 1393 610 1415 q 747 1331 711 1371 q 801 1233 782 1290 q 819 1107 819 1176 q 797 933 819 1018 q 741 763 775 847 q 668 598 707 679 q 595 435 629 517 q 539 274 561 354 q 517 114 517 194 q 533 8 517 53 q 579 -67 550 -37 q 648 -112 608 -97 q 733 -126 688 -126 q 888 -87 810 -126 q 1042 35 967 -47 q 1190 244 1118 117 q 1324 547 1261 372 q 1351 842 1331 713 q 1396 1042 1372 972 q 1442 1103 1417 1103 q 1460 1088 1453 1103 q 1468 1033 1468 1072 q 1463 946 1468 996 q 1447 837 1457 896 q 1424 713 1438 778 q 1394 581 1411 647 q 1392 526 1392 553 q 1392 471 1392 499 q 1405 244 1392 338 q 1439 92 1418 150 q 1486 7 1460 33 q 1539 -19 1513 -19 q 1590 -4 1564 -19 q 1645 55 1615 11 q 1710 179 1675 99 q 1788 389 1746 260 z "},"V":{"ha":1711,"x_min":-139,"x_max":2100,"o":"m 1236 -218 q 1209 -235 1226 -229 q 1178 -242 1192 -242 q 1135 -222 1153 -242 q 1114 -140 1118 -203 q 988 757 1075 407 q 768 1240 901 1107 q 561 1325 683 1325 q 409 1293 485 1325 q 265 1206 333 1261 q 137 1078 196 1151 q 34 924 78 1006 q -34 756 -10 842 q -58 590 -58 671 q -10 413 -58 472 q 121 353 39 353 q 271 401 193 353 q 413 527 349 449 q 517 704 476 606 q 558 904 558 803 q 532 1005 558 969 q 456 1040 506 1040 q 340 998 396 1040 q 249 886 285 956 q 216 902 225 883 q 224 951 207 921 q 271 1017 243 986 q 331 1070 299 1047 q 401 1106 364 1093 q 476 1119 439 1119 q 594 1066 554 1119 q 635 925 635 1013 q 611 764 635 844 q 548 611 588 683 q 455 476 508 539 q 342 368 401 414 q 219 297 282 322 q 97 271 157 271 q 3 290 47 271 q -72 345 -40 308 q -121 436 -103 382 q -139 561 -139 490 q -111 753 -139 654 q -34 946 -83 851 q 83 1124 15 1040 q 233 1272 151 1208 q 405 1372 314 1335 q 592 1410 496 1410 q 719 1388 661 1410 q 826 1315 778 1365 q 951 1127 896 1246 q 1049 849 1007 1008 q 1121 496 1092 690 q 1167 81 1150 301 q 1206 309 1179 189 q 1271 553 1233 429 q 1356 798 1308 676 q 1458 1029 1403 919 q 1576 1232 1514 1139 q 1704 1392 1638 1325 q 1797 1472 1753 1440 q 1879 1524 1840 1504 q 1953 1551 1918 1543 q 2019 1558 1988 1558 q 2080 1543 2060 1558 q 2100 1501 2100 1528 q 2094 1476 2100 1488 q 2075 1457 2088 1464 q 2053 1468 2065 1464 q 2017 1472 2040 1472 q 1890 1438 1958 1472 q 1744 1324 1822 1403 q 1601 1139 1669 1249 q 1474 901 1533 1029 q 1367 633 1415 772 q 1286 363 1319 494 q 1234 115 1253 231 q 1215 -85 1215 -1 q 1221 -167 1215 -133 q 1236 -218 1226 -201 z "},"W":{"ha":2254,"x_min":-111,"x_max":2115,"o":"m 1203 506 q 1216 725 1206 629 q 1242 886 1226 821 q 1276 985 1257 951 q 1313 1019 1294 1019 q 1343 935 1343 1019 q 1328 777 1343 872 q 1272 538 1313 682 q 1299 255 1271 378 q 1374 49 1326 132 q 1481 -77 1421 -35 q 1603 -119 1540 -119 q 1756 -51 1679 -119 q 1893 149 1832 18 q 1992 472 1954 281 q 2031 907 2031 663 q 2024 1060 2031 983 q 2001 1206 2017 1138 q 1963 1332 1986 1275 q 1906 1424 1939 1389 q 1924 1456 1910 1443 q 1953 1469 1938 1469 q 1988 1460 1974 1469 q 2015 1429 2001 1450 q 2059 1337 2040 1392 q 2090 1217 2078 1282 q 2109 1081 2103 1151 q 2115 939 2115 1010 q 2097 639 2115 785 q 2046 366 2079 493 q 1965 133 2013 239 q 1858 -49 1917 28 q 1731 -167 1800 -125 q 1586 -208 1663 -208 q 1460 -172 1522 -208 q 1347 -66 1399 -136 q 1259 108 1296 4 q 1210 349 1222 213 q 1002 -29 1124 96 q 750 -154 881 -154 q 656 -137 700 -154 q 578 -88 611 -121 q 526 -6 546 -56 q 507 111 507 44 q 530 280 507 196 q 588 448 553 364 q 663 616 622 532 q 739 784 704 700 q 797 951 774 868 q 819 1118 819 1035 q 806 1213 819 1174 q 766 1278 792 1253 q 705 1315 740 1303 q 626 1326 669 1326 q 464 1297 544 1326 q 310 1215 383 1267 q 174 1093 236 1163 q 67 944 113 1024 q -5 781 21 865 q -31 615 -31 696 q 10 464 -31 510 q 125 418 51 418 q 269 460 201 418 q 387 567 336 501 q 467 713 438 633 q 497 868 497 793 q 480 951 497 921 q 435 990 463 982 q 450 1028 436 1013 q 486 1044 464 1044 q 551 1001 528 1044 q 574 890 574 958 q 535 697 574 794 q 431 519 496 599 q 282 388 367 439 q 104 338 197 338 q -53 401 4 338 q -111 593 -111 464 q -81 781 -111 685 q 1 968 -51 878 q 126 1139 54 1058 q 283 1279 199 1219 q 460 1374 367 1339 q 649 1408 553 1408 q 833 1340 765 1408 q 901 1139 901 1272 q 878 976 901 1058 q 822 809 856 893 q 749 641 789 725 q 675 473 708 557 q 619 305 642 389 q 596 138 596 221 q 610 49 596 88 q 647 -15 624 11 q 702 -53 671 -40 q 768 -65 733 -65 q 873 -36 818 -65 q 985 60 928 -7 q 1097 235 1042 126 q 1203 506 1153 344 z "},"X":{"ha":1626,"x_min":-28,"x_max":1783,"o":"m 992 629 q 922 859 954 757 q 859 1039 890 961 q 796 1173 828 1117 q 728 1265 764 1229 q 551 1338 656 1338 q 446 1318 493 1338 q 365 1267 399 1299 q 313 1197 332 1236 q 294 1119 294 1158 q 300 1080 294 1099 q 318 1046 306 1061 q 298 1021 313 1031 q 267 1011 283 1011 q 223 1031 240 1011 q 206 1090 206 1050 q 233 1202 206 1146 q 309 1304 261 1258 q 422 1379 357 1350 q 561 1408 486 1408 q 687 1387 629 1408 q 788 1321 744 1365 q 856 1227 825 1281 q 917 1103 888 1174 q 975 942 946 1032 q 1039 736 1004 851 q 1263 1176 1165 1013 q 1436 1414 1361 1339 q 1581 1526 1517 1494 q 1703 1557 1644 1557 q 1763 1542 1743 1557 q 1783 1500 1783 1526 q 1777 1474 1783 1486 q 1758 1456 1771 1463 q 1736 1467 1749 1463 q 1700 1471 1724 1471 q 1597 1443 1649 1471 q 1485 1356 1544 1415 q 1292 1086 1399 1269 q 1067 644 1185 903 q 1115 483 1093 553 q 1153 358 1136 413 q 1187 258 1171 303 q 1218 174 1203 214 q 1306 -3 1265 51 q 1383 -57 1347 -57 q 1440 -37 1414 -57 q 1492 33 1465 -18 q 1551 169 1519 83 q 1626 389 1583 256 q 1653 338 1665 389 q 1587 108 1618 200 q 1523 -40 1556 15 q 1455 -119 1490 -96 q 1378 -142 1419 -142 q 1255 -73 1311 -142 q 1146 142 1199 -4 q 1117 220 1131 181 q 1088 306 1103 260 q 1056 409 1074 353 q 1018 538 1039 465 q 908 297 960 400 q 810 119 856 194 q 722 -10 764 43 q 642 -101 681 -64 q 476 -217 563 -181 q 289 -253 390 -253 q 163 -229 221 -253 q 62 -159 104 -206 q -4 -45 19 -112 q -28 110 -28 22 q -3 297 -28 207 q 64 463 22 386 q 161 601 106 539 q 277 708 217 664 q 400 776 338 751 q 519 800 463 800 q 655 738 607 800 q 703 571 703 676 q 674 390 703 476 q 597 237 644 303 q 490 132 550 171 q 367 93 429 93 q 266 132 304 93 q 228 239 228 171 q 232 292 228 265 q 246 338 236 318 q 297 386 267 386 q 326 369 318 386 q 308 315 314 343 q 303 265 303 286 q 327 201 303 221 q 390 181 351 181 q 475 211 432 181 q 553 293 518 242 q 611 412 589 344 q 633 551 633 479 q 601 674 633 631 q 503 717 568 717 q 399 695 453 717 q 294 634 344 674 q 198 540 243 594 q 119 418 153 485 q 65 276 85 351 q 44 119 44 200 q 63 -3 44 50 q 115 -92 82 -56 q 195 -148 149 -129 q 297 -167 242 -167 q 464 -132 388 -167 q 607 -31 540 -97 q 785 211 689 51 q 992 629 882 371 z "},"Y":{"ha":1790,"x_min":-111,"x_max":1638,"o":"m 651 -126 q 626 -187 626 -150 q 677 -268 626 -237 q 836 -299 728 -299 q 981 -279 914 -299 q 1097 -228 1047 -260 q 1174 -156 1146 -196 q 1201 -76 1201 -117 q 1183 -17 1201 -46 q 1126 35 1165 13 q 1027 70 1088 57 q 882 83 967 83 q 653 56 751 83 q 489 -16 554 28 q 390 -114 424 -60 q 357 -219 357 -168 q 395 -341 357 -285 q 503 -439 433 -397 q 669 -504 572 -481 q 886 -528 767 -528 q 1172 -490 1049 -528 q 1381 -385 1296 -451 q 1508 -229 1465 -318 q 1551 -40 1551 -140 q 1532 141 1551 51 q 1488 326 1513 231 q 1441 528 1463 422 q 1415 757 1419 633 q 1272 531 1351 629 q 1109 364 1193 432 q 940 261 1025 296 q 779 226 856 226 q 587 303 657 226 q 517 518 517 379 q 540 683 517 603 q 592 847 564 764 q 643 1015 619 929 q 667 1197 667 1101 q 633 1309 667 1268 q 528 1350 599 1350 q 401 1325 467 1350 q 272 1258 335 1300 q 153 1158 210 1215 q 55 1037 97 1101 q -12 903 13 972 q -37 769 -37 835 q -26 688 -37 721 q 6 635 -14 656 q 53 605 26 614 q 110 596 81 596 q 226 628 168 596 q 330 713 283 661 q 405 828 376 764 q 433 956 433 892 q 346 1057 433 1057 q 288 1043 318 1057 q 230 1008 257 1029 q 181 958 203 986 q 146 903 158 931 q 112 919 122 900 q 117 967 101 938 q 163 1033 135 1001 q 224 1086 190 1064 q 296 1122 258 1108 q 369 1135 333 1135 q 472 1096 436 1135 q 507 982 507 1057 q 471 819 507 901 q 376 669 435 736 q 244 558 318 601 q 93 515 169 515 q 13 530 50 515 q -51 574 -24 544 q -95 647 -79 603 q -111 750 -111 690 q -83 910 -111 829 q -6 1066 -54 990 q 108 1208 43 1142 q 246 1323 172 1274 q 397 1401 319 1372 q 547 1429 474 1429 q 695 1376 644 1429 q 746 1217 746 1322 q 723 1038 746 1124 q 673 871 700 953 q 623 707 646 789 q 600 539 600 625 q 653 369 600 425 q 794 314 707 314 q 952 356 868 314 q 1120 476 1036 399 q 1283 661 1204 553 q 1422 901 1361 769 q 1448 1038 1431 972 q 1489 1149 1465 1104 q 1540 1200 1515 1200 q 1560 1160 1560 1200 q 1538 1031 1560 1100 q 1486 886 1517 961 q 1485 849 1485 867 q 1485 810 1485 831 q 1508 575 1485 689 q 1561 354 1532 461 q 1614 148 1590 247 q 1638 -42 1638 49 q 1585 -253 1638 -151 q 1437 -433 1533 -354 q 1201 -558 1340 -511 q 888 -604 1063 -604 q 639 -576 751 -604 q 446 -499 526 -549 q 321 -381 365 -449 q 276 -232 276 -312 q 318 -94 276 -164 q 439 31 360 -25 q 633 122 518 88 q 893 157 747 157 q 1068 140 994 157 q 1190 92 1142 122 q 1260 23 1238 63 q 1282 -60 1282 -17 q 1245 -180 1282 -122 q 1144 -281 1208 -237 q 996 -349 1081 -324 q 815 -375 911 -375 q 617 -327 683 -375 q 550 -210 550 -279 q 574 -133 550 -164 q 622 -103 597 -103 q 651 -126 649 -103 z "},"Z":{"ha":1843,"x_min":28,"x_max":1718,"o":"m 1629 -19 q 1603 60 1629 24 q 1530 124 1578 97 q 1415 167 1482 151 q 1264 183 1347 183 q 1108 169 1172 183 q 1001 135 1043 156 q 940 90 960 114 q 921 44 921 65 q 933 6 921 25 q 972 -29 944 -14 q 1046 -53 1000 -44 q 1158 -62 1092 -62 q 1281 -46 1225 -62 q 1383 -1 1336 -29 q 1406 -38 1411 -10 q 1351 -90 1400 -67 q 1254 -122 1310 -110 q 1138 -133 1199 -133 q 1015 -121 1071 -133 q 920 -87 960 -108 q 859 -34 881 -65 q 838 35 838 -3 q 865 109 838 71 q 947 178 893 147 q 1078 229 1000 210 q 1260 249 1157 249 q 1463 227 1376 249 q 1606 169 1549 206 q 1690 86 1663 133 q 1718 -14 1718 39 q 1683 -127 1718 -72 q 1582 -224 1647 -182 q 1425 -293 1517 -267 q 1221 -319 1333 -319 q 1031 -303 1121 -319 q 858 -262 940 -287 q 701 -208 776 -237 q 556 -153 626 -179 q 420 -109 486 -128 q 292 -86 354 -90 q 157 -140 211 -122 q 67 -157 103 -157 q 28 -131 28 -157 q 44 -101 28 -117 q 88 -70 60 -85 q 158 -44 117 -56 q 249 -29 199 -33 q 536 120 385 31 q 835 315 688 210 q 1116 533 982 419 q 1351 754 1250 646 q 1513 958 1453 863 q 1574 1121 1574 1053 q 1536 1206 1574 1165 q 1424 1276 1499 1246 q 1235 1325 1349 1307 q 968 1343 1121 1343 q 594 1313 751 1343 q 333 1240 436 1283 q 181 1145 231 1196 q 131 1053 131 1094 q 157 983 131 1015 q 233 927 183 950 q 355 891 283 904 q 517 878 426 878 q 713 894 622 878 q 869 938 803 911 q 974 998 936 964 q 1011 1067 1011 1032 q 955 1128 1011 1103 q 788 1153 899 1153 q 681 1145 733 1153 q 583 1125 629 1138 q 499 1096 538 1113 q 436 1061 461 1079 q 417 1072 425 1063 q 409 1095 408 1082 q 421 1124 410 1108 q 460 1151 432 1139 q 618 1203 528 1183 q 807 1224 708 1224 q 1033 1183 958 1224 q 1107 1081 1107 1142 q 1063 980 1107 1029 q 939 892 1018 931 q 750 829 860 853 q 510 806 640 806 q 303 824 392 806 q 156 875 215 843 q 67 949 97 907 q 38 1035 38 990 q 99 1171 38 1103 q 278 1294 160 1239 q 569 1383 396 1349 q 969 1417 743 1417 q 1281 1395 1149 1417 q 1499 1335 1413 1374 q 1629 1244 1586 1296 q 1672 1129 1672 1192 q 1618 960 1672 1056 q 1471 759 1564 865 q 1253 542 1378 653 q 985 326 1128 431 q 691 127 843 221 q 392 -37 539 33 q 526 -70 464 -50 q 649 -113 589 -90 q 769 -160 708 -136 q 900 -202 831 -183 q 1050 -233 969 -221 q 1231 -244 1131 -244 q 1396 -226 1322 -244 q 1522 -177 1469 -208 q 1601 -105 1574 -146 q 1629 -19 1629 -64 z "},"[":{"ha":425,"x_min":139,"x_max":425,"o":"m 139 571 q 151 947 139 783 q 182 1203 163 1111 q 229 1301 196 1269 q 329 1332 263 1332 q 399 1317 378 1332 q 421 1282 421 1301 q 419 1268 421 1275 q 411 1254 417 1261 q 377 1258 396 1257 q 344 1260 358 1260 q 283 1245 301 1258 q 257 1201 264 1232 q 242 1097 249 1161 q 230 949 235 1032 q 222 771 225 867 q 219 571 219 675 q 222 369 219 467 q 231 186 225 271 q 242 35 236 101 q 257 -72 249 -32 q 283 -117 263 -103 q 350 -131 303 -131 q 381 -129 364 -131 q 413 -125 397 -128 q 425 -157 425 -140 q 404 -190 425 -176 q 338 -203 383 -203 q 278 -198 304 -203 q 233 -180 251 -193 q 201 -143 214 -167 q 182 -83 189 -119 q 165 31 172 -37 q 151 183 157 99 q 142 367 146 268 q 139 571 139 465 z "},"\\":{"ha":708,"x_min":28,"x_max":682,"o":"m 529 -104 q 405 63 467 -36 q 288 280 343 163 q 184 526 232 397 q 101 785 136 656 q 47 1036 67 914 q 28 1263 28 1158 q 40 1342 28 1318 q 74 1365 51 1365 q 104 1350 93 1365 q 106 1163 94 1274 q 145 925 117 1053 q 218 661 174 797 q 320 395 263 525 q 447 149 378 265 q 594 -51 517 33 q 638 -90 618 -76 q 675 -110 657 -103 q 672 -147 682 -126 q 629 -167 661 -167 q 588 -153 610 -167 q 529 -104 565 -140 z "},"]":{"ha":425,"x_min":0,"x_max":286,"o":"m 286 571 q 283 369 286 465 q 274 190 279 272 q 260 40 268 107 q 243 -72 253 -26 q 192 -174 228 -146 q 88 -203 156 -203 q 21 -190 42 -203 q 0 -157 0 -176 q 13 -125 0 -140 q 44 -129 28 -128 q 75 -131 61 -131 q 142 -117 122 -131 q 168 -72 163 -103 q 183 35 176 -32 q 194 186 189 101 q 203 369 200 271 q 206 571 206 467 q 203 771 206 675 q 195 949 200 867 q 183 1097 190 1032 q 168 1201 176 1161 q 142 1245 161 1232 q 81 1260 124 1258 q 48 1258 67 1260 q 14 1254 29 1257 q 6 1268 8 1261 q 4 1282 4 1275 q 26 1317 4 1301 q 96 1332 47 1332 q 194 1303 160 1332 q 243 1203 228 1274 q 274 947 263 1111 q 286 571 286 783 z "},"^":{"ha":657,"x_min":83,"x_max":576,"o":"m 265 1106 q 285 1119 272 1113 q 310 1125 297 1125 q 340 1114 331 1125 q 356 1076 350 1103 q 400 924 372 992 q 458 806 428 856 q 517 726 488 756 q 571 689 547 697 q 565 651 576 667 q 526 635 554 635 q 472 661 503 635 q 410 737 442 688 q 352 854 379 786 q 308 1006 325 922 q 288 922 301 964 q 258 840 275 879 q 224 766 242 800 q 190 706 207 732 q 122 654 158 654 q 94 664 106 654 q 83 693 83 674 q 120 728 100 703 q 160 789 140 754 q 199 866 181 824 q 233 951 218 908 q 256 1033 247 993 q 265 1106 265 1074 z "},"_":{"ha":736,"x_min":-14,"x_max":708,"o":"m 14 -197 q -14 -165 -14 -190 q 5 -133 -14 -146 q 68 -114 24 -121 q 178 -102 111 -107 q 342 -97 246 -97 q 646 -121 531 -97 q 695 -137 682 -128 q 708 -162 708 -147 q 693 -189 708 -179 q 643 -181 676 -185 q 567 -172 610 -176 q 475 -166 525 -168 q 374 -164 425 -164 q 244 -167 300 -164 q 146 -174 189 -169 q 71 -184 103 -178 q 14 -197 39 -190 z "},"`":{"ha":344,"x_min":42,"x_max":303,"o":"m 97 864 q 129 817 107 840 q 179 774 151 793 q 238 741 207 754 q 294 724 268 728 q 303 704 303 715 q 292 683 303 692 q 260 674 282 674 q 197 688 235 674 q 125 726 160 703 q 66 778 90 749 q 42 836 42 807 q 51 861 42 851 q 75 871 60 871 q 97 864 88 871 z "},"a":{"ha":594,"x_min":-46,"x_max":635,"o":"m 383 372 q 374 312 383 329 q 350 292 365 294 q 329 172 350 236 q 404 49 343 49 q 446 65 425 49 q 489 119 467 81 q 538 224 511 158 q 596 389 564 289 q 622 338 635 389 q 567 153 594 226 q 513 37 540 81 q 455 -24 485 -7 q 393 -42 425 -42 q 276 60 310 -42 q 200 -28 244 7 q 104 -64 156 -64 q -3 -3 40 -64 q -46 178 -46 58 q -25 325 -46 253 q 32 453 -4 397 q 117 544 68 510 q 221 578 165 578 q 293 562 263 578 q 344 518 324 546 q 374 453 364 490 q 383 372 383 415 m 322 375 q 288 466 317 435 q 211 497 258 497 q 135 472 169 497 q 77 407 101 447 q 39 314 53 367 q 25 206 25 261 q 53 71 25 118 q 124 24 82 24 q 197 58 160 24 q 260 146 233 93 q 258 172 258 158 q 257 201 257 186 q 276 335 257 286 q 322 375 294 385 z "},"b":{"ha":650,"x_min":-26,"x_max":689,"o":"m 69 614 q 66 583 67 599 q 64 551 65 567 q 120 572 89 564 q 192 579 151 579 q 302 557 251 579 q 389 496 353 535 q 445 403 425 457 q 465 285 465 349 q 450 164 465 222 q 569 245 518 189 q 650 389 621 301 q 676 338 689 389 q 638 249 664 289 q 578 176 613 208 q 504 122 544 144 q 422 86 464 99 q 335 -27 389 15 q 221 -69 282 -69 q 79 10 140 -69 q 0 265 18 89 q -26 388 -26 325 q -4 483 -26 440 q 0 559 -1 522 q 6 632 1 596 q -17 654 -10 642 q -24 678 -24 667 q -18 698 -24 689 q -3 711 -12 707 q 13 697 1 706 q 49 886 26 803 q 100 1028 72 969 q 158 1117 128 1086 q 221 1149 189 1149 q 283 1099 263 1149 q 304 975 304 1049 q 286 835 304 901 q 237 718 268 768 q 163 640 206 668 q 69 614 119 611 m 61 476 q 63 369 60 425 q 69 278 65 314 q 177 182 107 218 q 338 146 247 146 q 356 146 346 146 q 382 149 367 146 q 397 250 397 194 q 381 352 397 306 q 334 433 365 399 q 258 486 303 467 q 158 506 214 506 q 61 476 90 506 m 75 678 q 138 698 110 675 q 188 760 167 721 q 220 853 208 800 q 232 967 232 907 q 224 1033 232 1007 q 201 1058 217 1058 q 172 1031 189 1058 q 136 954 154 1004 q 102 834 118 904 q 75 678 86 764 m 315 69 q 199 89 254 69 q 100 143 144 108 q 158 44 124 76 q 236 13 193 13 q 343 71 297 13 q 328 69 333 69 q 315 69 322 69 z "},"c":{"ha":486,"x_min":-36,"x_max":525,"o":"m 172 -69 q 90 -53 128 -69 q 24 -3 51 -36 q -20 81 -4 31 q -36 201 -36 132 q -17 342 -36 274 q 37 463 3 410 q 117 548 71 515 q 218 581 164 581 q 312 536 282 581 q 342 422 342 492 q 333 351 342 383 q 312 294 325 318 q 282 258 299 271 q 250 244 265 244 q 224 258 235 244 q 213 300 214 272 q 227 389 210 343 q 276 464 244 435 q 251 495 267 483 q 210 507 235 507 q 142 485 174 507 q 86 424 110 463 q 48 335 63 386 q 33 228 33 285 q 74 67 33 119 q 185 15 114 15 q 262 31 224 15 q 338 89 300 47 q 412 203 375 131 q 486 389 449 275 q 513 338 525 389 q 444 142 483 221 q 361 17 406 64 q 268 -50 317 -31 q 172 -69 219 -69 z "},"d":{"ha":699,"x_min":-39,"x_max":738,"o":"m 511 1306 q 555 1290 535 1306 q 590 1241 575 1275 q 614 1152 606 1207 q 622 1019 622 1097 q 603 783 622 901 q 551 555 583 665 q 475 346 518 444 q 383 168 432 247 q 440 79 410 108 q 496 50 471 50 q 534 65 513 50 q 581 117 556 79 q 636 220 607 154 q 699 389 665 286 q 725 338 738 389 q 669 156 697 229 q 610 40 640 83 q 549 -23 581 -4 q 486 -42 518 -42 q 406 -7 446 -42 q 332 94 365 28 q 226 -16 279 24 q 125 -56 172 -56 q 6 10 51 -56 q -39 186 -39 75 q -17 344 -39 272 q 42 466 6 415 q 128 544 79 517 q 229 572 176 572 q 241 572 236 572 q 253 571 246 572 q 280 874 256 739 q 341 1106 304 1010 q 422 1253 378 1201 q 511 1306 467 1306 m 325 439 q 336 332 328 381 q 356 243 344 283 q 428 393 393 310 q 488 572 463 476 q 529 772 514 667 q 544 989 544 878 q 540 1094 544 1051 q 529 1162 536 1136 q 513 1198 522 1188 q 492 1208 503 1208 q 442 1160 471 1208 q 388 1026 414 1113 q 342 817 361 939 q 322 546 324 694 q 347 518 339 533 q 356 490 356 503 q 346 457 356 468 q 325 439 336 446 m 304 163 q 269 307 282 226 q 253 488 256 388 q 217 493 238 493 q 143 469 176 493 q 85 406 110 446 q 47 315 61 367 q 33 206 33 263 q 65 72 33 114 q 136 31 97 31 q 216 65 172 31 q 304 163 260 100 z "},"e":{"ha":476,"x_min":-33,"x_max":515,"o":"m 476 389 q 503 338 515 389 q 437 157 476 233 q 351 31 397 81 q 254 -44 304 -19 q 158 -68 204 -68 q 19 -1 72 -68 q -33 200 -33 65 q -13 349 -33 281 q 39 467 7 418 q 113 543 71 515 q 199 571 154 571 q 250 559 229 571 q 285 527 271 547 q 305 480 299 507 q 311 422 311 453 q 295 331 311 372 q 253 258 279 289 q 195 211 228 228 q 129 194 163 194 q 73 205 101 194 q 29 235 44 215 l 29 224 q 69 68 29 121 q 169 15 108 15 q 244 34 204 15 q 324 97 283 53 q 403 212 364 140 q 476 389 442 283 m 179 499 q 138 484 158 499 q 98 444 117 469 q 64 386 79 419 q 40 315 49 353 q 73 276 50 290 q 124 263 96 263 q 163 272 143 263 q 198 299 182 281 q 224 345 214 318 q 235 408 235 372 q 221 472 235 444 q 179 499 207 499 z "},"f":{"ha":474,"x_min":-78,"x_max":513,"o":"m 286 878 q 266 701 286 785 q 211 555 246 618 q 132 453 176 492 q 38 411 88 415 q 34 369 35 390 q 32 328 33 349 q 190 267 119 325 q 307 108 261 208 q 392 201 351 136 q 474 389 433 267 q 500 338 513 389 q 428 149 471 221 q 332 40 385 76 q 368 -200 368 -68 q 352 -372 368 -296 q 309 -501 336 -449 q 247 -582 282 -554 q 175 -610 213 -610 q 89 -567 129 -610 q 19 -435 49 -524 q -28 -212 -11 -347 q -46 108 -46 -76 q -46 143 -46 126 q -44 178 -46 160 q -53 208 -50 192 q -57 242 -57 225 q -53 273 -57 258 q -40 299 -50 288 q -35 361 -37 331 q -31 422 -33 392 q -53 435 -39 425 q -77 474 -76 450 q -54 508 -78 497 q -25 488 -42 496 q 13 735 -11 621 q 65 933 36 849 q 128 1065 94 1017 q 196 1113 161 1113 q 259 1053 232 1113 q 286 878 286 994 m 200 -3 q 104 17 149 -3 q 25 69 60 38 q 40 -169 26 -62 q 77 -352 54 -276 q 130 -469 100 -428 q 194 -510 160 -510 q 232 -490 214 -510 q 265 -435 250 -471 q 288 -349 279 -400 q 296 -232 296 -297 q 286 -105 296 -164 q 260 4 276 -46 q 200 -3 228 -3 m 178 1014 q 144 974 163 1014 q 108 862 126 933 q 72 692 89 790 q 43 478 56 593 q 110 517 79 483 q 165 604 142 551 q 202 726 189 657 q 215 869 215 794 q 204 977 215 940 q 178 1014 193 1014 m 226 83 q 181 158 206 125 q 129 215 156 192 q 76 249 103 238 q 28 256 50 260 l 25 192 q 57 147 36 168 q 105 111 78 126 q 163 88 132 96 q 226 83 194 81 z "},"g":{"ha":590,"x_min":-442,"x_max":688,"o":"m 335 161 q 231 -5 290 53 q 104 -62 171 -62 q -6 -5 36 -62 q -47 156 -47 53 q -24 324 -47 246 q 37 458 -1 401 q 126 547 75 515 q 232 579 176 579 q 287 569 263 579 q 329 542 311 558 q 357 503 347 525 q 367 460 367 482 q 364 433 367 447 q 375 436 369 436 q 408 376 408 436 q 403 331 408 356 q 386 278 397 306 q 422 108 393 210 q 479 -108 451 7 q 635 -185 582 -129 q 688 -314 688 -240 q 633 -486 688 -404 q 486 -624 578 -568 q 410 -765 458 -704 q 299 -868 363 -826 q 160 -931 236 -910 q -1 -951 83 -951 q -183 -928 -101 -951 q -322 -864 -264 -904 q -410 -768 -379 -824 q -442 -650 -442 -712 q -411 -510 -442 -579 q -326 -380 -381 -442 q -197 -267 -272 -318 q -33 -177 -122 -215 q 158 -118 57 -139 q 364 -97 258 -97 q 376 -98 371 -97 q 388 -99 382 -99 l 399 -99 q 364 41 382 -25 q 335 161 346 107 m -15 -643 q -47 -615 -33 -631 q -60 -578 -60 -599 q -51 -553 -60 -562 q -29 -543 -43 -543 q 69 -603 13 -583 q 208 -624 126 -624 q 329 -612 274 -624 q 429 -579 385 -600 q 446 -442 446 -517 q 437 -310 446 -376 q 415 -178 428 -244 q 376 -174 396 -175 q 335 -172 357 -172 q 65 -213 193 -172 q -158 -320 -62 -254 q -310 -468 -254 -386 q -367 -631 -367 -550 q -340 -728 -367 -683 q -262 -804 -312 -772 q -140 -855 -212 -836 q 24 -874 -68 -874 q 253 -819 157 -874 q 397 -665 349 -765 q 306 -691 353 -682 q 208 -700 258 -700 q 78 -685 132 -700 q -15 -643 24 -671 m 336 396 q 306 399 318 390 q 300 432 306 414 q 283 465 294 450 q 254 490 272 481 q 213 500 236 500 q 144 476 178 500 q 85 410 111 453 q 44 310 60 368 q 28 182 28 251 q 51 66 28 107 q 119 25 75 25 q 219 86 164 25 q 318 276 275 147 q 323 345 318 315 q 336 396 328 375 m 610 -332 q 583 -252 610 -287 q 497 -196 556 -217 q 515 -303 508 -250 q 521 -410 521 -357 q 518 -472 521 -442 q 511 -529 515 -501 q 585 -437 560 -489 q 610 -332 610 -386 z "},"h":{"ha":663,"x_min":-71,"x_max":704,"o":"m -47 568 q -3 542 -31 550 l -3 560 q 19 872 -1 736 q 74 1098 40 1007 q 151 1235 107 1189 q 243 1282 194 1282 q 331 1223 296 1282 q 367 1056 367 1164 q 341 844 367 943 q 274 668 315 744 q 180 541 232 592 q 74 476 128 490 q 76 361 74 418 q 80 256 78 304 q 84 173 82 208 q 89 124 86 138 q 95 115 90 115 q 103 121 100 114 q 137 207 118 156 q 176 313 156 258 q 219 419 197 368 q 264 506 242 471 q 303 552 285 539 q 342 565 322 565 q 385 540 369 565 q 408 458 400 514 q 418 385 414 425 q 426 303 422 344 q 433 222 429 263 q 443 149 438 182 q 464 65 451 96 q 499 35 476 35 q 531 53 514 35 q 567 115 547 72 q 610 224 586 157 q 665 389 633 292 q 692 338 704 389 q 590 38 640 132 q 482 -56 539 -56 q 406 -14 439 -56 q 360 132 372 28 q 352 211 356 169 q 345 294 349 253 q 338 374 342 335 q 328 443 333 413 q 318 463 325 460 q 300 446 311 467 q 258 359 279 407 q 219 263 238 311 q 186 171 201 215 q 158 96 171 126 q 133 39 144 60 q 113 7 122 18 q 94 -8 103 -4 q 75 -11 85 -11 q 55 -6 64 -11 q 38 13 46 -1 q 23 53 29 28 q 13 121 17 79 q 7 191 10 150 q 2 279 4 232 q -1 376 0 326 q -3 474 -3 426 q -26 483 -15 476 q -47 496 -36 489 q -69 532 -67 510 q -47 568 -71 554 m 74 638 q 72 592 72 615 q 72 544 72 568 q 151 605 113 560 q 219 715 189 650 q 267 860 249 779 q 285 1028 285 940 q 267 1152 285 1115 q 225 1189 249 1189 q 176 1151 201 1189 q 129 1043 151 1114 q 92 870 107 972 q 74 638 76 768 z "},"i":{"ha":307,"x_min":-32,"x_max":346,"o":"m 106 -46 q 13 10 50 -46 q -24 196 -24 65 q -20 260 -24 225 q -11 331 -17 296 q 2 397 -6 365 q 18 451 10 429 q 42 491 29 476 q 74 506 54 506 q 103 494 92 506 q 69 356 79 426 q 58 214 58 286 q 78 85 58 125 q 131 44 99 44 q 165 60 147 44 q 203 114 182 75 q 249 219 224 153 q 307 389 274 286 q 333 338 346 389 q 278 156 306 229 q 224 38 251 82 q 167 -26 196 -7 q 106 -46 138 -46 m 1 731 q 25 783 1 764 q 101 803 49 803 q 206 769 172 803 q 240 690 240 736 q 224 619 240 653 q 181 558 207 585 q 124 515 156 531 q 64 499 93 499 q -7 525 18 499 q -32 596 -32 551 q 6 704 -32 654 q 1 731 1 718 m 33 638 q 50 597 33 611 q 94 583 67 583 q 148 604 124 583 q 172 656 172 625 q 151 697 172 676 q 90 718 131 718 q 58 714 75 718 q 39 672 44 690 q 33 638 33 653 z "},"j":{"ha":267,"x_min":-144,"x_max":219,"o":"m 3 749 q 31 783 15 776 q 67 778 47 789 q 176 776 133 799 q 219 696 219 753 q 206 622 219 656 q 171 561 193 588 q 121 520 149 535 q 63 506 93 506 q -1 535 22 506 q -25 614 -25 565 q -19 683 -25 649 q 3 749 -12 718 m 99 708 q 46 696 71 708 q 51 601 35 628 q 90 575 68 575 q 137 598 117 575 q 157 656 157 621 q 99 708 157 708 m 182 -515 q 156 -687 182 -615 q 91 -803 131 -758 q 5 -870 51 -849 q -83 -892 -42 -892 q -128 -878 -111 -892 q -144 -846 -144 -865 q -132 -812 -144 -828 q -37 -800 -81 -815 q 39 -749 7 -785 q 90 -660 71 -714 q 108 -532 108 -606 q 90 -353 108 -444 q 49 -161 71 -261 q 9 49 28 -61 q -10 286 -10 160 q 14 458 -10 406 q 74 511 38 511 q 111 489 100 511 q 81 412 92 461 q 69 296 69 363 q 87 53 69 161 q 126 -150 104 -56 q 165 -333 147 -244 q 182 -515 182 -421 z "},"k":{"ha":669,"x_min":-71,"x_max":708,"o":"m 500 426 q 476 313 500 365 q 413 221 453 260 q 322 160 374 182 q 215 142 271 139 q 265 95 238 117 q 320 58 292 74 q 376 33 349 42 q 429 24 404 24 q 487 36 460 24 q 542 88 514 49 q 600 199 569 126 q 669 389 631 271 q 696 338 708 389 q 635 145 667 222 q 570 22 604 68 q 501 -44 536 -25 q 428 -64 465 -64 q 341 -43 389 -64 q 248 12 293 -22 q 166 89 203 46 q 113 178 129 132 q 97 113 103 146 q 92 46 92 79 q 99 -21 92 10 q 68 -32 85 -32 q 38 -18 50 -32 q 19 46 26 -4 q 10 128 14 81 q 4 228 7 175 q 0 337 1 282 q -1 440 -1 392 q -44 461 -21 444 q -67 499 -64 475 q -47 538 -71 524 q 0 511 -29 517 q 31 866 4 718 q 97 1108 58 1014 q 182 1247 136 1203 q 268 1292 228 1292 q 361 1233 328 1292 q 394 1058 394 1175 q 365 843 394 947 q 290 655 336 739 q 185 514 243 571 q 71 442 128 457 l 71 413 q 71 320 71 369 q 74 222 71 271 q 127 354 92 290 q 206 467 163 418 q 295 544 249 515 q 383 574 342 574 q 472 531 444 574 q 500 426 500 489 m 253 1200 q 197 1154 226 1200 q 141 1021 167 1108 q 96 806 115 933 q 72 514 76 678 q 156 579 113 531 q 233 699 199 628 q 290 857 268 769 q 313 1039 313 944 q 294 1163 313 1126 q 253 1200 276 1200 m 160 247 q 168 218 161 232 q 231 208 196 208 q 312 224 275 208 q 376 267 349 240 q 417 330 403 294 q 432 406 432 365 q 368 483 432 483 q 313 465 343 483 q 251 415 282 447 q 192 341 221 383 q 140 249 163 299 q 149 249 144 249 q 160 247 154 249 z "},"l":{"ha":411,"x_min":-69,"x_max":450,"o":"m 347 1026 q 326 824 347 928 q 268 635 306 721 q 180 491 231 549 q 69 426 129 433 q 88 249 74 322 q 122 127 103 175 q 163 57 142 79 q 206 35 185 35 q 240 49 219 35 q 287 101 261 63 q 344 209 313 140 q 411 389 375 278 q 438 338 450 389 q 381 156 411 231 q 317 34 350 82 q 253 -35 285 -14 q 193 -57 222 -57 q 123 -28 157 -57 q 62 62 89 1 q 17 215 35 122 q -3 436 0 308 q -49 468 -26 446 q -67 515 -69 490 q -39 546 -64 539 q -3 508 -25 521 q 19 821 -1 675 q 71 1074 39 967 q 145 1244 103 1182 q 235 1306 188 1306 q 319 1228 290 1306 q 347 1026 347 1151 m 68 496 q 140 546 104 503 q 205 660 176 589 q 251 824 233 731 q 269 1026 269 918 q 265 1099 269 1065 q 254 1157 261 1132 q 238 1197 247 1182 q 217 1211 228 1211 q 170 1158 196 1211 q 122 1010 144 1104 q 83 790 99 917 q 68 515 68 663 l 68 496 z "},"m":{"ha":919,"x_min":0,"x_max":958,"o":"m 110 101 q 113 90 110 88 q 118 99 115 92 q 139 175 126 129 q 165 272 151 221 q 194 374 179 324 q 224 465 210 425 q 324 596 269 596 q 368 510 368 596 q 369 374 368 442 q 374 249 371 307 q 381 147 376 192 q 390 78 385 101 q 396 65 393 68 q 403 78 399 63 q 426 156 413 111 q 453 247 439 200 q 485 339 468 293 q 517 422 501 385 q 563 505 539 475 q 613 535 588 535 q 651 512 636 535 q 668 436 665 489 q 684 243 675 319 q 704 122 693 167 q 728 60 715 78 q 757 42 742 42 q 783 54 769 42 q 815 104 796 67 q 858 210 833 142 q 919 389 883 278 q 946 338 958 389 q 891 146 917 221 q 842 28 865 71 q 793 -32 818 -15 q 742 -49 768 -49 q 685 -27 710 -49 q 641 47 660 -6 q 610 185 622 99 q 592 403 597 272 q 585 424 590 426 q 571 403 579 422 q 538 317 556 365 q 505 217 521 268 q 475 117 489 165 q 451 32 461 68 q 422 -37 438 -19 q 388 -56 407 -56 q 345 -32 364 -56 q 315 46 326 -8 q 296 231 300 129 q 292 450 292 332 q 288 459 292 460 q 281 450 283 458 q 258 381 271 425 q 230 285 244 336 q 201 182 215 235 q 175 86 186 129 q 137 -8 157 19 q 93 -35 117 -35 q 63 -16 74 -35 q 50 47 51 3 q 33 270 47 183 q 0 389 18 357 q 40 432 14 432 q 69 413 56 432 q 90 346 82 394 q 105 226 100 294 q 110 101 110 158 z "},"n":{"ha":626,"x_min":-19,"x_max":665,"o":"m 433 -56 q 366 -19 392 -56 q 326 73 340 17 q 306 198 311 129 q 300 332 300 267 q 301 385 300 360 q 301 436 301 411 q 296 453 301 451 q 279 435 290 456 q 237 342 257 394 q 198 238 217 290 q 163 137 179 185 q 133 58 146 89 q 91 -12 110 4 q 56 -28 72 -28 q 13 -5 33 -28 q -14 72 -7 18 q -19 155 -18 106 q -17 256 -19 204 q -7 354 -14 307 q 10 431 0 401 q 31 465 18 456 q 60 475 44 475 q 85 469 75 475 q 97 454 94 463 q 79 399 89 443 q 63 297 69 354 q 54 181 57 239 q 57 85 51 122 q 65 67 60 69 q 78 82 71 65 q 113 172 93 115 q 154 288 132 228 q 199 404 176 349 q 246 494 222 460 q 326 556 286 556 q 365 531 356 556 q 375 467 375 506 q 378 288 375 368 q 391 152 382 208 q 415 65 400 96 q 451 35 429 35 q 485 51 468 35 q 523 109 503 68 q 568 218 543 150 q 626 389 593 286 q 653 338 665 389 q 599 154 625 229 q 547 33 574 79 q 492 -35 521 -14 q 433 -56 464 -56 z "},"o":{"ha":546,"x_min":-40,"x_max":585,"o":"m 572 338 q 532 231 557 276 q 476 156 507 186 q 411 109 446 126 q 340 86 376 92 q 260 -28 313 11 q 146 -67 208 -67 q 11 0 63 -67 q -40 200 -40 67 q -25 322 -40 260 q 21 431 -10 383 q 60 532 26 493 q 151 571 93 571 q 241 544 201 571 q 308 473 281 518 q 351 367 336 428 q 365 236 365 306 q 364 197 365 215 q 360 163 363 178 q 413 182 388 168 q 462 222 439 196 q 506 288 485 247 q 546 389 526 329 q 572 338 585 389 m 78 417 q 97 328 78 372 q 147 249 115 285 q 217 190 178 214 q 297 160 257 165 q 303 219 303 181 q 290 330 303 279 q 254 416 276 381 q 203 472 232 451 q 142 492 174 492 q 90 468 107 492 q 106 451 99 464 q 92 436 99 444 q 78 417 85 428 m 164 18 q 271 86 231 18 q 195 113 232 93 q 128 163 158 133 q 73 232 97 193 q 35 314 49 271 q 25 224 25 274 q 65 71 25 124 q 164 18 106 18 z "},"p":{"ha":678,"x_min":-10,"x_max":717,"o":"m 43 -682 q 60 -650 53 -668 q 74 -606 68 -632 q 83 -545 79 -581 q 86 -461 86 -510 q 80 -322 86 -394 q 65 -174 74 -249 q 44 -24 56 -99 q 24 122 33 51 q -3 151 3 128 q 8 233 -10 175 q -3 333 1 286 q -8 417 -7 381 q 4 556 -10 507 q 39 604 18 604 q 62 571 56 604 q 53 456 68 538 q 56 402 54 429 q 60 346 57 375 q 117 438 83 396 q 188 511 150 481 q 263 557 225 542 q 335 571 301 572 q 404 551 374 571 q 456 496 435 531 q 487 415 476 461 q 497 315 497 368 q 438 102 497 188 q 283 -6 379 17 q 335 -32 308 -21 q 394 -43 363 -43 q 460 -22 426 -43 q 528 49 493 -1 q 600 181 563 99 q 678 389 638 264 q 704 338 717 389 q 563 -6 647 110 q 382 -122 478 -122 q 326 -114 351 -122 q 278 -91 301 -106 q 231 -56 256 -76 q 175 -10 206 -35 q 107 14 133 -4 q 148 -247 129 -119 q 168 -482 167 -375 q 162 -585 168 -543 q 144 -655 156 -628 q 117 -694 132 -682 q 85 -707 101 -707 q 62 -701 74 -707 q 43 -682 50 -696 m 93 97 q 121 103 103 103 q 168 85 144 101 q 218 46 192 68 q 313 71 274 47 q 374 130 351 94 q 408 210 397 165 q 418 300 418 254 q 389 439 418 388 q 308 490 360 490 q 245 471 279 490 q 178 416 211 451 q 118 333 146 381 q 74 228 90 285 l 93 97 z "},"q":{"ha":599,"x_min":-43,"x_max":638,"o":"m 599 389 q 625 338 638 389 q 578 189 603 250 q 528 88 554 128 q 476 26 503 47 q 424 -4 450 4 q 524 -235 482 -99 q 565 -537 565 -372 q 549 -705 565 -633 q 508 -823 533 -776 q 451 -892 483 -869 q 388 -915 419 -915 q 317 -885 351 -915 q 256 -792 282 -856 q 213 -630 229 -729 q 197 -392 197 -531 q 205 -198 197 -296 q 228 -1 213 -100 q 167 -47 200 -32 q 103 -62 135 -62 q -1 -2 40 -62 q -43 176 -43 58 q -20 338 -43 263 q 40 467 3 413 q 126 553 78 522 q 228 585 175 585 q 330 544 294 585 q 363 436 365 503 q 390 383 390 436 q 385 331 390 363 q 369 264 379 300 q 344 190 358 228 q 313 119 331 153 q 365 72 336 104 q 419 78 392 67 q 476 125 447 89 q 535 225 504 161 q 599 389 565 289 m 269 -346 q 281 -562 269 -472 q 311 -708 293 -651 q 352 -792 329 -765 q 396 -818 375 -818 q 467 -751 433 -818 q 500 -549 500 -685 q 488 -394 500 -472 q 452 -245 475 -317 q 397 -112 429 -174 q 325 -8 365 -51 l 293 4 q 276 -174 282 -81 q 269 -346 269 -267 m 257 144 q 280 235 268 190 q 306 324 292 279 q 279 335 290 324 q 294 413 294 368 q 273 481 294 457 q 217 504 251 504 q 139 478 174 504 q 79 408 104 451 q 41 309 54 364 q 28 199 28 254 q 55 66 28 108 q 124 24 82 24 q 172 36 147 24 q 215 72 196 49 q 206 115 206 92 q 217 141 206 131 q 257 144 229 151 z "},"r":{"ha":446,"x_min":-25,"x_max":485,"o":"m 446 389 q 472 338 485 389 q 417 149 444 225 q 363 28 390 74 q 306 -36 335 -17 q 246 -56 276 -56 q 156 -1 188 -56 q 124 163 124 54 q 132 273 124 213 q 161 396 140 333 q 112 337 140 356 q 57 318 83 318 q -3 349 19 318 q -25 447 -25 381 q -20 508 -25 479 q -8 558 -15 536 q 8 592 -1 579 q 29 604 18 604 q 57 536 57 604 q 54 480 57 514 q 43 404 51 446 q 69 396 51 396 q 131 432 99 396 q 182 526 163 468 q 201 532 189 532 q 246 503 235 532 q 242 450 253 486 q 199 178 199 304 q 219 65 199 96 q 263 33 239 33 q 298 51 279 33 q 338 110 317 68 q 386 219 360 151 q 446 389 413 288 z "},"s":{"ha":476,"x_min":-85,"x_max":515,"o":"m 264 75 q 242 147 264 115 q 189 207 221 179 q 120 262 157 235 q 51 319 83 289 q -1 384 19 349 q -22 465 -22 419 q -4 577 -22 535 q 36 619 14 619 q 68 549 68 619 q 63 489 68 522 q 50 424 58 456 q 133 349 86 381 q 223 284 181 318 q 296 208 265 250 q 329 101 326 165 q 399 196 364 129 q 476 389 435 263 q 503 338 515 389 q 423 131 471 213 q 317 18 375 50 q 253 -73 297 -37 q 142 -108 208 -108 q 60 -95 101 -108 q -12 -58 19 -82 q -65 -2 -44 -35 q -85 69 -85 31 q -64 125 -85 106 q -10 144 -43 144 q 49 133 17 144 q 117 107 82 121 q 190 83 153 93 q 264 75 228 72 m 158 -33 q 238 -3 210 -33 q 166 11 201 -1 q 97 38 131 24 q 36 65 64 53 q -10 76 8 76 q -26 63 -26 76 q -12 31 -26 47 q 28 -1 3 14 q 86 -24 53 -15 q 158 -33 119 -33 z "},"t":{"ha":351,"x_min":-149,"x_max":390,"o":"m -131 676 q -96 668 -118 671 q -50 665 -74 665 q -19 667 -35 665 q 10 671 -4 668 q 44 853 22 790 q 94 915 67 915 q 115 894 106 915 q 124 814 124 872 q 122 760 124 789 q 114 697 119 732 q 163 708 138 704 q 215 713 188 713 q 288 695 267 713 q 308 654 308 678 q 299 628 308 639 q 279 614 290 617 q 243 631 264 625 q 190 638 222 638 q 145 635 167 638 q 103 626 124 632 q 86 541 96 588 q 63 440 76 494 q 70 250 61 328 q 94 123 79 172 q 127 51 108 74 q 164 29 146 29 q 199 44 181 29 q 239 100 217 60 q 288 210 261 140 q 351 389 315 281 q 378 338 390 389 q 322 153 350 229 q 265 28 294 76 q 208 -41 236 -19 q 153 -62 179 -62 q 93 -37 121 -62 q 44 45 65 -11 q 11 191 24 101 q -1 410 -1 281 q 0 512 -1 464 q 4 604 1 560 q -31 599 -12 601 q -69 597 -50 597 q -130 610 -111 597 q -149 644 -149 624 q -131 676 -149 667 z "},"u":{"ha":604,"x_min":-17,"x_max":643,"o":"m 604 389 q 631 338 643 389 q 577 156 603 229 q 526 40 551 83 q 472 -23 500 -4 q 413 -42 443 -42 q 334 -2 364 -42 q 289 96 304 38 q 212 -17 254 28 q 124 -62 169 -62 q 24 6 64 -62 q -17 215 -17 74 q 0 398 -17 307 q 40 547 17 489 q 93 597 61 597 q 119 590 108 597 q 98 528 108 567 q 79 444 88 490 q 66 347 71 397 q 61 250 61 297 q 69 149 61 190 q 88 81 76 107 q 113 42 99 54 q 143 29 128 29 q 205 67 172 29 q 274 188 238 104 q 272 215 272 201 q 272 243 272 229 q 281 338 272 292 q 304 421 290 385 q 335 479 318 457 q 367 501 351 501 q 393 460 393 501 q 378 351 393 419 q 338 211 364 283 q 367 87 340 126 q 425 47 393 47 q 458 60 442 47 q 496 111 475 74 q 543 215 517 149 q 604 389 569 282 z "},"v":{"ha":521,"x_min":-40,"x_max":560,"o":"m 147 38 q 184 60 165 38 q 219 117 203 82 q 250 197 236 153 q 272 285 264 240 q 247 428 247 343 q 263 533 247 494 q 297 571 278 571 q 326 541 314 571 q 339 431 339 511 q 326 299 339 367 q 363 263 342 275 q 406 250 385 250 q 434 256 419 250 q 463 276 449 261 q 492 319 478 292 q 521 389 507 346 q 547 338 560 389 q 518 261 536 292 q 480 212 500 231 q 439 185 460 193 q 400 178 418 178 q 311 222 349 178 q 278 115 297 167 q 238 25 260 64 q 190 -37 215 -14 q 138 -61 164 -61 q 60 -22 93 -61 q 4 80 26 18 q -29 215 -18 142 q -40 354 -40 288 q -27 453 -40 417 q 6 490 -14 490 q 38 417 38 490 q 25 317 38 375 q 47 188 33 240 q 78 101 61 135 q 113 53 94 68 q 147 38 131 38 z "},"w":{"ha":775,"x_min":-35,"x_max":814,"o":"m 53 467 q 47 410 53 446 q 28 328 40 374 q 38 200 28 253 q 63 114 47 147 q 99 65 79 81 q 139 50 119 50 q 197 84 168 50 q 240 176 226 118 q 232 301 232 232 q 250 438 232 389 q 288 486 268 486 q 313 459 303 486 q 322 379 322 432 q 318 303 322 340 q 307 228 314 265 q 350 76 317 132 q 421 21 383 21 q 454 37 438 21 q 485 81 471 53 q 511 150 500 110 q 526 239 522 190 q 505 313 513 271 q 497 411 497 356 q 511 534 497 493 q 544 575 525 575 q 578 519 564 575 q 593 368 593 463 q 592 314 593 342 q 586 256 590 286 q 647 229 613 229 q 678 235 663 229 q 710 258 694 240 q 742 306 726 275 q 775 389 758 338 q 801 338 814 389 q 769 249 788 283 q 728 193 750 214 q 685 165 707 172 q 642 157 663 157 q 574 178 604 157 q 549 84 564 129 q 515 4 535 39 q 468 -51 494 -31 q 408 -72 442 -72 q 326 -31 365 -72 q 263 85 288 10 q 200 -12 235 18 q 129 -42 165 -42 q 68 -20 97 -42 q 16 44 39 1 q -21 149 -7 86 q -35 296 -35 213 q -15 455 -35 399 q 29 511 4 511 q 53 467 53 511 z "},"x":{"ha":458,"x_min":-69,"x_max":497,"o":"m 251 35 q 290 47 269 35 q 336 97 311 60 q 391 204 361 135 q 458 389 421 274 q 485 338 497 389 q 374 40 435 135 q 242 -56 313 -56 q 163 -24 201 -56 q 92 61 124 8 q 56 -25 72 17 q 29 -107 40 -67 q 6 -215 10 -174 q 6 -278 1 -257 q -28 -296 -6 -296 q -69 -236 -69 -296 q -64 -183 -69 -214 q -44 -110 -58 -151 q -1 10 -26 -51 q 54 135 24 71 q 10 278 26 201 q -6 435 -6 356 q -4 463 -6 447 q 1 494 -3 479 q 11 520 4 510 q 29 531 18 531 q 51 506 44 531 q 51 435 58 482 q 65 322 54 376 q 94 219 76 267 q 184 402 140 315 q 256 556 228 489 q 271 597 265 579 q 279 632 276 615 q 304 640 289 640 q 324 633 315 640 q 332 608 332 625 q 314 536 332 585 q 231 358 283 461 q 128 144 179 256 q 188 65 156 94 q 251 35 221 35 z "},"y":{"ha":619,"x_min":-242,"x_max":557,"o":"m 118 -64 q 60 -50 86 -64 q 17 -6 35 -36 q -12 72 -1 24 q -22 188 -22 119 q -18 271 -22 226 q -6 359 -14 315 q 13 444 1 403 q 39 521 24 486 q 63 558 50 547 q 93 569 76 569 q 119 563 108 569 q 70 393 85 485 q 56 222 56 301 q 63 126 56 164 q 81 67 69 89 q 107 37 93 46 q 135 28 121 28 q 238 117 182 28 q 347 396 293 207 q 383 432 356 432 q 411 425 397 432 q 421 256 400 344 q 472 69 442 168 q 530 -138 503 -29 q 557 -368 557 -247 q 524 -560 557 -475 q 433 -706 492 -646 q 292 -799 374 -767 q 113 -832 210 -832 q -27 -808 38 -832 q -140 -747 -92 -785 q -215 -660 -187 -708 q -242 -562 -242 -612 q -226 -518 -242 -532 q -186 -511 -210 -504 q -161 -601 -186 -557 q -94 -678 -136 -644 q 4 -733 -51 -712 q 122 -753 60 -753 q 386 -657 290 -753 q 482 -386 482 -561 q 466 -209 482 -293 q 428 -48 450 -125 q 386 102 407 29 q 356 247 365 175 q 248 17 313 99 q 118 -64 183 -64 z "},"z":{"ha":481,"x_min":-29,"x_max":519,"o":"m 24 603 q 51 535 51 603 q 49 473 51 514 q 40 397 46 432 q 64 393 50 393 q 133 408 99 393 q 197 447 168 424 q 244 497 225 469 q 269 550 264 525 q 280 553 274 553 q 289 554 286 554 q 338 508 338 554 q 321 422 338 472 q 276 316 304 372 q 214 202 249 260 q 144 96 179 144 q 203 49 171 72 q 265 25 235 25 q 308 38 286 25 q 356 90 331 51 q 413 201 382 129 q 481 389 443 272 q 507 338 519 389 q 391 32 454 126 q 269 -62 328 -62 q 225 -52 247 -62 q 181 -26 203 -42 q 140 8 160 -11 q 104 44 121 28 q 79 15 92 29 q 56 -10 67 1 q 18 -39 35 -29 q -10 -49 1 -49 q -29 -24 -29 -49 q -17 25 -29 -3 q 15 78 -4 53 q 54 119 33 103 q 93 133 75 136 q 138 197 115 161 q 182 272 161 233 q 220 351 203 311 q 249 429 238 392 q 155 346 210 375 q 57 317 100 317 q -5 343 17 317 q -26 432 -26 369 q -10 555 -26 507 q 24 603 6 603 z "},"{":{"ha":526,"x_min":83,"x_max":424,"o":"m 278 376 q 231 467 278 438 q 158 454 197 454 q 103 465 122 454 q 83 489 83 475 q 106 519 83 506 q 179 532 129 532 q 235 525 207 532 q 271 618 271 554 q 256 701 271 656 q 224 798 242 746 q 191 909 206 850 q 176 1036 176 968 q 192 1146 176 1096 q 233 1232 207 1196 q 292 1288 258 1268 q 364 1308 326 1308 q 403 1294 392 1308 q 407 1261 414 1281 q 288 1197 328 1257 q 247 1049 247 1138 q 262 930 247 988 q 293 819 276 872 q 324 719 310 767 q 339 628 339 671 q 324 556 339 588 q 285 501 310 525 q 331 449 315 481 q 347 383 347 418 q 333 289 347 338 q 303 190 319 240 q 274 90 288 140 q 260 -10 260 39 q 301 -120 260 -87 q 406 -137 343 -153 q 407 -185 424 -161 q 336 -208 390 -208 q 276 -196 304 -208 q 227 -160 249 -183 q 193 -105 206 -137 q 181 -32 181 -72 q 196 78 181 22 q 229 187 211 133 q 263 288 247 240 q 278 376 278 336 z "},"|":{"ha":406,"x_min":139,"x_max":267,"o":"m 219 90 q 233 -115 219 -46 q 267 -217 247 -185 q 248 -237 260 -231 q 221 -244 236 -244 q 185 -228 201 -244 q 158 -168 169 -212 q 140 57 140 -92 q 143 208 140 125 q 150 382 146 292 q 159 566 154 472 q 168 749 164 660 q 175 917 172 838 q 178 1058 178 996 q 175 1169 178 1122 q 167 1248 172 1215 q 155 1303 163 1281 q 139 1342 147 1325 q 154 1360 144 1353 q 179 1367 164 1367 q 210 1356 196 1367 q 233 1317 224 1344 q 247 1240 242 1289 q 253 1115 253 1192 q 250 980 253 1057 q 244 815 247 903 q 236 632 240 726 q 228 443 232 538 q 222 258 225 349 q 219 90 219 168 z "},"}":{"ha":504,"x_min":104,"x_max":421,"o":"m 224 363 q 242 269 224 317 q 283 172 261 222 q 323 70 304 122 q 342 -36 342 18 q 297 -165 342 -119 q 185 -211 251 -211 q 120 -191 136 -211 q 119 -147 104 -171 q 229 -134 190 -158 q 268 -44 268 -110 q 250 53 268 3 q 210 155 232 104 q 169 256 188 206 q 151 353 151 307 q 170 433 151 393 q 225 500 189 472 q 184 555 199 522 q 169 628 169 588 q 186 724 169 671 q 224 834 203 776 q 261 951 244 892 q 278 1067 278 1010 q 235 1204 278 1154 q 114 1258 193 1254 q 119 1292 108 1278 q 161 1307 131 1307 q 224 1295 190 1307 q 285 1257 257 1283 q 331 1188 313 1231 q 349 1086 349 1146 q 331 958 349 1021 q 293 838 314 896 q 255 728 272 781 q 238 632 238 676 q 249 569 238 596 q 285 531 261 543 q 317 538 300 535 q 353 540 333 540 q 406 529 390 540 q 421 506 421 518 q 397 474 421 486 q 326 463 372 463 q 279 469 304 463 q 237 426 250 454 q 224 363 224 397 z "},"~":{"ha":724,"x_min":83,"x_max":640,"o":"m 583 561 q 626 563 611 576 q 640 524 640 549 q 607 456 640 485 q 515 426 574 426 q 437 442 474 426 q 365 475 400 457 q 293 508 329 493 q 218 524 257 524 q 158 497 176 524 q 143 432 139 469 q 101 430 119 419 q 83 469 83 440 q 94 514 83 492 q 124 553 104 536 q 171 581 143 571 q 233 592 199 592 q 315 576 278 592 q 388 541 353 560 q 456 506 422 522 q 528 490 490 490 q 574 508 557 490 q 583 561 590 526 z "},"":{"ha":0,"x_min":0,"x_max":0,"o":""},"":{"ha":392,"x_min":83,"x_max":281,"o":"m 119 597 q 122 649 121 626 q 126 692 124 672 q 131 731 128 713 q 140 769 135 750 q 188 814 153 814 q 218 800 207 814 q 205 717 211 764 q 196 621 199 671 q 197 439 192 525 q 207 272 201 353 q 217 111 213 190 q 218 -50 222 32 q 190 -190 215 -146 q 126 -232 164 -235 q 98 -219 110 -231 q 83 -189 86 -208 q 120 -135 106 -174 q 138 -39 135 -96 q 136 113 140 38 q 127 265 132 188 q 119 424 122 342 q 119 597 115 506 m 196 974 q 148 990 165 974 q 131 1032 131 1006 q 158 1085 131 1064 q 218 1107 185 1107 q 265 1092 249 1107 q 281 1049 281 1076 q 256 995 281 1017 q 196 974 232 974 z "},"":{"ha":1000,"x_min":42,"x_max":944,"o":"m 718 1071 q 768 1093 743 1093 q 794 1081 786 1093 q 800 1054 801 1069 q 744 1006 774 1036 q 689 938 715 975 q 640 858 663 900 q 606 774 618 815 q 663 782 635 779 q 718 785 690 785 q 818 775 779 785 q 878 749 857 765 q 908 714 900 733 q 915 675 915 694 q 897 615 915 643 q 848 567 879 588 q 775 534 817 546 q 686 522 733 522 q 561 563 607 522 q 511 672 515 603 q 372 611 440 649 q 248 525 303 574 q 158 418 193 476 q 122 296 124 360 q 186 145 119 199 q 385 81 253 92 q 431 103 406 103 q 458 79 454 103 q 579 97 513 81 q 707 142 646 114 q 815 207 768 171 q 875 285 861 243 q 891 294 882 290 q 910 297 900 297 q 944 253 944 297 q 923 200 944 228 q 864 144 901 172 q 776 90 826 115 q 667 44 725 64 q 545 13 608 25 q 419 1 482 1 l 418 1 q 356 -147 378 -78 q 332 -272 335 -215 q 339 -332 329 -310 q 300 -354 326 -354 q 263 -337 276 -354 q 249 -279 249 -319 q 255 -222 249 -254 q 273 -151 261 -189 q 301 -74 285 -114 q 338 6 317 -33 q 118 90 194 21 q 42 274 42 160 q 83 431 42 357 q 192 568 125 506 q 346 677 260 631 q 519 751 432 724 q 551 838 531 793 q 599 926 572 883 q 656 1007 625 969 q 718 1071 686 1044 m 710 710 q 653 706 682 710 q 593 696 624 703 l 593 690 q 623 619 594 646 q 710 593 651 592 q 753 599 732 593 q 792 615 775 606 q 819 635 808 624 q 829 658 829 646 q 806 694 829 678 q 710 710 782 710 z "},"":{"ha":932,"x_min":28,"x_max":893,"o":"m 151 347 q 238 322 178 322 q 301 327 268 322 q 369 339 335 332 q 294 383 342 361 q 199 431 246 404 q 119 490 153 457 q 85 571 85 524 q 126 663 85 615 q 240 748 167 710 q 411 811 313 786 q 626 836 510 836 q 777 806 729 836 q 825 731 825 775 q 799 664 825 694 q 735 611 774 633 q 654 576 697 589 q 578 564 611 564 q 535 580 546 564 q 538 615 524 596 q 606 624 571 614 q 671 649 642 633 q 718 683 700 665 q 736 715 736 700 q 708 753 736 740 q 608 767 679 767 q 431 748 511 767 q 292 701 350 729 q 201 640 233 674 q 169 576 169 606 q 204 517 169 544 q 287 465 239 490 q 383 415 335 440 q 460 360 432 390 q 551 377 506 369 q 638 385 596 385 q 717 369 690 385 q 743 329 743 353 q 706 285 743 294 q 664 306 689 301 q 614 311 639 311 q 550 306 582 311 q 483 294 518 301 q 463 244 481 271 q 420 191 446 218 q 361 139 394 164 q 292 92 328 114 q 381 67 336 81 q 472 42 426 54 q 563 21 517 29 q 658 13 610 13 q 769 43 729 13 q 808 110 808 74 q 800 140 808 125 q 842 164 815 164 q 879 148 865 164 q 893 104 893 132 q 875 39 893 68 q 826 -12 857 10 q 751 -45 794 -33 q 658 -57 708 -57 q 526 -44 588 -57 q 408 -13 464 -31 q 302 21 353 4 q 203 46 251 38 q 135 22 167 31 q 76 13 103 13 q 40 22 51 13 q 28 43 28 31 q 65 88 28 67 q 163 108 101 108 q 172 108 167 108 q 179 107 176 107 l 186 107 q 323 190 269 144 q 392 274 376 236 q 302 256 347 263 q 213 249 257 249 q 139 265 164 249 q 114 307 114 282 q 123 333 114 321 q 151 347 132 344 z "},"":{"ha":1336,"x_min":42,"x_max":1225,"o":"m 1128 33 q 1095 49 1113 42 q 1054 60 1078 56 q 883 -74 997 -25 q 615 -124 768 -124 q 422 -83 490 -124 q 353 18 353 -42 q 403 126 353 75 q 541 215 453 176 q 749 276 629 253 q 1008 299 868 299 q 970 418 993 357 q 932 546 947 479 q 847 439 896 488 q 744 354 799 390 q 633 298 690 318 q 524 278 576 278 q 407 311 449 278 q 365 408 365 344 q 386 501 365 456 q 433 590 407 547 q 479 672 458 633 q 500 744 500 711 q 478 785 500 769 q 408 800 457 800 q 294 785 347 800 q 203 749 242 771 q 142 701 164 726 q 119 654 119 676 q 137 628 119 639 q 186 617 154 617 q 271 631 226 617 q 343 668 315 644 q 363 663 356 669 q 371 647 371 657 q 346 607 371 625 q 265 568 314 583 q 167 553 215 553 q 77 574 113 553 q 42 636 42 596 q 74 717 42 678 q 159 788 106 757 q 282 839 213 819 q 426 858 351 858 q 541 833 506 858 q 576 763 576 807 q 556 678 576 721 q 512 594 536 636 q 467 510 488 551 q 447 428 447 468 q 473 370 447 388 q 542 353 499 353 q 637 374 585 353 q 741 433 689 394 q 839 524 793 471 q 917 642 885 576 q 915 661 915 651 q 915 681 915 671 q 936 794 915 749 q 981 839 957 839 q 1008 786 1008 839 q 1001 713 1008 750 q 981 642 993 676 q 998 561 985 604 q 1028 474 1011 518 q 1060 384 1044 429 q 1088 296 1076 339 q 1137 288 1113 293 q 1181 276 1161 283 q 1213 256 1200 268 q 1225 226 1225 243 q 1213 201 1225 211 q 1186 188 1201 190 q 1100 219 1157 210 q 1097 171 1100 194 q 1088 128 1094 147 q 1144 105 1124 119 q 1165 71 1165 90 q 1154 46 1165 56 q 1128 33 1143 36 m 1014 139 q 1021 228 1029 179 l 994 228 q 765 211 868 228 q 588 167 661 194 q 476 104 515 139 q 436 35 436 69 q 447 2 436 18 q 481 -26 457 -14 q 543 -45 504 -37 q 640 -53 582 -53 q 838 -19 750 -53 q 974 69 925 14 l 960 69 q 945 70 953 69 q 928 71 938 71 q 854 66 888 71 q 797 54 821 61 q 776 82 776 64 q 817 123 776 106 q 964 140 858 140 q 981 140 972 140 q 997 139 990 139 l 1014 139 l 1014 139 z "},"":{"ha":406,"x_min":139,"x_max":267,"o":"m 160 697 q 169 889 160 797 q 178 1078 178 981 q 175 1179 178 1136 q 167 1253 172 1222 q 155 1305 163 1283 q 139 1342 147 1326 q 154 1360 144 1353 q 179 1367 164 1367 q 210 1356 196 1367 q 233 1317 224 1344 q 247 1240 242 1289 q 253 1115 253 1192 q 251 1041 253 1085 q 245 947 249 997 q 238 846 242 897 q 233 749 235 794 q 233 670 232 704 q 238 621 233 636 q 207 607 226 607 q 173 627 186 607 q 160 697 160 647 m 156 386 q 153 444 156 419 q 143 492 150 468 q 160 512 149 504 q 183 519 171 519 q 231 417 231 519 q 225 239 231 325 q 219 76 219 153 q 232 -115 219 -47 q 267 -217 244 -183 q 248 -237 260 -231 q 221 -244 236 -244 q 189 -232 204 -244 q 163 -190 174 -219 q 147 -114 153 -161 q 140 3 140 -67 q 148 196 140 96 q 156 386 156 296 z "},"":{"ha":1021,"x_min":21,"x_max":979,"o":"m 68 443 q 106 553 68 499 q 217 643 144 607 q 136 724 158 685 q 114 807 114 764 q 155 914 114 861 q 268 1010 196 967 q 440 1079 340 1053 q 654 1106 539 1106 q 850 1065 781 1106 q 919 968 919 1025 q 894 892 919 929 q 827 826 869 856 q 726 780 785 797 q 601 763 668 763 q 526 777 553 763 q 500 813 500 792 q 508 833 500 824 q 529 843 515 842 q 565 829 543 833 q 610 825 586 825 q 694 835 653 825 q 766 864 735 846 q 816 906 797 882 q 835 954 835 929 q 789 1009 835 985 q 636 1033 743 1033 q 458 1013 539 1033 q 320 961 378 993 q 231 891 263 929 q 199 817 199 853 q 217 757 199 786 q 276 697 235 728 q 386 630 318 665 q 553 551 454 594 q 751 458 669 500 q 883 378 832 417 q 956 299 933 339 q 979 214 979 260 q 938 99 978 151 q 829 15 897 47 q 856 -28 846 -6 q 865 -75 865 -50 q 833 -176 865 -128 q 740 -260 801 -224 q 590 -317 679 -296 q 388 -339 501 -339 q 233 -324 301 -339 q 118 -284 165 -310 q 46 -224 71 -258 q 21 -151 21 -190 q 47 -78 21 -112 q 115 -19 72 -44 q 211 22 157 7 q 321 36 265 36 q 379 26 363 36 q 396 1 396 17 q 386 -21 396 -11 q 226 -37 294 -17 q 124 -93 158 -58 q 106 -117 113 -104 q 100 -142 100 -131 q 119 -187 100 -165 q 176 -228 139 -210 q 267 -256 213 -246 q 390 -267 321 -267 q 563 -251 489 -267 q 685 -211 636 -236 q 758 -153 733 -186 q 782 -83 782 -119 q 751 -17 782 -47 q 671 42 721 14 q 556 98 621 71 q 425 153 492 125 q 294 212 358 182 q 179 277 229 242 q 99 353 129 313 q 68 443 68 394 m 151 457 q 185 378 151 414 q 272 310 218 342 q 393 249 325 278 q 531 190 461 219 q 665 129 600 160 q 778 63 731 99 q 860 123 826 85 q 893 203 893 161 q 874 267 893 236 q 813 332 856 299 q 698 402 769 365 q 522 483 626 439 q 281 601 371 549 q 183 535 215 576 q 151 457 151 493 z "},"":{"ha":357,"x_min":42,"x_max":315,"o":"m 99 813 q 135 797 121 813 q 149 754 149 781 q 132 708 149 726 q 92 690 115 690 q 57 706 72 690 q 42 747 42 721 q 58 794 42 775 q 99 813 75 813 m 265 814 q 302 797 289 814 q 315 754 315 781 q 299 708 315 726 q 258 689 283 689 q 223 704 238 689 q 208 747 208 719 q 224 794 208 775 q 265 814 240 814 z "},"":{"ha":1317,"x_min":125,"x_max":1192,"o":"m 793 1117 q 954 1081 881 1117 q 1081 979 1028 1046 q 1163 816 1133 913 q 1192 597 1192 719 q 1144 326 1192 453 q 1014 106 1096 200 q 824 -44 932 11 q 594 -99 715 -99 q 409 -62 494 -99 q 260 42 324 -26 q 161 211 197 111 q 125 439 125 311 q 154 635 125 536 q 236 822 183 735 q 364 978 289 910 q 529 1085 439 1047 q 605 1102 578 1104 q 636 1085 632 1100 q 709 1108 669 1100 q 793 1117 749 1117 m 553 932 q 524 938 536 929 q 513 961 513 946 q 523 994 513 976 q 558 1036 533 1013 q 412 937 478 1000 q 299 795 346 874 q 227 629 253 717 q 201 457 201 542 q 233 253 201 343 q 319 101 264 164 q 449 6 374 39 q 610 -26 524 -26 q 811 25 719 -26 q 969 161 903 76 q 1074 356 1036 246 q 1111 585 1111 467 q 1087 776 1111 692 q 1019 919 1063 861 q 914 1009 975 978 q 781 1040 853 1040 q 641 1010 694 1040 q 553 932 588 981 m 899 438 q 881 356 899 401 q 829 272 863 311 q 749 207 796 233 q 647 181 703 181 q 559 201 599 181 q 490 257 519 221 q 445 344 461 293 q 429 458 429 396 q 452 603 429 535 q 513 724 475 672 q 598 807 550 776 q 697 838 646 838 q 760 822 735 838 q 801 779 786 807 q 846 808 824 808 q 872 783 868 808 q 847 751 860 771 q 822 711 833 732 q 824 694 824 703 q 825 678 825 686 q 817 611 825 643 q 797 554 810 579 q 769 515 785 529 q 739 500 754 500 q 715 515 726 500 q 704 568 704 529 q 717 647 704 604 q 756 721 731 689 q 693 763 736 763 q 617 740 651 763 q 557 679 582 718 q 517 588 532 640 q 503 478 503 536 q 549 318 503 372 q 661 264 594 264 q 785 317 732 264 q 861 464 838 371 q 888 463 876 469 q 899 438 899 457 z "},"":{"ha":500,"x_min":42,"x_max":471,"o":"m 461 640 q 459 594 471 617 q 419 572 447 572 q 372 597 394 572 q 336 685 349 621 q 264 592 307 628 q 174 556 221 556 q 79 606 117 556 q 42 761 42 657 q 61 892 42 831 q 113 1000 81 954 q 185 1073 144 1046 q 268 1100 225 1100 q 341 1074 313 1100 q 374 1001 369 1047 q 404 928 404 999 q 397 863 404 897 q 379 792 390 828 q 410 679 386 718 q 461 640 433 640 m 329 908 q 313 915 319 910 q 309 995 324 963 q 254 1028 294 1028 q 197 1008 224 1028 q 150 953 169 988 q 119 876 131 919 q 107 785 107 832 q 128 673 107 713 q 189 633 150 633 q 264 678 225 633 q 326 800 303 722 q 326 858 325 832 q 329 908 326 885 z "},"":{"ha":556,"x_min":56,"x_max":444,"o":"m 269 260 q 235 290 249 279 q 222 321 222 301 q 231 342 222 333 q 278 376 253 351 q 326 430 304 400 q 363 491 349 460 q 378 546 378 522 q 406 556 389 556 q 444 511 444 556 q 406 419 444 474 q 292 314 368 365 q 406 208 368 263 q 444 117 444 154 q 406 72 444 72 q 378 82 389 72 q 351 161 378 111 q 269 260 324 211 m 103 260 q 69 290 82 279 q 56 321 56 301 q 64 342 56 333 q 110 374 86 351 q 155 423 135 396 q 188 479 175 450 q 201 532 201 508 q 229 542 213 542 q 268 497 268 542 q 234 412 268 460 q 125 314 200 364 q 234 215 200 263 q 268 131 268 168 q 229 86 268 86 q 201 96 213 86 q 179 168 201 125 q 103 260 157 211 z "},"":{"ha":664,"x_min":42,"x_max":622,"o":"m 401 1138 q 566 1082 510 1138 q 622 939 622 1026 q 595 818 622 874 q 522 722 568 763 q 415 659 476 682 q 288 636 354 636 q 184 653 229 636 q 107 700 139 671 q 58 769 75 729 q 42 853 42 808 q 62 952 42 906 q 116 1034 82 999 q 194 1092 150 1069 q 288 1121 239 1115 q 335 1133 306 1128 q 401 1138 364 1138 m 304 1069 q 226 1048 263 1065 q 163 1004 189 1031 q 121 943 136 978 q 106 868 106 908 q 158 740 106 788 q 306 693 210 693 q 402 709 357 693 q 481 755 447 725 q 535 826 515 785 q 556 921 556 868 q 510 1045 557 1001 q 378 1089 464 1089 q 348 1088 363 1089 q 318 1083 333 1086 q 304 1069 315 1074 m 433 764 q 358 790 400 764 q 281 861 317 815 q 286 819 282 838 q 301 793 290 801 q 290 772 300 781 q 267 763 281 763 q 235 781 247 763 q 224 849 224 799 q 226 897 224 871 q 233 947 228 924 q 217 935 224 940 q 206 924 210 931 q 181 944 181 921 q 195 974 181 958 q 234 1001 210 989 q 288 1022 258 1014 q 349 1031 318 1031 q 376 1027 361 1031 q 404 1016 392 1024 q 425 995 417 1008 q 433 964 433 982 q 408 910 433 936 q 343 872 383 885 q 419 829 382 840 q 472 822 456 818 q 479 801 479 813 q 467 775 479 786 q 433 764 456 764 m 331 976 q 290 971 311 976 q 284 933 286 953 q 281 894 282 914 q 344 920 321 901 q 368 956 368 939 q 361 969 368 961 q 331 976 354 976 z "},"":{"ha":415,"x_min":42,"x_max":374,"o":"m 61 782 q 122 767 85 772 q 201 761 160 761 q 293 767 253 761 q 360 783 333 774 q 374 754 374 774 q 329 706 374 724 q 186 688 285 688 q 42 747 42 688 q 61 782 42 771 z "},"":{"ha":492,"x_min":28,"x_max":464,"o":"m 28 783 q 38 844 28 814 q 64 899 47 874 q 103 942 81 924 q 150 969 125 961 q 189 1013 154 993 q 283 1033 224 1033 q 415 986 367 1033 q 464 861 464 939 q 442 763 464 807 q 385 686 421 718 q 303 637 350 654 q 204 619 256 619 q 78 663 129 619 q 28 783 28 706 m 250 964 q 210 957 231 964 q 207 938 211 947 q 129 886 154 924 q 104 804 104 849 q 136 717 104 747 q 224 686 168 686 q 284 697 254 686 q 337 729 314 708 q 374 779 360 750 q 388 843 388 808 q 352 929 388 893 q 250 964 317 965 z "},"":{"ha":731,"x_min":28,"x_max":699,"o":"m 576 917 q 544 1001 576 967 q 431 1036 513 1036 q 302 1015 361 1036 q 199 962 243 994 q 129 890 154 929 q 104 815 104 851 q 125 767 104 783 q 182 751 146 751 q 229 758 204 751 q 278 776 254 764 q 322 803 301 788 q 356 839 342 819 q 378 838 368 843 q 391 821 388 832 q 390 796 394 810 q 374 768 386 782 q 280 704 336 728 q 165 681 224 681 q 63 714 99 681 q 28 794 28 747 q 61 904 28 849 q 151 1004 94 960 q 285 1076 208 1049 q 449 1104 361 1104 q 608 1057 556 1104 q 661 925 661 1010 q 630 796 661 864 q 549 663 599 728 q 434 540 499 597 q 303 444 369 483 q 413 411 358 428 q 528 394 467 394 q 608 411 572 394 q 660 460 643 428 q 681 456 672 461 q 694 441 690 451 q 696 415 699 431 q 681 382 693 400 q 615 333 657 350 q 517 315 572 315 q 436 325 475 315 q 361 348 397 335 q 289 376 325 361 q 215 404 253 392 q 119 386 167 386 q 64 397 83 386 q 44 428 44 408 q 69 464 44 451 q 133 476 93 476 q 171 474 153 476 q 208 469 189 472 q 338 546 272 494 q 456 660 403 597 q 542 791 508 724 q 576 917 576 858 z "},"":{"ha":788,"x_min":42,"x_max":746,"o":"m 42 442 q 63 513 42 478 q 124 576 85 549 q 219 622 164 604 q 340 639 274 639 q 460 613 422 639 q 499 556 499 588 q 477 522 499 532 q 436 517 456 511 q 401 553 429 539 q 324 567 372 567 q 238 556 275 567 q 175 530 200 546 q 137 494 150 514 q 124 456 124 475 q 161 402 124 422 q 285 382 199 382 q 422 403 354 382 q 541 459 489 425 q 625 537 593 493 q 657 625 657 581 q 610 703 657 668 q 458 738 564 738 q 415 735 438 738 q 374 731 393 733 q 288 697 322 706 q 233 688 254 688 q 203 713 203 688 q 240 757 203 733 q 356 793 276 781 q 493 885 447 833 q 539 978 539 936 q 515 1024 539 1004 q 422 1043 492 1043 q 307 1029 360 1043 q 216 994 254 1015 q 156 948 178 972 q 133 903 133 924 q 181 869 133 869 q 238 880 210 869 q 283 906 265 890 q 303 899 296 907 q 311 881 311 892 q 278 833 311 853 q 224 810 254 818 q 163 803 193 803 q 84 826 111 803 q 57 886 57 850 q 87 965 57 925 q 169 1038 117 1006 q 291 1092 221 1071 q 442 1113 361 1113 q 581 1079 538 1113 q 624 992 624 1046 q 588 895 624 946 q 486 801 551 844 q 683 751 621 799 q 746 631 746 703 q 707 519 746 575 q 602 417 668 463 q 449 342 536 371 q 264 314 361 314 q 99 349 156 314 q 42 442 42 385 z "},"":{"ha":344,"x_min":42,"x_max":307,"o":"m 60 740 q 115 752 85 740 q 174 783 144 764 q 227 826 203 803 q 267 872 251 849 q 301 858 294 878 q 292 811 307 838 q 256 765 279 789 q 203 720 232 740 q 142 687 174 700 q 83 674 111 674 q 53 683 65 674 q 42 710 42 693 q 46 726 42 718 q 60 740 50 735 z "},"":{"ha":968,"x_min":56,"x_max":914,"o":"m 868 892 q 789 954 840 929 q 807 749 789 846 q 846 565 825 651 q 884 399 867 478 q 901 249 901 321 q 874 108 901 172 q 793 -3 846 43 q 663 -76 740 -50 q 486 -101 586 -101 q 372 -88 425 -101 q 278 -53 318 -75 q 215 -3 239 -32 q 192 58 192 26 q 210 95 192 82 q 251 101 228 108 q 278 54 258 76 q 330 14 299 32 q 403 -15 361 -4 q 496 -25 446 -25 q 736 45 651 -25 q 821 242 821 115 q 802 397 819 313 q 764 574 785 481 q 726 765 743 667 q 708 963 708 864 l 708 983 q 641 997 676 992 q 569 1001 606 1001 q 380 971 461 1001 q 245 892 299 940 q 165 785 192 844 q 138 667 138 725 q 160 565 138 610 q 224 487 183 519 q 318 437 264 454 q 433 419 372 419 q 562 438 513 419 q 647 493 611 457 q 667 480 661 490 q 673 456 674 469 q 664 426 672 442 q 639 397 656 410 q 551 355 606 369 q 431 340 497 340 q 281 365 350 340 q 163 431 213 389 q 84 531 113 474 q 56 656 56 589 q 93 812 56 736 q 199 946 131 888 q 363 1039 267 1004 q 574 1074 458 1074 q 721 1058 651 1074 q 760 1138 735 1108 q 817 1167 786 1167 q 842 1156 833 1167 q 853 1131 851 1146 q 817 1091 832 1115 q 796 1036 803 1067 q 881 989 851 1014 q 908 953 901 971 q 910 922 914 936 q 894 900 906 908 q 868 892 882 892 z "},"":{"ha":318,"x_min":83,"x_max":207,"o":"m 149 431 q 192 412 176 431 q 207 363 207 393 q 188 310 207 331 q 142 289 169 289 q 101 307 118 289 q 83 356 83 325 q 102 409 83 388 q 149 431 121 431 z "},"":{"ha":319,"x_min":42,"x_max":278,"o":"m 225 0 q 175 -58 190 -33 q 160 -97 160 -83 q 178 -120 160 -111 q 219 -140 197 -129 q 259 -166 240 -150 q 278 -210 278 -182 q 239 -285 278 -254 q 143 -315 200 -315 q 107 -310 125 -315 q 74 -296 89 -306 q 51 -272 60 -286 q 42 -240 42 -258 q 56 -208 42 -219 q 94 -200 71 -197 q 113 -240 96 -225 q 156 -256 131 -256 q 195 -245 182 -256 q 208 -219 208 -235 q 190 -192 208 -203 q 149 -170 171 -181 q 109 -147 128 -160 q 90 -115 90 -135 q 112 -60 90 -93 q 171 0 133 -28 l 225 0 z "},"":{"ha":403,"x_min":0,"x_max":361,"o":"m 57 689 q 15 703 29 689 q 0 742 0 718 q 8 768 0 754 q 31 786 17 782 q 68 772 44 772 q 140 803 97 772 q 239 917 182 835 q 285 1049 258 996 q 342 1101 311 1101 q 361 1075 361 1101 q 347 1012 361 1051 q 306 929 333 972 q 285 783 290 858 q 279 636 279 707 q 296 447 279 514 q 331 365 313 379 q 314 335 328 347 q 281 324 300 324 q 248 336 263 324 q 223 379 233 349 q 207 459 213 410 q 201 583 201 508 q 206 693 201 636 q 218 806 210 750 q 131 715 169 740 q 57 689 92 689 z "},"":{"ha":474,"x_min":42,"x_max":432,"o":"m 42 775 q 65 907 42 843 q 74 979 63 944 q 107 1041 85 1014 q 160 1084 129 1068 q 226 1100 190 1100 q 312 1078 274 1100 q 377 1017 350 1056 q 418 926 404 978 q 432 815 432 875 q 417 714 432 761 q 374 631 401 667 q 307 576 346 596 q 221 556 268 556 q 92 611 143 556 q 42 775 42 667 m 106 821 q 113 734 103 771 q 141 674 122 697 q 185 638 160 650 q 238 626 210 626 q 334 675 296 626 q 372 800 372 724 q 360 894 372 851 q 326 967 347 938 q 277 1014 306 997 q 217 1031 249 1031 q 171 1022 190 1031 q 139 1001 151 1014 q 165 982 158 999 q 141 947 151 967 q 124 907 131 928 q 163 865 135 878 q 229 861 192 853 q 233 846 233 854 q 217 813 233 826 q 172 799 200 799 q 106 821 132 799 z "},"":{"ha":556,"x_min":56,"x_max":444,"o":"m 231 260 q 149 161 176 211 q 122 82 122 111 q 94 72 111 72 q 56 117 56 72 q 94 208 56 154 q 208 314 132 263 q 94 419 132 365 q 56 511 56 474 q 94 556 56 556 q 122 546 111 556 q 137 491 122 522 q 174 430 151 460 q 222 376 196 400 q 269 342 247 351 q 278 321 278 333 q 265 290 278 301 q 231 260 251 279 m 397 260 q 321 168 343 211 q 299 96 299 125 q 271 86 288 86 q 232 131 232 86 q 265 215 232 168 q 375 314 299 263 q 265 412 299 364 q 232 497 232 460 q 271 542 232 542 q 299 532 288 542 q 312 479 299 508 q 345 423 325 450 q 390 374 365 396 q 436 342 414 351 q 444 321 444 333 q 431 290 444 301 q 397 260 418 279 z "},"":{"ha":1210,"x_min":0,"x_max":1196,"o":"m 1108 696 q 1090 615 1099 663 q 1076 511 1082 568 q 1065 390 1069 454 q 1061 261 1061 326 q 1127 250 1101 257 q 1168 233 1153 243 q 1190 213 1183 224 q 1196 192 1196 203 q 1178 155 1196 167 q 1132 146 1160 143 q 1113 164 1128 154 q 1061 181 1097 174 q 1080 15 1065 68 q 1110 -53 1094 -39 q 1094 -83 1107 -72 q 1061 -93 1081 -93 q 1028 -82 1043 -93 q 1003 -40 1014 -71 q 985 45 992 -10 q 979 189 979 100 q 954 190 967 190 q 926 190 942 190 q 748 181 831 190 q 578 151 665 171 q 521 158 538 142 q 511 207 504 174 q 622 317 574 261 q 702 422 669 372 q 752 513 735 471 q 769 582 769 554 q 766 607 769 596 q 753 625 763 618 q 774 658 757 644 q 811 671 790 671 q 861 610 861 671 q 842 522 861 571 q 790 422 822 474 q 714 321 757 371 q 622 229 671 271 q 788 256 700 247 q 958 265 875 265 l 979 265 q 985 374 981 317 q 995 485 989 431 q 1010 586 1001 539 q 1028 667 1018 633 q 1082 719 1043 719 q 1108 696 1106 719 m 760 1078 q 781 1101 767 1093 q 811 1110 796 1110 q 846 1093 832 1110 q 860 1047 860 1076 q 848 972 860 1011 q 803 870 836 932 q 711 717 769 808 q 560 485 653 625 q 423 274 478 361 q 335 124 368 186 q 288 19 301 61 q 274 -56 274 -24 q 281 -89 274 -75 q 263 -110 275 -101 q 232 -119 251 -119 q 197 -104 211 -119 q 182 -57 182 -89 q 195 8 182 -31 q 244 110 208 46 q 341 274 279 175 q 500 519 403 372 q 695 835 622 706 q 768 1039 768 965 q 760 1078 768 1061 m 57 689 q 15 703 29 689 q 0 742 0 718 q 8 768 0 754 q 31 786 17 782 q 68 772 44 772 q 140 803 97 772 q 239 917 182 835 q 285 1049 258 996 q 342 1101 311 1101 q 361 1075 361 1101 q 347 1012 361 1051 q 306 929 333 972 q 285 783 290 858 q 279 636 279 707 q 296 447 279 514 q 331 365 313 379 q 314 335 328 347 q 281 324 300 324 q 248 336 263 324 q 223 379 233 349 q 207 459 213 410 q 201 583 201 508 q 206 693 201 636 q 218 806 210 750 q 131 715 169 740 q 57 689 92 689 z "},"":{"ha":1329,"x_min":0,"x_max":1288,"o":"m 1165 501 q 1133 586 1165 551 q 1019 621 1101 621 q 891 600 950 621 q 788 547 832 579 q 718 475 743 514 q 693 400 693 436 q 714 352 693 368 q 771 336 735 336 q 818 342 793 336 q 867 360 843 349 q 910 388 890 372 q 944 424 931 404 q 967 422 957 428 q 980 406 976 417 q 979 381 983 394 q 963 353 975 367 q 869 289 925 313 q 754 265 813 265 q 652 299 688 265 q 617 379 617 332 q 650 489 617 433 q 740 589 683 544 q 874 661 797 633 q 1038 689 950 689 q 1197 642 1144 689 q 1250 510 1250 594 q 1219 381 1250 449 q 1138 247 1188 313 q 1023 125 1088 182 q 892 29 958 68 q 1001 -4 947 13 q 1117 -21 1056 -21 q 1197 -4 1161 -21 q 1249 44 1232 13 q 1270 41 1261 46 q 1283 26 1279 36 q 1285 0 1288 15 q 1269 -33 1282 -15 q 1203 -83 1246 -65 q 1106 -100 1161 -100 q 1025 -90 1064 -100 q 950 -67 986 -81 q 878 -37 914 -53 q 804 -11 842 -22 q 755 -24 779 -19 q 708 -29 731 -29 q 653 -18 672 -29 q 633 13 633 -7 q 658 49 633 36 q 722 61 682 61 q 760 59 742 61 q 797 54 778 57 q 926 131 861 79 q 1044 245 992 182 q 1131 376 1097 308 q 1165 501 1165 443 m 760 1078 q 781 1101 767 1093 q 811 1110 796 1110 q 846 1093 832 1110 q 860 1047 860 1076 q 848 972 860 1011 q 803 870 836 932 q 711 717 769 808 q 560 485 653 625 q 423 274 478 361 q 335 124 368 186 q 288 19 301 61 q 274 -56 274 -24 q 281 -89 274 -75 q 263 -110 275 -101 q 232 -119 251 -119 q 197 -104 211 -119 q 182 -57 182 -89 q 195 8 182 -31 q 244 110 208 46 q 341 274 279 175 q 500 519 403 372 q 695 835 622 706 q 768 1039 768 965 q 760 1078 768 1061 m 57 689 q 15 703 29 689 q 0 742 0 718 q 8 768 0 754 q 31 786 17 782 q 68 772 44 772 q 140 803 97 772 q 239 917 182 835 q 285 1049 258 996 q 342 1101 311 1101 q 361 1075 361 1101 q 347 1012 361 1051 q 306 929 333 972 q 285 783 290 858 q 279 636 279 707 q 296 447 279 514 q 331 365 313 379 q 314 335 328 347 q 281 324 300 324 q 248 336 263 324 q 223 379 233 349 q 207 459 213 410 q 201 583 201 508 q 206 693 201 636 q 218 806 210 750 q 131 715 169 740 q 57 689 92 689 z "},"":{"ha":1511,"x_min":42,"x_max":1497,"o":"m 42 442 q 63 513 42 478 q 124 576 85 549 q 219 622 164 604 q 340 639 274 639 q 460 613 422 639 q 499 556 499 588 q 477 522 499 532 q 436 517 456 511 q 401 553 429 539 q 324 567 372 567 q 238 556 275 567 q 175 530 200 546 q 137 494 150 514 q 124 456 124 475 q 161 402 124 422 q 285 382 199 382 q 422 403 354 382 q 541 459 489 425 q 625 537 593 493 q 657 625 657 581 q 610 703 657 668 q 458 738 564 738 q 415 735 438 738 q 374 731 393 733 q 288 697 322 706 q 233 688 254 688 q 203 713 203 688 q 240 757 203 733 q 356 793 276 781 q 493 885 447 833 q 539 978 539 936 q 515 1024 539 1004 q 422 1043 492 1043 q 307 1029 360 1043 q 216 994 254 1015 q 156 948 178 972 q 133 903 133 924 q 181 869 133 869 q 238 880 210 869 q 283 906 265 890 q 303 899 296 907 q 311 881 311 892 q 278 833 311 853 q 224 810 254 818 q 163 803 193 803 q 84 826 111 803 q 57 886 57 850 q 87 965 57 925 q 169 1038 117 1006 q 291 1092 221 1071 q 442 1113 361 1113 q 581 1079 538 1113 q 624 992 624 1046 q 588 895 624 946 q 486 801 551 844 q 683 751 621 799 q 746 631 746 703 q 707 519 746 575 q 602 417 668 463 q 449 342 536 371 q 264 314 361 314 q 99 349 156 314 q 42 442 42 385 m 1410 696 q 1392 615 1400 663 q 1377 511 1383 568 q 1367 390 1371 454 q 1363 261 1363 326 q 1428 250 1403 257 q 1469 233 1454 243 q 1491 213 1485 224 q 1497 192 1497 203 q 1479 155 1497 167 q 1433 146 1461 143 q 1414 164 1429 154 q 1363 181 1399 174 q 1381 15 1367 68 q 1411 -53 1396 -39 q 1395 -83 1408 -72 q 1363 -93 1382 -93 q 1330 -82 1344 -93 q 1304 -40 1315 -71 q 1287 45 1293 -10 q 1281 189 1281 100 q 1256 190 1268 190 q 1228 190 1243 190 q 1049 181 1132 190 q 879 151 967 171 q 822 158 839 142 q 813 207 806 174 q 923 317 875 261 q 1003 422 971 372 q 1053 513 1036 471 q 1071 582 1071 554 q 1067 607 1071 596 q 1054 625 1064 618 q 1075 658 1058 644 q 1113 671 1092 671 q 1163 610 1163 671 q 1143 522 1163 571 q 1091 422 1124 474 q 1015 321 1058 371 q 924 229 972 271 q 1089 256 1001 247 q 1260 265 1176 265 l 1281 265 q 1286 374 1282 317 q 1297 485 1290 431 q 1311 586 1303 539 q 1329 667 1319 633 q 1383 719 1344 719 q 1410 696 1407 719 m 1061 1078 q 1083 1101 1068 1093 q 1113 1110 1097 1110 q 1147 1093 1133 1110 q 1161 1047 1161 1076 q 1149 972 1161 1011 q 1104 870 1138 932 q 1013 717 1071 808 q 861 485 954 625 q 724 274 779 361 q 636 124 669 186 q 589 19 603 61 q 575 -56 575 -24 q 582 -89 575 -75 q 565 -110 576 -101 q 533 -119 553 -119 q 498 -104 513 -119 q 483 -57 483 -89 q 497 8 483 -31 q 545 110 510 46 q 642 274 581 175 q 801 519 704 372 q 997 835 924 706 q 1069 1039 1069 965 q 1061 1078 1069 1061 z "},"":{"ha":1285,"x_min":0,"x_max":1146,"o":"m 547 90 q 526 95 536 89 q 511 115 515 101 q 513 147 507 128 q 539 190 518 167 q 619 263 574 231 q 717 316 665 294 q 822 349 768 338 q 926 360 875 360 q 1087 316 1028 360 q 1146 190 1146 272 q 1093 24 1146 104 q 945 -117 1040 -56 q 719 -215 850 -178 q 431 -253 588 -253 q 243 -232 324 -253 q 108 -176 163 -211 q 27 -92 54 -140 q 0 10 0 -44 q 35 131 0 76 q 128 231 71 185 q 258 315 185 276 q 409 390 332 354 q 560 461 486 426 q 690 534 633 496 q 783 615 747 572 q 818 707 818 657 q 808 747 818 731 q 776 769 797 763 q 788 812 774 796 q 828 828 803 828 q 889 800 864 828 q 914 726 914 772 q 878 615 914 665 q 785 521 843 564 q 651 440 726 478 q 499 365 576 401 q 347 290 422 328 q 214 211 272 253 q 120 122 156 169 q 85 15 85 74 q 106 -62 85 -25 q 170 -126 126 -99 q 281 -171 214 -154 q 439 -187 347 -187 q 717 -152 599 -187 q 912 -62 835 -117 q 1027 55 989 -8 q 1065 172 1065 118 q 1024 260 1065 232 q 911 289 983 289 q 803 274 858 289 q 698 233 747 260 q 608 170 649 207 q 547 90 568 133 m 797 979 q 750 994 767 979 q 733 1032 733 1008 q 761 1086 733 1064 q 824 1108 789 1108 q 889 1054 889 1108 q 863 1002 889 1025 q 797 979 838 979 z "},"":{"ha":1519,"x_min":-108,"x_max":1558,"o":"m 744 281 q 682 293 703 281 q 661 326 661 306 q 679 358 661 349 q 714 350 692 353 q 760 347 736 347 l 776 347 q 899 741 850 532 q 971 1160 949 950 q 1017 1444 951 1444 q 1053 1390 1043 1444 q 1050 1204 1064 1335 q 1089 801 1061 1010 q 1157 401 1117 592 q 1181 403 1168 403 q 1204 404 1193 404 q 1305 387 1276 404 q 1333 347 1333 369 q 1324 321 1333 332 q 1304 307 1315 310 q 1258 324 1292 318 q 1179 331 1224 331 l 1172 331 q 1208 199 1189 258 q 1247 98 1226 140 q 1288 32 1267 56 q 1329 8 1308 8 q 1364 22 1347 8 q 1402 77 1381 36 q 1451 192 1424 118 q 1519 389 1479 267 q 1546 338 1558 389 q 1489 140 1517 221 q 1433 10 1461 60 q 1377 -61 1406 -39 q 1318 -83 1349 -83 q 1258 -64 1288 -83 q 1201 3 1229 -44 q 1146 128 1172 50 q 1094 321 1119 206 q 1094 323 1094 322 q 1093 325 1093 324 q 958 305 1029 318 q 824 285 888 292 q 690 8 763 129 q 537 -196 618 -112 q 367 -322 456 -279 q 185 -365 278 -365 q 69 -340 122 -365 q -24 -267 15 -314 q -86 -156 -64 -221 q -108 -11 -108 -90 q -78 199 -108 92 q 3 405 -49 306 q 123 592 54 504 q 269 744 192 679 q 430 847 347 810 q 592 885 513 885 q 713 835 669 885 q 757 694 757 786 q 722 521 757 608 q 629 363 686 433 q 501 247 572 292 q 358 203 429 203 q 260 239 296 203 q 224 344 224 275 q 251 472 224 406 q 342 590 279 539 q 384 606 365 610 q 406 583 403 603 q 362 540 382 565 q 327 487 342 515 q 304 431 313 458 q 296 378 296 403 q 318 308 296 329 q 381 286 340 286 q 486 322 432 286 q 584 414 540 358 q 656 536 628 469 q 683 663 683 603 q 653 766 683 732 q 571 800 624 800 q 440 767 508 800 q 303 675 371 733 q 174 539 236 617 q 66 374 113 461 q -8 192 19 286 q -36 7 -36 97 q -18 -119 -36 -65 q 33 -207 0 -172 q 108 -259 65 -242 q 201 -276 151 -276 q 358 -235 282 -276 q 504 -119 435 -193 q 635 57 574 -46 q 749 281 696 160 l 744 281 l 744 281 m 1079 392 q 1031 676 1051 531 q 1001 965 1011 822 q 935 639 974 792 q 850 354 897 486 q 963 372 904 361 q 1079 392 1021 383 m 904 1811 q 940 1745 917 1775 q 993 1692 964 1715 q 1056 1653 1022 1668 q 1122 1633 1089 1638 q 1131 1614 1131 1625 q 1119 1590 1131 1599 q 1088 1581 1108 1581 q 1008 1599 1050 1581 q 931 1647 967 1618 q 872 1712 896 1676 q 849 1781 849 1747 q 858 1807 849 1796 q 882 1818 867 1818 q 904 1811 894 1818 z "},"":{"ha":1519,"x_min":-108,"x_max":1558,"o":"m 744 281 q 682 293 703 281 q 661 326 661 306 q 679 358 661 349 q 714 350 692 353 q 760 347 736 347 l 776 347 q 899 741 850 532 q 971 1160 949 950 q 1017 1444 951 1444 q 1053 1390 1043 1444 q 1050 1204 1064 1335 q 1089 801 1061 1010 q 1157 401 1117 592 q 1181 403 1168 403 q 1204 404 1193 404 q 1305 387 1276 404 q 1333 347 1333 369 q 1324 321 1333 332 q 1304 307 1315 310 q 1258 324 1292 318 q 1179 331 1224 331 l 1172 331 q 1208 199 1189 258 q 1247 98 1226 140 q 1288 32 1267 56 q 1329 8 1308 8 q 1364 22 1347 8 q 1402 77 1381 36 q 1451 192 1424 118 q 1519 389 1479 267 q 1546 338 1558 389 q 1489 140 1517 221 q 1433 10 1461 60 q 1377 -61 1406 -39 q 1318 -83 1349 -83 q 1258 -64 1288 -83 q 1201 3 1229 -44 q 1146 128 1172 50 q 1094 321 1119 206 q 1094 323 1094 322 q 1093 325 1093 324 q 958 305 1029 318 q 824 285 888 292 q 690 8 763 129 q 537 -196 618 -112 q 367 -322 456 -279 q 185 -365 278 -365 q 69 -340 122 -365 q -24 -267 15 -314 q -86 -156 -64 -221 q -108 -11 -108 -90 q -78 199 -108 92 q 3 405 -49 306 q 123 592 54 504 q 269 744 192 679 q 430 847 347 810 q 592 885 513 885 q 713 835 669 885 q 757 694 757 786 q 722 521 757 608 q 629 363 686 433 q 501 247 572 292 q 358 203 429 203 q 260 239 296 203 q 224 344 224 275 q 251 472 224 406 q 342 590 279 539 q 384 606 365 610 q 406 583 403 603 q 362 540 382 565 q 327 487 342 515 q 304 431 313 458 q 296 378 296 403 q 318 308 296 329 q 381 286 340 286 q 486 322 432 286 q 584 414 540 358 q 656 536 628 469 q 683 663 683 603 q 653 766 683 732 q 571 800 624 800 q 440 767 508 800 q 303 675 371 733 q 174 539 236 617 q 66 374 113 461 q -8 192 19 286 q -36 7 -36 97 q -18 -119 -36 -65 q 33 -207 0 -172 q 108 -259 65 -242 q 201 -276 151 -276 q 358 -235 282 -276 q 504 -119 435 -193 q 635 57 574 -46 q 749 281 696 160 l 744 281 l 744 281 m 1079 392 q 1031 676 1051 531 q 1001 965 1011 822 q 935 639 974 792 q 850 354 897 486 q 963 372 904 361 q 1079 392 1021 383 m 940 1614 q 1010 1628 974 1617 q 1078 1660 1046 1640 q 1138 1705 1111 1679 q 1182 1760 1165 1731 q 1210 1760 1197 1765 q 1222 1732 1222 1754 q 1198 1677 1222 1708 q 1136 1617 1174 1646 q 1053 1569 1099 1589 q 964 1549 1007 1549 q 934 1558 946 1549 q 922 1583 922 1567 q 926 1600 922 1592 q 940 1614 931 1608 z "},"":{"ha":1519,"x_min":-108,"x_max":1558,"o":"m 744 281 q 682 293 703 281 q 661 326 661 306 q 679 358 661 349 q 714 350 692 353 q 760 347 736 347 l 776 347 q 899 741 850 532 q 971 1160 949 950 q 1017 1444 951 1444 q 1053 1390 1043 1444 q 1050 1204 1064 1335 q 1089 801 1061 1010 q 1157 401 1117 592 q 1181 403 1168 403 q 1204 404 1193 404 q 1305 387 1276 404 q 1333 347 1333 369 q 1324 321 1333 332 q 1304 307 1315 310 q 1258 324 1292 318 q 1179 331 1224 331 l 1172 331 q 1208 199 1189 258 q 1247 98 1226 140 q 1288 32 1267 56 q 1329 8 1308 8 q 1364 22 1347 8 q 1402 77 1381 36 q 1451 192 1424 118 q 1519 389 1479 267 q 1546 338 1558 389 q 1489 140 1517 221 q 1433 10 1461 60 q 1377 -61 1406 -39 q 1318 -83 1349 -83 q 1258 -64 1288 -83 q 1201 3 1229 -44 q 1146 128 1172 50 q 1094 321 1119 206 q 1094 323 1094 322 q 1093 325 1093 324 q 958 305 1029 318 q 824 285 888 292 q 690 8 763 129 q 537 -196 618 -112 q 367 -322 456 -279 q 185 -365 278 -365 q 69 -340 122 -365 q -24 -267 15 -314 q -86 -156 -64 -221 q -108 -11 -108 -90 q -78 199 -108 92 q 3 405 -49 306 q 123 592 54 504 q 269 744 192 679 q 430 847 347 810 q 592 885 513 885 q 713 835 669 885 q 757 694 757 786 q 722 521 757 608 q 629 363 686 433 q 501 247 572 292 q 358 203 429 203 q 260 239 296 203 q 224 344 224 275 q 251 472 224 406 q 342 590 279 539 q 384 606 365 610 q 406 583 403 603 q 362 540 382 565 q 327 487 342 515 q 304 431 313 458 q 296 378 296 403 q 318 308 296 329 q 381 286 340 286 q 486 322 432 286 q 584 414 540 358 q 656 536 628 469 q 683 663 683 603 q 653 766 683 732 q 571 800 624 800 q 440 767 508 800 q 303 675 371 733 q 174 539 236 617 q 66 374 113 461 q -8 192 19 286 q -36 7 -36 97 q -18 -119 -36 -65 q 33 -207 0 -172 q 108 -259 65 -242 q 201 -276 151 -276 q 358 -235 282 -276 q 504 -119 435 -193 q 635 57 574 -46 q 749 281 696 160 l 744 281 l 744 281 m 1079 392 q 1031 676 1051 531 q 1001 965 1011 822 q 935 639 974 792 q 850 354 897 486 q 963 372 904 361 q 1079 392 1021 383 m 1189 1521 q 1147 1531 1169 1521 q 1101 1560 1124 1542 q 1057 1605 1078 1579 q 1022 1661 1036 1631 q 991 1613 1010 1638 q 951 1569 972 1589 q 905 1535 929 1549 q 858 1522 881 1522 q 824 1539 835 1522 q 819 1578 813 1556 q 858 1588 836 1578 q 903 1615 881 1597 q 949 1658 926 1632 q 988 1718 971 1685 q 1005 1742 996 1736 q 1025 1747 1014 1747 q 1053 1738 1042 1747 q 1092 1671 1069 1700 q 1138 1621 1114 1642 q 1187 1589 1163 1600 q 1231 1578 1211 1578 q 1227 1539 1238 1557 q 1189 1521 1217 1521 z "},"":{"ha":1519,"x_min":-108,"x_max":1558,"o":"m 744 281 q 682 293 703 281 q 661 326 661 306 q 679 358 661 349 q 714 350 692 353 q 760 347 736 347 l 776 347 q 899 741 850 532 q 971 1160 949 950 q 1017 1444 951 1444 q 1053 1390 1043 1444 q 1050 1204 1064 1335 q 1089 801 1061 1010 q 1157 401 1117 592 q 1181 403 1168 403 q 1204 404 1193 404 q 1305 387 1276 404 q 1333 347 1333 369 q 1324 321 1333 332 q 1304 307 1315 310 q 1258 324 1292 318 q 1179 331 1224 331 l 1172 331 q 1208 199 1189 258 q 1247 98 1226 140 q 1288 32 1267 56 q 1329 8 1308 8 q 1364 22 1347 8 q 1402 77 1381 36 q 1451 192 1424 118 q 1519 389 1479 267 q 1546 338 1558 389 q 1489 140 1517 221 q 1433 10 1461 60 q 1377 -61 1406 -39 q 1318 -83 1349 -83 q 1258 -64 1288 -83 q 1201 3 1229 -44 q 1146 128 1172 50 q 1094 321 1119 206 q 1094 323 1094 322 q 1093 325 1093 324 q 958 305 1029 318 q 824 285 888 292 q 690 8 763 129 q 537 -196 618 -112 q 367 -322 456 -279 q 185 -365 278 -365 q 69 -340 122 -365 q -24 -267 15 -314 q -86 -156 -64 -221 q -108 -11 -108 -90 q -78 199 -108 92 q 3 405 -49 306 q 123 592 54 504 q 269 744 192 679 q 430 847 347 810 q 592 885 513 885 q 713 835 669 885 q 757 694 757 786 q 722 521 757 608 q 629 363 686 433 q 501 247 572 292 q 358 203 429 203 q 260 239 296 203 q 224 344 224 275 q 251 472 224 406 q 342 590 279 539 q 384 606 365 610 q 406 583 403 603 q 362 540 382 565 q 327 487 342 515 q 304 431 313 458 q 296 378 296 403 q 318 308 296 329 q 381 286 340 286 q 486 322 432 286 q 584 414 540 358 q 656 536 628 469 q 683 663 683 603 q 653 766 683 732 q 571 800 624 800 q 440 767 508 800 q 303 675 371 733 q 174 539 236 617 q 66 374 113 461 q -8 192 19 286 q -36 7 -36 97 q -18 -119 -36 -65 q 33 -207 0 -172 q 108 -259 65 -242 q 201 -276 151 -276 q 358 -235 282 -276 q 504 -119 435 -193 q 635 57 574 -46 q 749 281 696 160 l 744 281 l 744 281 m 1079 392 q 1031 676 1051 531 q 1001 965 1011 822 q 935 639 974 792 q 850 354 897 486 q 963 372 904 361 q 1079 392 1021 383 m 888 1571 q 849 1575 864 1563 q 835 1615 835 1588 q 864 1682 835 1653 q 938 1711 893 1711 q 986 1700 964 1711 q 1028 1676 1008 1689 q 1067 1653 1047 1664 q 1110 1642 1088 1642 q 1148 1660 1132 1642 q 1164 1717 1164 1678 q 1197 1713 1183 1724 q 1211 1679 1211 1703 q 1182 1602 1211 1635 q 1107 1569 1153 1569 q 1056 1581 1079 1569 q 1010 1604 1032 1592 q 971 1628 989 1617 q 936 1639 953 1639 q 897 1619 910 1639 q 888 1571 885 1599 z "},"":{"ha":1519,"x_min":-108,"x_max":1558,"o":"m 744 281 q 682 293 703 281 q 661 326 661 306 q 679 358 661 349 q 714 350 692 353 q 760 347 736 347 l 776 347 q 899 741 850 532 q 971 1160 949 950 q 1017 1444 951 1444 q 1053 1390 1043 1444 q 1050 1204 1064 1335 q 1089 801 1061 1010 q 1157 401 1117 592 q 1181 403 1168 403 q 1204 404 1193 404 q 1305 387 1276 404 q 1333 347 1333 369 q 1324 321 1333 332 q 1304 307 1315 310 q 1258 324 1292 318 q 1179 331 1224 331 l 1172 331 q 1208 199 1189 258 q 1247 98 1226 140 q 1288 32 1267 56 q 1329 8 1308 8 q 1364 22 1347 8 q 1402 77 1381 36 q 1451 192 1424 118 q 1519 389 1479 267 q 1546 338 1558 389 q 1489 140 1517 221 q 1433 10 1461 60 q 1377 -61 1406 -39 q 1318 -83 1349 -83 q 1258 -64 1288 -83 q 1201 3 1229 -44 q 1146 128 1172 50 q 1094 321 1119 206 q 1094 323 1094 322 q 1093 325 1093 324 q 958 305 1029 318 q 824 285 888 292 q 690 8 763 129 q 537 -196 618 -112 q 367 -322 456 -279 q 185 -365 278 -365 q 69 -340 122 -365 q -24 -267 15 -314 q -86 -156 -64 -221 q -108 -11 -108 -90 q -78 199 -108 92 q 3 405 -49 306 q 123 592 54 504 q 269 744 192 679 q 430 847 347 810 q 592 885 513 885 q 713 835 669 885 q 757 694 757 786 q 722 521 757 608 q 629 363 686 433 q 501 247 572 292 q 358 203 429 203 q 260 239 296 203 q 224 344 224 275 q 251 472 224 406 q 342 590 279 539 q 384 606 365 610 q 406 583 403 603 q 362 540 382 565 q 327 487 342 515 q 304 431 313 458 q 296 378 296 403 q 318 308 296 329 q 381 286 340 286 q 486 322 432 286 q 584 414 540 358 q 656 536 628 469 q 683 663 683 603 q 653 766 683 732 q 571 800 624 800 q 440 767 508 800 q 303 675 371 733 q 174 539 236 617 q 66 374 113 461 q -8 192 19 286 q -36 7 -36 97 q -18 -119 -36 -65 q 33 -207 0 -172 q 108 -259 65 -242 q 201 -276 151 -276 q 358 -235 282 -276 q 504 -119 435 -193 q 635 57 574 -46 q 749 281 696 160 l 744 281 l 744 281 m 1079 392 q 1031 676 1051 531 q 1001 965 1011 822 q 935 639 974 792 q 850 354 897 486 q 963 372 904 361 q 1079 392 1021 383 m 938 1693 q 974 1677 960 1693 q 988 1635 988 1661 q 971 1589 988 1607 q 931 1571 954 1571 q 896 1586 911 1571 q 881 1628 881 1601 q 897 1674 881 1656 q 938 1693 914 1693 m 1132 1694 q 1169 1678 1156 1694 q 1182 1635 1182 1661 q 1166 1588 1182 1607 q 1125 1569 1150 1569 q 1090 1585 1104 1569 q 1075 1628 1075 1600 q 1091 1675 1075 1656 q 1132 1694 1107 1694 z "},"":{"ha":1524,"x_min":-108,"x_max":1558,"o":"m 744 281 q 682 293 703 281 q 661 326 661 306 q 679 358 661 349 q 714 350 692 353 q 760 347 736 347 l 776 347 q 899 741 850 532 q 971 1160 949 950 q 1017 1444 951 1444 q 1053 1390 1043 1444 q 1050 1204 1064 1335 q 1089 801 1061 1010 q 1157 401 1117 592 q 1181 403 1168 403 q 1204 404 1193 404 q 1305 387 1276 404 q 1333 347 1333 369 q 1324 321 1333 332 q 1304 307 1315 310 q 1258 324 1292 318 q 1179 331 1224 331 l 1172 331 q 1208 199 1189 258 q 1247 98 1226 140 q 1288 32 1267 56 q 1329 8 1308 8 q 1364 22 1347 8 q 1402 77 1381 36 q 1451 192 1424 118 q 1519 389 1479 267 q 1546 338 1558 389 q 1489 140 1517 221 q 1433 10 1461 60 q 1377 -61 1406 -39 q 1318 -83 1349 -83 q 1258 -64 1288 -83 q 1201 3 1229 -44 q 1146 128 1172 50 q 1094 321 1119 206 q 1094 323 1094 322 q 1093 325 1093 324 q 958 305 1029 318 q 824 285 888 292 q 690 8 763 129 q 537 -196 618 -112 q 367 -322 456 -279 q 185 -365 278 -365 q 69 -340 122 -365 q -24 -267 15 -314 q -86 -156 -64 -221 q -108 -11 -108 -90 q -78 199 -108 92 q 3 405 -49 306 q 123 592 54 504 q 269 744 192 679 q 430 847 347 810 q 592 885 513 885 q 713 835 669 885 q 757 694 757 786 q 722 521 757 608 q 629 363 686 433 q 501 247 572 292 q 358 203 429 203 q 260 239 296 203 q 224 344 224 275 q 251 472 224 406 q 342 590 279 539 q 384 606 365 610 q 406 583 403 603 q 362 540 382 565 q 327 487 342 515 q 304 431 313 458 q 296 378 296 403 q 318 308 296 329 q 381 286 340 286 q 486 322 432 286 q 584 414 540 358 q 656 536 628 469 q 683 663 683 603 q 653 766 683 732 q 571 800 624 800 q 440 767 508 800 q 303 675 371 733 q 174 539 236 617 q 66 374 113 461 q -8 192 19 286 q -36 7 -36 97 q -18 -119 -36 -65 q 33 -207 0 -172 q 108 -259 65 -242 q 201 -276 151 -276 q 358 -235 282 -276 q 504 -119 435 -193 q 635 57 574 -46 q 749 281 696 160 l 744 281 l 744 281 m 1079 392 q 1031 676 1051 531 q 1001 965 1011 822 q 935 639 974 792 q 850 354 897 486 q 963 372 904 361 q 1079 392 1021 383 m 889 1679 q 897 1725 889 1704 q 917 1760 904 1746 q 943 1784 929 1775 q 969 1796 957 1793 q 997 1826 975 1813 q 1054 1840 1018 1840 q 1140 1808 1108 1840 q 1171 1725 1171 1776 q 1158 1663 1171 1692 q 1124 1613 1146 1633 q 1072 1579 1101 1592 q 1008 1567 1042 1567 q 924 1597 960 1567 q 889 1679 889 1626 m 1038 1776 q 981 1753 1004 1776 q 958 1697 958 1729 q 977 1644 958 1661 q 1025 1628 996 1628 q 1078 1649 1054 1628 q 1101 1708 1101 1671 q 1085 1757 1101 1738 q 1038 1776 1069 1776 z "},"":{"ha":3096,"x_min":0,"x_max":3140,"o":"m 2204 -208 q 2078 -203 2136 -208 q 1972 -189 2021 -199 q 1844 -308 1922 -264 q 1676 -353 1765 -353 q 1516 -315 1593 -353 q 1373 -197 1439 -278 q 1253 13 1307 -115 q 1160 322 1199 140 q 1026 303 1096 315 q 893 285 957 292 q 631 -112 781 18 q 308 -242 482 -242 q 187 -217 243 -242 q 89 -147 131 -193 q 24 -36 47 -101 q 0 113 0 29 q 24 306 0 211 q 88 484 47 400 q 185 638 129 568 q 308 758 242 708 q 449 837 375 808 q 597 865 522 865 q 738 812 689 865 q 786 667 786 758 q 749 490 786 579 q 653 328 713 400 q 522 210 594 256 q 379 164 450 164 q 281 200 317 164 q 244 306 244 236 q 272 433 244 367 q 363 551 300 500 q 405 567 386 571 q 426 544 424 564 q 383 501 403 526 q 348 448 363 476 q 325 392 333 419 q 317 339 317 364 q 339 269 317 290 q 401 247 361 247 q 506 282 451 247 q 608 373 561 317 q 684 500 654 429 q 714 644 714 571 q 681 747 714 710 q 578 785 647 785 q 399 732 489 785 q 237 590 310 679 q 118 381 164 500 q 72 131 72 263 q 92 4 72 58 q 147 -87 113 -50 q 226 -142 181 -124 q 321 -160 271 -160 q 467 -128 397 -160 q 598 -40 536 -97 q 715 99 660 18 q 815 281 769 181 l 810 281 q 747 293 768 281 q 726 326 726 306 q 744 358 726 349 q 779 350 757 353 q 825 347 801 347 l 844 347 q 965 729 917 521 q 1036 1161 1013 938 q 1033 1219 1033 1192 q 1033 1271 1033 1247 q 1046 1410 1033 1363 q 1083 1458 1058 1458 q 1124 1326 1124 1458 q 1122 1268 1124 1300 q 1117 1200 1119 1236 q 1130 1022 1121 1119 q 1151 819 1139 925 q 1181 606 1164 714 q 1219 399 1199 499 q 1245 401 1233 400 q 1269 401 1257 401 q 1370 384 1342 401 q 1399 344 1399 367 q 1390 318 1399 329 q 1369 304 1381 307 q 1323 322 1357 315 q 1244 328 1289 328 l 1236 328 q 1325 42 1275 157 q 1433 -142 1375 -72 q 1554 -242 1490 -212 q 1686 -272 1618 -272 q 1806 -245 1750 -272 q 1903 -171 1863 -218 q 1740 -74 1792 -135 q 1688 65 1688 -12 q 1741 217 1688 143 q 1894 349 1794 292 q 1646 397 1754 361 q 1464 486 1538 432 q 1353 612 1390 540 q 1315 767 1315 683 q 1386 990 1315 876 q 1591 1196 1457 1103 q 1918 1349 1725 1289 q 2354 1410 2111 1408 q 2624 1385 2507 1411 q 2822 1313 2742 1358 q 2942 1207 2901 1268 q 2983 1076 2983 1146 q 2928 919 2983 993 q 2779 789 2872 844 q 2567 701 2686 733 q 2321 668 2447 668 q 2156 684 2226 668 q 2037 728 2085 700 q 1965 792 1989 756 q 1940 869 1940 828 q 1967 952 1940 910 q 2043 1028 1993 994 q 2166 1085 2093 1063 q 2333 1107 2239 1107 q 2433 1099 2386 1107 q 2516 1078 2481 1092 q 2572 1048 2551 1065 q 2593 1013 2593 1031 q 2578 981 2593 993 q 2539 972 2563 969 q 2467 1017 2524 997 q 2324 1038 2410 1038 q 2188 1023 2244 1038 q 2094 985 2131 1008 q 2039 933 2057 961 q 2021 876 2021 904 q 2042 821 2021 847 q 2104 774 2064 794 q 2202 743 2144 754 q 2332 732 2260 732 q 2554 760 2450 732 q 2735 835 2658 788 q 2857 944 2813 882 q 2901 1075 2901 1007 q 2866 1171 2901 1124 q 2762 1256 2831 1218 q 2593 1317 2693 1293 q 2364 1340 2493 1340 q 1964 1290 2142 1340 q 1661 1158 1786 1239 q 1469 976 1536 1078 q 1403 774 1403 875 q 1442 633 1403 699 q 1558 517 1481 567 q 1751 438 1635 468 q 2021 406 1867 408 q 2173 443 2092 429 q 2347 458 2254 457 q 2424 448 2401 458 q 2446 424 2446 438 q 2345 366 2446 389 q 2042 343 2244 343 l 2024 343 q 1920 289 1965 321 q 1843 222 1875 257 q 1794 149 1811 186 q 1778 78 1778 111 q 1818 -24 1778 24 q 1949 -99 1858 -71 q 1981 43 1981 -32 q 1979 76 1981 60 q 1975 107 1978 92 q 1999 115 1985 115 q 2039 29 2039 115 q 2011 -114 2039 -46 q 2218 -129 2100 -131 q 2522 -87 2378 -126 q 2781 22 2665 -47 q 2978 184 2897 90 q 3096 389 3060 278 q 3128 338 3140 389 q 3057 185 3106 257 q 2939 53 3008 113 q 2783 -56 2869 -7 q 2601 -137 2696 -104 q 2404 -190 2506 -171 q 2204 -208 2303 -208 m 919 354 q 1031 372 974 361 q 1146 390 1089 382 q 1121 531 1133 457 q 1099 679 1108 604 q 1081 826 1089 754 q 1068 964 1072 899 q 1003 631 1040 782 q 919 354 967 481 z "},"":{"ha":1653,"x_min":76,"x_max":1697,"o":"m 638 -428 q 658 -473 639 -456 q 708 -490 676 -490 q 756 -478 740 -490 q 772 -447 772 -465 q 751 -415 772 -428 q 703 -389 729 -401 q 655 -362 676 -376 q 633 -324 633 -347 q 653 -269 633 -301 q 701 -207 672 -236 q 449 -159 564 -200 q 252 -46 335 -118 q 123 129 169 26 q 76 363 76 232 q 124 623 76 494 q 256 868 172 751 q 452 1084 339 985 q 696 1256 565 1183 q 969 1369 826 1328 q 1253 1410 1111 1410 q 1426 1390 1354 1410 q 1541 1333 1497 1369 q 1605 1245 1585 1296 q 1625 1132 1625 1194 q 1592 974 1625 1056 q 1504 814 1560 892 q 1374 665 1449 736 q 1217 542 1300 594 q 1047 458 1135 489 q 878 426 960 426 q 708 481 767 426 q 650 626 650 535 q 669 738 650 681 q 722 848 689 794 q 797 949 754 901 q 889 1031 840 996 q 988 1087 938 1067 q 1085 1107 1038 1107 q 1186 1065 1154 1107 q 1218 956 1218 1022 q 1198 840 1218 894 q 1146 745 1178 786 q 1074 681 1114 704 q 993 657 1033 657 q 907 701 935 657 q 879 817 879 744 q 885 877 879 846 q 901 938 890 908 q 841 876 869 910 q 792 806 813 843 q 758 730 771 768 q 746 656 746 692 q 785 547 746 581 q 904 514 825 514 q 1046 540 972 514 q 1190 611 1119 567 q 1323 715 1260 656 q 1434 842 1386 775 q 1510 981 1482 910 q 1538 1121 1538 1053 q 1522 1207 1538 1168 q 1472 1274 1506 1246 q 1386 1317 1439 1301 q 1260 1333 1333 1333 q 990 1294 1124 1333 q 734 1188 856 1256 q 508 1029 613 1121 q 328 831 404 938 q 208 610 251 725 q 165 379 165 494 q 206 176 165 268 q 323 17 246 83 q 513 -86 400 -49 q 774 -124 626 -124 q 821 -103 796 -106 q 849 -121 846 -101 q 1128 -71 996 -112 q 1365 38 1260 -29 q 1544 195 1469 106 q 1653 389 1619 285 q 1685 338 1697 389 q 1615 186 1664 257 q 1499 56 1567 115 q 1347 -52 1432 -4 q 1169 -134 1263 -100 q 976 -187 1075 -168 q 778 -207 876 -206 q 729 -265 744 -239 q 714 -307 714 -292 q 735 -333 714 -322 q 782 -356 757 -343 q 828 -386 807 -368 q 850 -436 850 -404 q 808 -520 850 -483 q 694 -557 767 -557 q 612 -532 646 -557 q 578 -471 578 -507 q 593 -434 578 -447 q 638 -428 608 -421 m 1061 1013 q 976 989 1021 1013 q 955 926 961 957 q 949 864 949 894 q 967 783 949 807 q 1011 758 986 758 q 1055 771 1033 758 q 1094 806 1076 783 q 1124 858 1113 828 q 1135 924 1135 889 q 1115 990 1135 968 q 1061 1013 1096 1013 z "},"":{"ha":1756,"x_min":-125,"x_max":1800,"o":"m -37 774 q 7 631 -37 697 q 140 514 51 564 q 358 435 228 464 q 658 406 488 406 q 826 443 736 429 q 1021 458 917 457 q 1106 448 1082 458 q 1131 424 1131 438 q 1019 366 1131 389 q 682 343 907 343 l 650 343 q 538 290 588 321 q 452 223 488 258 q 397 150 417 188 q 378 78 378 113 q 407 -3 378 36 q 497 -70 436 -42 q 651 -115 557 -99 q 878 -129 746 -132 q 1181 -87 1038 -126 q 1441 22 1325 -47 q 1638 184 1557 90 q 1756 389 1719 278 q 1788 338 1800 389 q 1717 185 1767 257 q 1599 53 1668 113 q 1442 -56 1529 -7 q 1260 -137 1356 -104 q 1064 -190 1165 -171 q 864 -208 963 -208 q 607 -189 715 -210 q 428 -132 499 -168 q 323 -45 357 -96 q 289 65 289 6 q 348 217 289 143 q 518 349 407 292 q 242 397 363 361 q 41 486 122 432 q -83 612 -40 540 q -125 767 -125 683 q -46 990 -125 876 q 182 1196 33 1103 q 544 1349 331 1289 q 1029 1410 758 1408 q 1329 1385 1199 1411 q 1548 1313 1460 1358 q 1682 1207 1636 1268 q 1728 1076 1728 1146 q 1699 969 1728 1021 q 1621 872 1671 917 q 1501 789 1571 826 q 1350 724 1432 751 q 1177 683 1268 697 q 992 668 1086 668 q 808 684 888 668 q 676 728 729 700 q 596 792 622 756 q 569 869 569 828 q 599 952 569 910 q 683 1028 628 994 q 820 1085 739 1063 q 1006 1107 901 1107 q 1115 1099 1064 1107 q 1206 1078 1167 1092 q 1267 1048 1244 1065 q 1289 1013 1289 1031 q 1274 981 1289 993 q 1235 972 1260 969 q 1156 1017 1218 997 q 994 1038 1093 1038 q 839 1023 904 1038 q 732 985 774 1008 q 670 933 690 961 q 650 876 650 904 q 674 821 650 847 q 744 774 699 794 q 856 743 790 754 q 1004 732 921 732 q 1258 760 1140 732 q 1461 835 1375 788 q 1597 944 1547 882 q 1646 1075 1646 1007 q 1606 1171 1646 1124 q 1488 1256 1565 1218 q 1299 1317 1411 1293 q 1040 1340 1186 1340 q 589 1290 789 1340 q 250 1158 389 1239 q 37 976 111 1078 q -37 774 -37 875 m 871 1751 q 907 1685 883 1715 q 960 1632 931 1656 q 1022 1593 989 1608 q 1089 1574 1056 1578 q 1097 1554 1097 1565 q 1086 1530 1097 1539 q 1054 1521 1075 1521 q 975 1540 1017 1521 q 898 1588 933 1558 q 839 1652 863 1617 q 815 1721 815 1688 q 824 1747 815 1736 q 849 1758 833 1758 q 871 1751 861 1758 z "},"":{"ha":1756,"x_min":-125,"x_max":1800,"o":"m -37 774 q 7 631 -37 697 q 140 514 51 564 q 358 435 228 464 q 658 406 488 406 q 826 443 736 429 q 1021 458 917 457 q 1106 448 1082 458 q 1131 424 1131 438 q 1019 366 1131 389 q 682 343 907 343 l 650 343 q 538 290 588 321 q 452 223 488 258 q 397 150 417 188 q 378 78 378 113 q 407 -3 378 36 q 497 -70 436 -42 q 651 -115 557 -99 q 878 -129 746 -132 q 1181 -87 1038 -126 q 1441 22 1325 -47 q 1638 184 1557 90 q 1756 389 1719 278 q 1788 338 1800 389 q 1717 185 1767 257 q 1599 53 1668 113 q 1442 -56 1529 -7 q 1260 -137 1356 -104 q 1064 -190 1165 -171 q 864 -208 963 -208 q 607 -189 715 -210 q 428 -132 499 -168 q 323 -45 357 -96 q 289 65 289 6 q 348 217 289 143 q 518 349 407 292 q 242 397 363 361 q 41 486 122 432 q -83 612 -40 540 q -125 767 -125 683 q -46 990 -125 876 q 182 1196 33 1103 q 544 1349 331 1289 q 1029 1410 758 1408 q 1329 1385 1199 1411 q 1548 1313 1460 1358 q 1682 1207 1636 1268 q 1728 1076 1728 1146 q 1699 969 1728 1021 q 1621 872 1671 917 q 1501 789 1571 826 q 1350 724 1432 751 q 1177 683 1268 697 q 992 668 1086 668 q 808 684 888 668 q 676 728 729 700 q 596 792 622 756 q 569 869 569 828 q 599 952 569 910 q 683 1028 628 994 q 820 1085 739 1063 q 1006 1107 901 1107 q 1115 1099 1064 1107 q 1206 1078 1167 1092 q 1267 1048 1244 1065 q 1289 1013 1289 1031 q 1274 981 1289 993 q 1235 972 1260 969 q 1156 1017 1218 997 q 994 1038 1093 1038 q 839 1023 904 1038 q 732 985 774 1008 q 670 933 690 961 q 650 876 650 904 q 674 821 650 847 q 744 774 699 794 q 856 743 790 754 q 1004 732 921 732 q 1258 760 1140 732 q 1461 835 1375 788 q 1597 944 1547 882 q 1646 1075 1646 1007 q 1606 1171 1646 1124 q 1488 1256 1565 1218 q 1299 1317 1411 1293 q 1040 1340 1186 1340 q 589 1290 789 1340 q 250 1158 389 1239 q 37 976 111 1078 q -37 774 -37 875 m 888 1586 q 957 1601 921 1589 q 1026 1632 993 1613 q 1085 1677 1058 1651 q 1129 1732 1113 1703 q 1157 1732 1144 1738 q 1169 1704 1169 1726 q 1145 1649 1169 1681 q 1083 1590 1121 1618 q 1000 1541 1046 1561 q 911 1521 954 1521 q 881 1530 893 1521 q 869 1556 869 1539 q 874 1572 869 1564 q 888 1586 878 1581 z "},"":{"ha":1756,"x_min":-125,"x_max":1800,"o":"m -37 774 q 7 631 -37 697 q 140 514 51 564 q 358 435 228 464 q 658 406 488 406 q 826 443 736 429 q 1021 458 917 457 q 1106 448 1082 458 q 1131 424 1131 438 q 1019 366 1131 389 q 682 343 907 343 l 650 343 q 538 290 588 321 q 452 223 488 258 q 397 150 417 188 q 378 78 378 113 q 407 -3 378 36 q 497 -70 436 -42 q 651 -115 557 -99 q 878 -129 746 -132 q 1181 -87 1038 -126 q 1441 22 1325 -47 q 1638 184 1557 90 q 1756 389 1719 278 q 1788 338 1800 389 q 1717 185 1767 257 q 1599 53 1668 113 q 1442 -56 1529 -7 q 1260 -137 1356 -104 q 1064 -190 1165 -171 q 864 -208 963 -208 q 607 -189 715 -210 q 428 -132 499 -168 q 323 -45 357 -96 q 289 65 289 6 q 348 217 289 143 q 518 349 407 292 q 242 397 363 361 q 41 486 122 432 q -83 612 -40 540 q -125 767 -125 683 q -46 990 -125 876 q 182 1196 33 1103 q 544 1349 331 1289 q 1029 1410 758 1408 q 1329 1385 1199 1411 q 1548 1313 1460 1358 q 1682 1207 1636 1268 q 1728 1076 1728 1146 q 1699 969 1728 1021 q 1621 872 1671 917 q 1501 789 1571 826 q 1350 724 1432 751 q 1177 683 1268 697 q 992 668 1086 668 q 808 684 888 668 q 676 728 729 700 q 596 792 622 756 q 569 869 569 828 q 599 952 569 910 q 683 1028 628 994 q 820 1085 739 1063 q 1006 1107 901 1107 q 1115 1099 1064 1107 q 1206 1078 1167 1092 q 1267 1048 1244 1065 q 1289 1013 1289 1031 q 1274 981 1289 993 q 1235 972 1260 969 q 1156 1017 1218 997 q 994 1038 1093 1038 q 839 1023 904 1038 q 732 985 774 1008 q 670 933 690 961 q 650 876 650 904 q 674 821 650 847 q 744 774 699 794 q 856 743 790 754 q 1004 732 921 732 q 1258 760 1140 732 q 1461 835 1375 788 q 1597 944 1547 882 q 1646 1075 1646 1007 q 1606 1171 1646 1124 q 1488 1256 1565 1218 q 1299 1317 1411 1293 q 1040 1340 1186 1340 q 589 1290 789 1340 q 250 1158 389 1239 q 37 976 111 1078 q -37 774 -37 875 m 1179 1521 q 1137 1531 1160 1521 q 1091 1560 1114 1542 q 1047 1605 1068 1579 q 1013 1661 1026 1631 q 981 1613 1000 1638 q 941 1569 963 1589 q 895 1535 919 1549 q 849 1522 871 1522 q 814 1539 825 1522 q 810 1578 803 1556 q 849 1588 826 1578 q 894 1615 871 1597 q 939 1658 917 1632 q 978 1718 961 1685 q 995 1742 986 1736 q 1015 1747 1004 1747 q 1043 1738 1032 1747 q 1082 1671 1060 1700 q 1128 1621 1104 1642 q 1177 1589 1153 1600 q 1221 1578 1201 1578 q 1217 1539 1228 1557 q 1179 1521 1207 1521 z "},"":{"ha":1756,"x_min":-125,"x_max":1800,"o":"m -37 774 q 7 631 -37 697 q 140 514 51 564 q 358 435 228 464 q 658 406 488 406 q 826 443 736 429 q 1021 458 917 457 q 1106 448 1082 458 q 1131 424 1131 438 q 1019 366 1131 389 q 682 343 907 343 l 650 343 q 538 290 588 321 q 452 223 488 258 q 397 150 417 188 q 378 78 378 113 q 407 -3 378 36 q 497 -70 436 -42 q 651 -115 557 -99 q 878 -129 746 -132 q 1181 -87 1038 -126 q 1441 22 1325 -47 q 1638 184 1557 90 q 1756 389 1719 278 q 1788 338 1800 389 q 1717 185 1767 257 q 1599 53 1668 113 q 1442 -56 1529 -7 q 1260 -137 1356 -104 q 1064 -190 1165 -171 q 864 -208 963 -208 q 607 -189 715 -210 q 428 -132 499 -168 q 323 -45 357 -96 q 289 65 289 6 q 348 217 289 143 q 518 349 407 292 q 242 397 363 361 q 41 486 122 432 q -83 612 -40 540 q -125 767 -125 683 q -46 990 -125 876 q 182 1196 33 1103 q 544 1349 331 1289 q 1029 1410 758 1408 q 1329 1385 1199 1411 q 1548 1313 1460 1358 q 1682 1207 1636 1268 q 1728 1076 1728 1146 q 1699 969 1728 1021 q 1621 872 1671 917 q 1501 789 1571 826 q 1350 724 1432 751 q 1177 683 1268 697 q 992 668 1086 668 q 808 684 888 668 q 676 728 729 700 q 596 792 622 756 q 569 869 569 828 q 599 952 569 910 q 683 1028 628 994 q 820 1085 739 1063 q 1006 1107 901 1107 q 1115 1099 1064 1107 q 1206 1078 1167 1092 q 1267 1048 1244 1065 q 1289 1013 1289 1031 q 1274 981 1289 993 q 1235 972 1260 969 q 1156 1017 1218 997 q 994 1038 1093 1038 q 839 1023 904 1038 q 732 985 774 1008 q 670 933 690 961 q 650 876 650 904 q 674 821 650 847 q 744 774 699 794 q 856 743 790 754 q 1004 732 921 732 q 1258 760 1140 732 q 1461 835 1375 788 q 1597 944 1547 882 q 1646 1075 1646 1007 q 1606 1171 1646 1124 q 1488 1256 1565 1218 q 1299 1317 1411 1293 q 1040 1340 1186 1340 q 589 1290 789 1340 q 250 1158 389 1239 q 37 976 111 1078 q -37 774 -37 875 m 936 1643 q 972 1627 958 1643 q 986 1585 986 1611 q 969 1539 986 1557 q 929 1521 953 1521 q 894 1536 910 1521 q 879 1578 879 1551 q 896 1624 879 1606 q 936 1643 913 1643 m 1131 1644 q 1167 1628 1154 1644 q 1181 1585 1181 1611 q 1165 1538 1181 1557 q 1124 1519 1149 1519 q 1088 1535 1103 1519 q 1074 1578 1074 1550 q 1090 1625 1074 1606 q 1131 1644 1106 1644 z "},"":{"ha":1486,"x_min":0,"x_max":1333,"o":"m 668 153 q 785 166 731 153 q 879 202 839 179 q 942 256 919 225 q 965 322 965 288 q 944 391 965 358 q 882 449 924 424 q 776 488 840 474 q 626 503 713 503 q 393 474 493 503 q 225 399 293 446 q 123 293 157 353 q 89 169 89 233 q 123 49 89 104 q 226 -48 157 -7 q 397 -112 294 -89 q 636 -136 499 -136 q 881 -108 769 -136 q 1075 -24 993 -79 q 1203 111 1157 31 q 1249 294 1249 192 q 1229 469 1249 378 q 1183 657 1210 561 q 1088 635 1139 643 q 983 628 1038 628 q 751 690 832 628 q 669 850 669 751 q 676 913 669 882 q 699 978 682 943 q 747 1051 717 1013 q 826 1139 778 1090 q 981 1276 896 1207 q 1136 1410 1065 1344 q 1193 1494 1163 1463 q 1249 1525 1224 1525 q 1272 1500 1272 1525 q 1259 1464 1272 1485 q 1211 1408 1246 1443 l 1189 1386 q 1160 1289 1168 1339 q 1153 1179 1153 1239 q 1181 970 1153 1081 q 1242 744 1208 860 q 1293 775 1274 760 q 1310 766 1304 774 q 1315 749 1315 758 q 1258 688 1315 721 q 1311 488 1289 586 q 1333 303 1333 390 q 1280 89 1333 183 q 1131 -72 1226 -6 q 905 -172 1036 -137 q 618 -208 774 -207 q 356 -182 471 -210 q 163 -106 242 -154 q 42 11 83 -57 q 0 158 0 79 q 44 317 0 242 q 172 449 89 392 q 372 540 254 507 q 638 574 490 574 q 816 555 739 574 q 946 503 893 536 q 1026 426 999 469 q 1053 332 1053 382 q 1024 238 1053 282 q 943 159 996 193 q 816 106 890 125 q 651 86 742 86 q 550 94 601 86 q 457 117 499 103 q 388 153 415 132 q 361 199 361 174 q 378 233 361 219 q 426 243 394 247 q 451 208 428 224 q 508 179 474 192 q 585 160 543 167 q 668 153 628 153 m 1008 696 q 1085 701 1044 696 q 1167 718 1126 707 q 1107 947 1135 835 q 1079 1161 1079 1058 q 1094 1297 1079 1232 q 976 1192 1032 1240 q 878 1101 919 1143 q 780 976 807 1031 q 753 868 753 921 q 817 740 753 785 q 1008 696 881 696 m 1103 1867 q 1139 1801 1115 1831 q 1192 1747 1163 1771 q 1254 1708 1221 1724 q 1321 1689 1288 1693 q 1329 1669 1329 1681 q 1318 1645 1329 1654 q 1286 1636 1307 1636 q 1207 1655 1249 1636 q 1130 1703 1165 1674 q 1071 1767 1094 1732 q 1047 1836 1047 1803 q 1056 1863 1047 1851 q 1081 1874 1065 1874 q 1103 1867 1093 1874 z "},"":{"ha":1486,"x_min":0,"x_max":1435,"o":"m 668 153 q 785 166 731 153 q 879 202 839 179 q 942 256 919 225 q 965 322 965 288 q 944 391 965 358 q 882 449 924 424 q 776 488 840 474 q 626 503 713 503 q 393 474 493 503 q 225 399 293 446 q 123 293 157 353 q 89 169 89 233 q 123 49 89 104 q 226 -48 157 -7 q 397 -112 294 -89 q 636 -136 499 -136 q 881 -108 769 -136 q 1075 -24 993 -79 q 1203 111 1157 31 q 1249 294 1249 192 q 1229 469 1249 378 q 1183 657 1210 561 q 1088 635 1139 643 q 983 628 1038 628 q 751 690 832 628 q 669 850 669 751 q 676 913 669 882 q 699 978 682 943 q 747 1051 717 1013 q 826 1139 778 1090 q 981 1276 896 1207 q 1136 1410 1065 1344 q 1193 1494 1163 1463 q 1249 1525 1224 1525 q 1272 1500 1272 1525 q 1259 1464 1272 1485 q 1211 1408 1246 1443 l 1189 1386 q 1160 1289 1168 1339 q 1153 1179 1153 1239 q 1181 970 1153 1081 q 1242 744 1208 860 q 1293 775 1274 760 q 1310 766 1304 774 q 1315 749 1315 758 q 1258 688 1315 721 q 1311 488 1289 586 q 1333 303 1333 390 q 1280 89 1333 183 q 1131 -72 1226 -6 q 905 -172 1036 -137 q 618 -208 774 -207 q 356 -182 471 -210 q 163 -106 242 -154 q 42 11 83 -57 q 0 158 0 79 q 44 317 0 242 q 172 449 89 392 q 372 540 254 507 q 638 574 490 574 q 816 555 739 574 q 946 503 893 536 q 1026 426 999 469 q 1053 332 1053 382 q 1024 238 1053 282 q 943 159 996 193 q 816 106 890 125 q 651 86 742 86 q 550 94 601 86 q 457 117 499 103 q 388 153 415 132 q 361 199 361 174 q 378 233 361 219 q 426 243 394 247 q 451 208 428 224 q 508 179 474 192 q 585 160 543 167 q 668 153 628 153 m 1008 696 q 1085 701 1044 696 q 1167 718 1126 707 q 1107 947 1135 835 q 1079 1161 1079 1058 q 1094 1297 1079 1232 q 976 1192 1032 1240 q 878 1101 919 1143 q 780 976 807 1031 q 753 868 753 921 q 817 740 753 785 q 1008 696 881 696 m 1153 1701 q 1222 1716 1186 1704 q 1291 1747 1258 1728 q 1351 1792 1324 1767 q 1394 1847 1378 1818 q 1422 1847 1410 1853 q 1435 1819 1435 1842 q 1410 1765 1435 1796 q 1349 1705 1386 1733 q 1265 1656 1311 1676 q 1176 1636 1219 1636 q 1147 1645 1158 1636 q 1135 1671 1135 1654 q 1139 1688 1135 1679 q 1153 1701 1143 1696 z "},"":{"ha":1486,"x_min":0,"x_max":1443,"o":"m 668 153 q 785 166 731 153 q 879 202 839 179 q 942 256 919 225 q 965 322 965 288 q 944 391 965 358 q 882 449 924 424 q 776 488 840 474 q 626 503 713 503 q 393 474 493 503 q 225 399 293 446 q 123 293 157 353 q 89 169 89 233 q 123 49 89 104 q 226 -48 157 -7 q 397 -112 294 -89 q 636 -136 499 -136 q 881 -108 769 -136 q 1075 -24 993 -79 q 1203 111 1157 31 q 1249 294 1249 192 q 1229 469 1249 378 q 1183 657 1210 561 q 1088 635 1139 643 q 983 628 1038 628 q 751 690 832 628 q 669 850 669 751 q 676 913 669 882 q 699 978 682 943 q 747 1051 717 1013 q 826 1139 778 1090 q 981 1276 896 1207 q 1136 1410 1065 1344 q 1193 1494 1163 1463 q 1249 1525 1224 1525 q 1272 1500 1272 1525 q 1259 1464 1272 1485 q 1211 1408 1246 1443 l 1189 1386 q 1160 1289 1168 1339 q 1153 1179 1153 1239 q 1181 970 1153 1081 q 1242 744 1208 860 q 1293 775 1274 760 q 1310 766 1304 774 q 1315 749 1315 758 q 1258 688 1315 721 q 1311 488 1289 586 q 1333 303 1333 390 q 1280 89 1333 183 q 1131 -72 1226 -6 q 905 -172 1036 -137 q 618 -208 774 -207 q 356 -182 471 -210 q 163 -106 242 -154 q 42 11 83 -57 q 0 158 0 79 q 44 317 0 242 q 172 449 89 392 q 372 540 254 507 q 638 574 490 574 q 816 555 739 574 q 946 503 893 536 q 1026 426 999 469 q 1053 332 1053 382 q 1024 238 1053 282 q 943 159 996 193 q 816 106 890 125 q 651 86 742 86 q 550 94 601 86 q 457 117 499 103 q 388 153 415 132 q 361 199 361 174 q 378 233 361 219 q 426 243 394 247 q 451 208 428 224 q 508 179 474 192 q 585 160 543 167 q 668 153 628 153 m 1008 696 q 1085 701 1044 696 q 1167 718 1126 707 q 1107 947 1135 835 q 1079 1161 1079 1058 q 1094 1297 1079 1232 q 976 1192 1032 1240 q 878 1101 919 1143 q 780 976 807 1031 q 753 868 753 921 q 817 740 753 785 q 1008 696 881 696 m 1394 1622 q 1352 1633 1375 1622 q 1306 1662 1329 1643 q 1263 1706 1283 1681 q 1228 1763 1242 1732 q 1197 1715 1215 1739 q 1156 1670 1178 1690 q 1110 1637 1135 1650 q 1064 1624 1086 1624 q 1029 1640 1040 1624 q 1025 1679 1018 1657 q 1064 1689 1042 1679 q 1109 1716 1086 1699 q 1154 1760 1132 1733 q 1193 1819 1176 1786 q 1210 1843 1201 1838 q 1231 1849 1219 1849 q 1258 1839 1247 1849 q 1297 1772 1275 1801 q 1344 1722 1319 1743 q 1392 1690 1368 1701 q 1436 1679 1417 1679 q 1433 1640 1443 1658 q 1394 1622 1422 1622 z "},"":{"ha":1486,"x_min":0,"x_max":1393,"o":"m 668 153 q 785 166 731 153 q 879 202 839 179 q 942 256 919 225 q 965 322 965 288 q 944 391 965 358 q 882 449 924 424 q 776 488 840 474 q 626 503 713 503 q 393 474 493 503 q 225 399 293 446 q 123 293 157 353 q 89 169 89 233 q 123 49 89 104 q 226 -48 157 -7 q 397 -112 294 -89 q 636 -136 499 -136 q 881 -108 769 -136 q 1075 -24 993 -79 q 1203 111 1157 31 q 1249 294 1249 192 q 1229 469 1249 378 q 1183 657 1210 561 q 1088 635 1139 643 q 983 628 1038 628 q 751 690 832 628 q 669 850 669 751 q 676 913 669 882 q 699 978 682 943 q 747 1051 717 1013 q 826 1139 778 1090 q 981 1276 896 1207 q 1136 1410 1065 1344 q 1193 1494 1163 1463 q 1249 1525 1224 1525 q 1272 1500 1272 1525 q 1259 1464 1272 1485 q 1211 1408 1246 1443 l 1189 1386 q 1160 1289 1168 1339 q 1153 1179 1153 1239 q 1181 970 1153 1081 q 1242 744 1208 860 q 1293 775 1274 760 q 1310 766 1304 774 q 1315 749 1315 758 q 1258 688 1315 721 q 1311 488 1289 586 q 1333 303 1333 390 q 1280 89 1333 183 q 1131 -72 1226 -6 q 905 -172 1036 -137 q 618 -208 774 -207 q 356 -182 471 -210 q 163 -106 242 -154 q 42 11 83 -57 q 0 158 0 79 q 44 317 0 242 q 172 449 89 392 q 372 540 254 507 q 638 574 490 574 q 816 555 739 574 q 946 503 893 536 q 1026 426 999 469 q 1053 332 1053 382 q 1024 238 1053 282 q 943 159 996 193 q 816 106 890 125 q 651 86 742 86 q 550 94 601 86 q 457 117 499 103 q 388 153 415 132 q 361 199 361 174 q 378 233 361 219 q 426 243 394 247 q 451 208 428 224 q 508 179 474 192 q 585 160 543 167 q 668 153 628 153 m 1008 696 q 1085 701 1044 696 q 1167 718 1126 707 q 1107 947 1135 835 q 1079 1161 1079 1058 q 1094 1297 1079 1232 q 976 1192 1032 1240 q 878 1101 919 1143 q 780 976 807 1031 q 753 868 753 921 q 817 740 753 785 q 1008 696 881 696 m 1149 1760 q 1185 1744 1171 1760 q 1199 1701 1199 1728 q 1182 1656 1199 1674 q 1142 1638 1165 1638 q 1107 1653 1122 1638 q 1092 1694 1092 1668 q 1108 1741 1092 1722 q 1149 1760 1125 1760 m 1343 1761 q 1380 1744 1367 1761 q 1393 1701 1393 1728 q 1377 1655 1393 1674 q 1336 1636 1361 1636 q 1301 1651 1315 1636 q 1286 1694 1286 1667 q 1302 1742 1286 1722 q 1343 1761 1318 1761 z "},"":{"ha":2121,"x_min":-139,"x_max":1996,"o":"m 588 356 q 524 369 546 356 q 503 406 503 383 q 522 439 503 432 q 557 431 535 433 q 603 428 579 428 q 651 430 626 428 q 700 435 675 432 q 691 506 696 471 q 681 574 686 540 q 634 571 657 571 q 588 571 611 571 q 257 600 394 571 q 31 680 119 629 q -98 798 -57 731 q -139 942 -139 865 q -83 1112 -139 1026 q 92 1265 -26 1197 q 394 1376 211 1333 q 832 1418 578 1418 q 1331 1350 1114 1418 q 1697 1165 1549 1282 q 1920 894 1844 1049 q 1996 565 1996 739 q 1928 244 1996 388 q 1741 1 1860 101 q 1460 -154 1622 -100 q 1111 -208 1299 -208 q 956 -199 1038 -208 q 789 -174 874 -189 l 781 -243 q 750 -308 774 -292 q 694 -308 726 -324 q 648 -223 693 -276 q 532 -111 603 -169 q 379 -62 450 -87 q 256 -11 308 -36 q 174 37 204 14 q 143 78 143 60 q 151 97 143 88 q 176 109 158 106 q 221 109 193 113 q 289 90 249 106 q 403 38 342 71 q 522 -36 464 4 q 621 -63 571 -51 q 721 -86 671 -75 q 724 -21 724 -54 q 724 49 724 13 q 718 209 722 129 q 707 365 714 289 q 648 358 678 361 q 588 356 618 356 m 600 875 q 619 907 606 896 q 651 918 633 918 q 688 899 675 918 q 707 856 700 879 q 731 760 719 813 q 753 649 742 708 q 949 690 863 663 q 1096 751 1036 717 q 1187 824 1156 786 q 1218 896 1218 861 q 1197 951 1218 925 q 1133 998 1175 978 q 1029 1030 1092 1018 q 885 1042 967 1042 q 707 1024 786 1042 q 572 978 628 1006 q 481 920 515 951 q 438 861 447 889 q 401 872 415 863 q 386 906 386 882 q 419 967 386 932 q 517 1033 453 1003 q 675 1085 582 1064 q 889 1107 768 1107 q 1074 1090 994 1107 q 1206 1045 1153 1074 q 1285 978 1258 1017 q 1311 899 1311 940 q 1272 800 1311 850 q 1160 706 1232 750 q 988 629 1089 663 q 763 581 886 596 q 772 516 768 549 q 779 449 775 483 q 885 469 832 460 q 992 478 938 478 q 1093 461 1064 478 q 1122 421 1122 444 q 1113 393 1122 406 q 1092 378 1104 381 q 1045 395 1079 389 q 967 401 1011 401 q 877 394 922 401 q 785 379 832 388 q 795 218 792 299 q 800 60 799 138 q 799 -23 800 17 q 794 -101 797 -62 q 958 -124 881 -117 q 1097 -132 1036 -132 q 1436 -80 1286 -132 q 1691 63 1586 -28 q 1851 278 1796 154 q 1907 546 1907 401 q 1829 873 1907 725 q 1609 1126 1751 1021 q 1267 1290 1467 1232 q 825 1349 1068 1349 q 431 1312 597 1349 q 157 1218 265 1275 q -3 1092 49 1161 q -56 960 -56 1024 q -15 828 -56 888 q 106 726 26 768 q 302 660 186 683 q 568 638 418 638 q 619 638 594 638 q 669 640 644 638 q 637 778 654 718 q 600 875 619 839 m 717 -158 l 661 -146 q 713 -197 692 -172 l 717 -158 z "},"":{"ha":2219,"x_min":0,"x_max":2858,"o":"m 2788 1501 q 2722 1576 2775 1546 q 2582 1607 2669 1607 q 2472 1596 2525 1607 q 2370 1565 2418 1585 q 2281 1517 2322 1544 q 2207 1458 2239 1490 q 2007 1121 2067 1318 q 1947 668 1947 924 q 1961 439 1947 556 q 1996 225 1975 322 q 2040 61 2017 128 q 2081 -19 2063 -6 q 2063 -66 2079 -50 q 2019 -82 2047 -82 q 1953 -46 1988 -82 q 1822 110 1899 11 q 1665 331 1746 208 q 1506 592 1583 454 q 1372 863 1428 729 q 1376 657 1376 763 q 1362 406 1376 517 q 1320 211 1347 296 q 1256 64 1293 126 q 1172 -44 1218 1 q 962 -170 1085 -132 q 683 -211 839 -208 q 421 -178 544 -212 q 203 -81 297 -143 q 55 65 110 -19 q 0 246 0 149 q 42 405 0 326 q 163 545 85 483 q 354 645 242 607 q 608 683 467 683 q 790 664 706 683 q 935 609 874 644 q 1031 525 996 574 q 1067 418 1067 476 q 1040 317 1067 364 q 960 235 1013 269 q 831 181 907 201 q 657 161 754 161 q 558 170 608 161 q 469 195 508 179 q 404 233 429 211 q 379 283 379 256 q 396 318 379 304 q 444 326 413 332 q 467 288 446 306 q 521 258 488 271 q 594 238 554 246 q 672 231 633 231 q 801 244 744 231 q 898 282 858 258 q 958 338 938 306 q 979 407 979 371 q 953 486 979 449 q 877 552 926 524 q 758 597 828 581 q 603 614 689 614 q 383 581 479 614 q 221 497 288 549 q 119 383 154 446 q 85 257 85 319 q 127 113 85 183 q 249 -14 169 42 q 444 -103 329 -69 q 703 -136 558 -136 q 940 -103 835 -136 q 1121 4 1044 -71 q 1199 107 1164 47 q 1257 250 1233 167 q 1294 444 1281 333 q 1307 700 1307 554 q 1303 872 1307 783 q 1292 1051 1299 960 q 1247 1224 1264 1146 q 1231 1354 1231 1301 q 1240 1408 1231 1389 q 1268 1428 1250 1428 q 1331 1313 1306 1428 q 1349 1203 1339 1269 q 1367 1069 1360 1136 q 1490 790 1417 932 q 1642 516 1563 647 q 1802 273 1722 385 q 1947 85 1882 161 q 1911 226 1926 151 q 1886 375 1896 300 q 1872 524 1876 450 q 1867 661 1867 597 q 1935 1140 1867 929 q 2156 1503 2003 1350 q 2353 1635 2240 1588 q 2604 1683 2467 1683 q 2714 1669 2667 1683 q 2794 1635 2761 1656 q 2842 1588 2826 1614 q 2858 1540 2858 1563 q 2837 1503 2858 1513 q 2788 1501 2815 1493 m 1551 1531 q 1513 1535 1528 1522 q 1499 1575 1499 1547 q 1528 1642 1499 1613 q 1601 1671 1557 1671 q 1650 1660 1628 1671 q 1692 1636 1672 1649 q 1731 1613 1711 1624 q 1774 1601 1751 1601 q 1812 1619 1796 1601 q 1828 1676 1828 1638 q 1861 1673 1847 1683 q 1875 1639 1875 1663 q 1846 1562 1875 1594 q 1771 1529 1817 1529 q 1719 1540 1743 1529 q 1674 1564 1696 1551 q 1635 1588 1653 1576 q 1600 1599 1617 1599 q 1561 1578 1574 1599 q 1551 1531 1549 1558 z "},"":{"ha":1865,"x_min":-69,"x_max":1740,"o":"m 792 1410 q 1196 1347 1019 1410 q 1493 1181 1372 1285 q 1677 940 1614 1076 q 1740 656 1740 804 q 1704 426 1740 536 q 1603 219 1668 315 q 1449 45 1538 124 q 1255 -90 1360 -33 q 1032 -177 1150 -146 q 793 -208 914 -208 q 547 -172 658 -208 q 351 -67 435 -135 q 217 94 268 0 q 151 304 165 189 q -14 455 42 363 q -69 671 -69 547 q -43 853 -69 763 q 34 1026 -17 944 q 158 1178 85 1108 q 328 1300 232 1249 q 540 1381 424 1351 q 792 1410 657 1410 m 297 911 q 335 934 315 933 q 365 911 356 935 q 314 827 339 882 q 269 705 289 772 q 236 565 249 638 q 224 428 224 492 q 224 393 224 410 q 226 360 224 376 q 574 296 365 296 q 822 325 706 296 q 1024 399 938 354 q 1161 499 1111 444 q 1211 601 1211 553 q 1159 692 1211 654 q 1019 729 1107 731 q 1026 763 1013 747 q 1079 779 1039 779 q 1233 732 1175 779 q 1292 610 1292 685 q 1233 468 1292 538 q 1072 344 1174 399 q 838 257 971 290 q 556 224 704 224 q 386 235 464 224 q 243 267 308 246 q 313 106 265 178 q 431 -15 361 35 q 594 -92 501 -65 q 797 -119 686 -119 q 1026 -92 917 -119 q 1231 -14 1136 -64 q 1403 106 1325 36 q 1536 261 1481 176 q 1622 443 1592 346 q 1651 644 1651 540 q 1588 915 1651 789 q 1410 1136 1525 1042 q 1136 1285 1296 1231 q 783 1339 976 1339 q 460 1284 603 1339 q 217 1139 317 1229 q 65 932 118 1049 q 13 692 13 815 q 45 528 13 600 q 146 408 78 456 q 160 552 147 479 q 192 692 172 625 q 239 817 213 760 q 297 911 265 874 m 678 1751 q 714 1685 690 1715 q 767 1632 738 1656 q 829 1593 796 1608 q 896 1574 863 1578 q 904 1554 904 1565 q 893 1530 904 1539 q 861 1521 882 1521 q 782 1540 824 1521 q 705 1588 740 1558 q 646 1652 669 1617 q 622 1721 622 1688 q 631 1747 622 1736 q 656 1758 640 1758 q 678 1751 668 1758 z "},"":{"ha":1865,"x_min":-69,"x_max":1740,"o":"m 792 1410 q 1196 1347 1019 1410 q 1493 1181 1372 1285 q 1677 940 1614 1076 q 1740 656 1740 804 q 1704 426 1740 536 q 1603 219 1668 315 q 1449 45 1538 124 q 1255 -90 1360 -33 q 1032 -177 1150 -146 q 793 -208 914 -208 q 547 -172 658 -208 q 351 -67 435 -135 q 217 94 268 0 q 151 304 165 189 q -14 455 42 363 q -69 671 -69 547 q -43 853 -69 763 q 34 1026 -17 944 q 158 1178 85 1108 q 328 1300 232 1249 q 540 1381 424 1351 q 792 1410 657 1410 m 297 911 q 335 934 315 933 q 365 911 356 935 q 314 827 339 882 q 269 705 289 772 q 236 565 249 638 q 224 428 224 492 q 224 393 224 410 q 226 360 224 376 q 574 296 365 296 q 822 325 706 296 q 1024 399 938 354 q 1161 499 1111 444 q 1211 601 1211 553 q 1159 692 1211 654 q 1019 729 1107 731 q 1026 763 1013 747 q 1079 779 1039 779 q 1233 732 1175 779 q 1292 610 1292 685 q 1233 468 1292 538 q 1072 344 1174 399 q 838 257 971 290 q 556 224 704 224 q 386 235 464 224 q 243 267 308 246 q 313 106 265 178 q 431 -15 361 35 q 594 -92 501 -65 q 797 -119 686 -119 q 1026 -92 917 -119 q 1231 -14 1136 -64 q 1403 106 1325 36 q 1536 261 1481 176 q 1622 443 1592 346 q 1651 644 1651 540 q 1588 915 1651 789 q 1410 1136 1525 1042 q 1136 1285 1296 1231 q 783 1339 976 1339 q 460 1284 603 1339 q 217 1139 317 1229 q 65 932 118 1049 q 13 692 13 815 q 45 528 13 600 q 146 408 78 456 q 160 552 147 479 q 192 692 172 625 q 239 817 213 760 q 297 911 265 874 m 710 1586 q 779 1601 743 1589 q 848 1632 815 1613 q 908 1677 881 1651 q 951 1732 935 1703 q 979 1732 967 1738 q 992 1704 992 1726 q 967 1649 992 1681 q 906 1590 943 1618 q 822 1541 868 1561 q 733 1521 776 1521 q 703 1530 715 1521 q 692 1556 692 1539 q 696 1572 692 1564 q 710 1586 700 1581 z "},"":{"ha":1865,"x_min":-69,"x_max":1740,"o":"m 792 1410 q 1196 1347 1019 1410 q 1493 1181 1372 1285 q 1677 940 1614 1076 q 1740 656 1740 804 q 1704 426 1740 536 q 1603 219 1668 315 q 1449 45 1538 124 q 1255 -90 1360 -33 q 1032 -177 1150 -146 q 793 -208 914 -208 q 547 -172 658 -208 q 351 -67 435 -135 q 217 94 268 0 q 151 304 165 189 q -14 455 42 363 q -69 671 -69 547 q -43 853 -69 763 q 34 1026 -17 944 q 158 1178 85 1108 q 328 1300 232 1249 q 540 1381 424 1351 q 792 1410 657 1410 m 297 911 q 335 934 315 933 q 365 911 356 935 q 314 827 339 882 q 269 705 289 772 q 236 565 249 638 q 224 428 224 492 q 224 393 224 410 q 226 360 224 376 q 574 296 365 296 q 822 325 706 296 q 1024 399 938 354 q 1161 499 1111 444 q 1211 601 1211 553 q 1159 692 1211 654 q 1019 729 1107 731 q 1026 763 1013 747 q 1079 779 1039 779 q 1233 732 1175 779 q 1292 610 1292 685 q 1233 468 1292 538 q 1072 344 1174 399 q 838 257 971 290 q 556 224 704 224 q 386 235 464 224 q 243 267 308 246 q 313 106 265 178 q 431 -15 361 35 q 594 -92 501 -65 q 797 -119 686 -119 q 1026 -92 917 -119 q 1231 -14 1136 -64 q 1403 106 1325 36 q 1536 261 1481 176 q 1622 443 1592 346 q 1651 644 1651 540 q 1588 915 1651 789 q 1410 1136 1525 1042 q 1136 1285 1296 1231 q 783 1339 976 1339 q 460 1284 603 1339 q 217 1139 317 1229 q 65 932 118 1049 q 13 692 13 815 q 45 528 13 600 q 146 408 78 456 q 160 552 147 479 q 192 692 172 625 q 239 817 213 760 q 297 911 265 874 m 974 1507 q 931 1517 954 1507 q 885 1547 908 1528 q 842 1591 863 1565 q 807 1647 821 1617 q 776 1599 794 1624 q 735 1555 757 1575 q 690 1522 714 1535 q 643 1508 665 1508 q 608 1525 619 1508 q 604 1564 597 1542 q 643 1574 621 1564 q 688 1601 665 1583 q 733 1644 711 1618 q 772 1704 756 1671 q 790 1728 781 1722 q 810 1733 799 1733 q 838 1724 826 1733 q 876 1657 854 1686 q 923 1607 899 1628 q 972 1575 947 1586 q 1015 1564 996 1564 q 1012 1525 1022 1543 q 974 1507 1001 1507 z "},"":{"ha":1865,"x_min":-69,"x_max":1740,"o":"m 792 1410 q 1196 1347 1019 1410 q 1493 1181 1372 1285 q 1677 940 1614 1076 q 1740 656 1740 804 q 1704 426 1740 536 q 1603 219 1668 315 q 1449 45 1538 124 q 1255 -90 1360 -33 q 1032 -177 1150 -146 q 793 -208 914 -208 q 547 -172 658 -208 q 351 -67 435 -135 q 217 94 268 0 q 151 304 165 189 q -14 455 42 363 q -69 671 -69 547 q -43 853 -69 763 q 34 1026 -17 944 q 158 1178 85 1108 q 328 1300 232 1249 q 540 1381 424 1351 q 792 1410 657 1410 m 297 911 q 335 934 315 933 q 365 911 356 935 q 314 827 339 882 q 269 705 289 772 q 236 565 249 638 q 224 428 224 492 q 224 393 224 410 q 226 360 224 376 q 574 296 365 296 q 822 325 706 296 q 1024 399 938 354 q 1161 499 1111 444 q 1211 601 1211 553 q 1159 692 1211 654 q 1019 729 1107 731 q 1026 763 1013 747 q 1079 779 1039 779 q 1233 732 1175 779 q 1292 610 1292 685 q 1233 468 1292 538 q 1072 344 1174 399 q 838 257 971 290 q 556 224 704 224 q 386 235 464 224 q 243 267 308 246 q 313 106 265 178 q 431 -15 361 35 q 594 -92 501 -65 q 797 -119 686 -119 q 1026 -92 917 -119 q 1231 -14 1136 -64 q 1403 106 1325 36 q 1536 261 1481 176 q 1622 443 1592 346 q 1651 644 1651 540 q 1588 915 1651 789 q 1410 1136 1525 1042 q 1136 1285 1296 1231 q 783 1339 976 1339 q 460 1284 603 1339 q 217 1139 317 1229 q 65 932 118 1049 q 13 692 13 815 q 45 528 13 600 q 146 408 78 456 q 160 552 147 479 q 192 692 172 625 q 239 817 213 760 q 297 911 265 874 m 689 1522 q 651 1526 665 1514 q 636 1567 636 1539 q 665 1633 636 1604 q 739 1663 694 1663 q 788 1651 765 1663 q 829 1628 810 1640 q 869 1604 849 1615 q 911 1593 889 1593 q 949 1611 933 1593 q 965 1668 965 1629 q 999 1665 985 1675 q 1013 1631 1013 1654 q 983 1553 1013 1586 q 908 1521 954 1521 q 857 1532 881 1521 q 812 1556 833 1543 q 772 1579 790 1568 q 738 1590 754 1590 q 699 1570 711 1590 q 689 1522 686 1550 z "},"":{"ha":1865,"x_min":-69,"x_max":1740,"o":"m 792 1410 q 1196 1347 1019 1410 q 1493 1181 1372 1285 q 1677 940 1614 1076 q 1740 656 1740 804 q 1704 426 1740 536 q 1603 219 1668 315 q 1449 45 1538 124 q 1255 -90 1360 -33 q 1032 -177 1150 -146 q 793 -208 914 -208 q 547 -172 658 -208 q 351 -67 435 -135 q 217 94 268 0 q 151 304 165 189 q -14 455 42 363 q -69 671 -69 547 q -43 853 -69 763 q 34 1026 -17 944 q 158 1178 85 1108 q 328 1300 232 1249 q 540 1381 424 1351 q 792 1410 657 1410 m 297 911 q 335 934 315 933 q 365 911 356 935 q 314 827 339 882 q 269 705 289 772 q 236 565 249 638 q 224 428 224 492 q 224 393 224 410 q 226 360 224 376 q 574 296 365 296 q 822 325 706 296 q 1024 399 938 354 q 1161 499 1111 444 q 1211 601 1211 553 q 1159 692 1211 654 q 1019 729 1107 731 q 1026 763 1013 747 q 1079 779 1039 779 q 1233 732 1175 779 q 1292 610 1292 685 q 1233 468 1292 538 q 1072 344 1174 399 q 838 257 971 290 q 556 224 704 224 q 386 235 464 224 q 243 267 308 246 q 313 106 265 178 q 431 -15 361 35 q 594 -92 501 -65 q 797 -119 686 -119 q 1026 -92 917 -119 q 1231 -14 1136 -64 q 1403 106 1325 36 q 1536 261 1481 176 q 1622 443 1592 346 q 1651 644 1651 540 q 1588 915 1651 789 q 1410 1136 1525 1042 q 1136 1285 1296 1231 q 783 1339 976 1339 q 460 1284 603 1339 q 217 1139 317 1229 q 65 932 118 1049 q 13 692 13 815 q 45 528 13 600 q 146 408 78 456 q 160 552 147 479 q 192 692 172 625 q 239 817 213 760 q 297 911 265 874 m 701 1644 q 738 1628 724 1644 q 751 1586 751 1613 q 735 1540 751 1558 q 694 1522 718 1522 q 660 1538 675 1522 q 644 1579 644 1553 q 661 1626 644 1607 q 701 1644 678 1644 m 896 1646 q 933 1629 919 1646 q 946 1586 946 1613 q 930 1540 946 1558 q 889 1521 914 1521 q 853 1536 868 1521 q 839 1579 839 1551 q 855 1626 839 1607 q 896 1646 871 1646 z "},"":{"ha":611,"x_min":83,"x_max":535,"o":"m 150 126 q 122 115 139 115 q 94 126 106 115 q 83 156 83 136 q 110 238 83 185 q 208 382 136 292 q 119 517 153 451 q 102 557 107 540 q 97 586 97 574 q 106 614 97 603 q 131 625 115 625 q 151 617 143 625 q 184 542 158 589 q 256 438 210 494 q 403 586 347 544 q 494 628 460 628 q 528 583 535 628 q 425 517 478 564 q 300 385 372 471 q 431 262 371 306 q 526 204 492 218 q 535 181 535 193 q 524 152 535 163 q 494 142 513 142 q 399 190 463 142 q 254 328 335 238 q 176 205 200 254 q 150 126 153 156 z "},"":{"ha":1876,"x_min":125,"x_max":1751,"o":"m 718 -437 q 681 -425 699 -437 q 647 -382 663 -412 q 620 -301 632 -351 q 601 -176 608 -251 q 407 -90 494 -147 q 257 47 319 -33 q 160 228 194 126 q 125 447 125 329 q 156 694 125 572 q 242 920 188 815 q 374 1108 297 1025 q 540 1240 450 1192 q 672 1288 628 1288 q 719 1263 717 1289 q 697 1208 721 1239 q 631 1161 672 1176 q 591 1158 608 1153 q 567 1183 574 1164 q 416 1051 482 1129 q 304 880 350 972 q 235 686 258 788 q 211 485 211 585 q 238 293 211 382 q 313 132 264 204 q 433 6 363 60 q 594 -78 504 -47 q 617 344 585 140 q 710 722 650 547 q 851 1035 771 896 q 1019 1263 932 1174 q 1158 1367 1093 1336 q 1297 1397 1222 1397 q 1458 1347 1378 1397 q 1604 1204 1539 1296 q 1710 984 1669 1113 q 1751 699 1751 856 q 1718 440 1751 561 q 1624 219 1685 319 q 1478 39 1563 118 q 1292 -95 1394 -40 q 1074 -179 1190 -150 q 835 -208 958 -208 q 765 -206 799 -208 q 700 -199 732 -203 q 731 -329 711 -276 q 767 -400 751 -382 q 751 -426 764 -415 q 718 -437 738 -437 m 1075 1208 q 927 1015 1001 1136 q 796 727 853 893 q 708 352 739 561 q 690 -104 676 143 q 765 -115 726 -111 q 843 -118 803 -118 q 1179 -57 1028 -118 q 1438 110 1331 4 q 1604 362 1546 217 q 1663 674 1663 507 q 1628 934 1663 817 q 1540 1135 1594 1051 q 1415 1265 1485 1219 q 1276 1311 1346 1311 q 1178 1288 1225 1311 q 1075 1208 1132 1265 z "},"":{"ha":1788,"x_min":-111,"x_max":1826,"o":"m 1788 389 q 1814 338 1826 389 q 1749 131 1783 217 q 1679 -8 1715 46 q 1606 -87 1643 -62 q 1531 -111 1568 -111 q 1452 -83 1489 -111 q 1388 3 1415 -56 q 1342 153 1360 61 q 1322 375 1325 246 q 1194 113 1264 225 q 1046 -74 1124 1 q 885 -185 968 -149 q 718 -222 801 -222 q 599 -201 653 -222 q 505 -139 544 -179 q 444 -40 465 -99 q 422 92 422 18 q 445 252 422 172 q 503 412 468 332 q 578 572 538 492 q 654 736 619 653 q 712 906 689 819 q 735 1086 735 993 q 680 1265 735 1199 q 524 1331 625 1331 q 387 1303 456 1331 q 256 1226 318 1275 q 140 1111 193 1176 q 47 970 86 1046 q -15 813 7 894 q -37 650 -37 731 q 5 483 -37 532 q 115 433 47 433 q 233 471 175 433 q 336 569 290 508 q 410 710 382 631 q 439 871 439 789 q 415 960 439 929 q 351 992 392 992 q 261 957 300 992 q 206 876 222 922 q 171 892 182 874 q 176 943 160 910 q 212 994 190 971 q 259 1035 233 1018 q 313 1061 285 1051 q 368 1071 340 1071 q 472 1020 438 1071 q 507 888 507 969 q 474 695 507 792 q 385 522 440 599 q 257 396 329 444 q 108 347 185 347 q -49 417 13 347 q -111 631 -111 486 q -85 818 -111 724 q -14 1000 -60 913 q 94 1163 32 1088 q 230 1295 157 1239 q 383 1383 303 1351 q 546 1415 464 1415 q 660 1393 610 1415 q 747 1331 711 1371 q 801 1233 782 1290 q 819 1107 819 1176 q 797 933 819 1018 q 741 763 775 847 q 668 598 707 679 q 595 435 629 517 q 539 274 561 354 q 517 114 517 194 q 533 8 517 53 q 579 -67 550 -37 q 648 -112 608 -97 q 733 -126 688 -126 q 888 -87 810 -126 q 1042 35 967 -47 q 1190 244 1118 117 q 1324 547 1261 372 q 1351 842 1331 713 q 1396 1042 1372 972 q 1442 1103 1417 1103 q 1460 1088 1453 1103 q 1468 1033 1468 1072 q 1463 946 1468 996 q 1447 837 1457 896 q 1424 713 1438 778 q 1394 581 1411 647 q 1392 526 1392 553 q 1392 471 1392 499 q 1405 244 1392 338 q 1439 92 1418 150 q 1486 7 1460 33 q 1539 -19 1513 -19 q 1590 -4 1564 -19 q 1645 55 1615 11 q 1710 179 1675 99 q 1788 389 1746 260 m 1010 1586 q 1046 1520 1022 1550 q 1099 1467 1069 1490 q 1161 1428 1128 1443 q 1228 1408 1194 1413 q 1236 1389 1236 1400 q 1225 1365 1236 1374 q 1193 1356 1214 1356 q 1114 1374 1156 1356 q 1037 1422 1072 1393 q 978 1487 1001 1451 q 954 1556 954 1522 q 963 1582 954 1571 q 988 1593 972 1593 q 1010 1586 1000 1593 z "}}}
